<svg fill="none" height="20" viewBox="0 0 20 20" width="20" xmlns="http://www.w3.org/2000/svg"><path clip-rule="evenodd" d="m6 2c-1.10457 0-2 .89543-2 2v12c0 1.1046.89543 2 2 2h8c1.1046 0 2-.8954 2-2v-8.58578c0-.53043-.2107-1.03915-.5858-1.41422l-3.4142-3.41422c-.3751-.37507-.8838-.58578-1.4142-.58578zm5 6c0-.55228-.4477-1-1-1-.55228 0-1 .44772-1 1v3.5858l-1.29288-1.2929c-.39053-.39053-1.02371-.39053-1.41424 0-.39052.3905-.39052 1.0237 0 1.4142l3 3c.39053.3905 1.02372.3905 1.41422 0l3-3c.3905-.3905.3905-1.0237 0-1.4142-.3905-.39053-1.0237-.39053-1.4142 0l-1.2929 1.2929z" fill="rgb(0,0,0)" fill-rule="evenodd"/></svg>