<?xml version="1.0" encoding="utf-8"?>
<!-- Generator: Adobe Illustrator 23.0.3, SVG Export Plug-In . SVG Version: 6.00 Build 0)  -->
<svg version="1.1" id="Layer_1" xmlns="http://www.w3.org/2000/svg" xmlns:xlink="http://www.w3.org/1999/xlink" x="0px" y="0px"
	 viewBox="0 0 756 151" style="enable-background:new 0 0 756 151;" xml:space="preserve">
<style type="text/css">
	.st0{fill-rule:evenodd;clip-rule:evenodd;fill:#049B5A;}
	.st1{fill-rule:evenodd;clip-rule:evenodd;fill:#151E2D;}
	.st2{fill:none;stroke:#151E2D;stroke-width:10.2949;stroke-miterlimit:10;}
	.st3{fill-rule:evenodd;clip-rule:evenodd;fill:#F59A00;}
	.st4{fill:none;stroke:#F59A00;stroke-width:4.7897;stroke-miterlimit:10;}
	.st5{enable-background:new    ;}
</style>
<path class="st0" d="M220.2,55.8h-28.9V25.5H175v72.7h16.2V69.6h28.9v28.6h16.2V25.5h-16.2v30.3H220.2z M303.7,77.9
	c-4.2,4.6-9.3,6.9-15.3,6.9c-6.1,0-11.2-2.3-15.4-6.9c-4.2-4.5-6.2-10-6.2-16.5s2.1-12,6.2-16.5s9.3-6.9,15.4-6.9
	c6,0,11.1,2.3,15.3,6.9s6.2,10.1,6.2,16.5C310,67.9,307.9,73.4,303.7,77.9L303.7,77.9z M326.5,61.3c0-10.7-3.6-19.7-11-26.8
	c-7.4-7.2-16.4-10.7-27.1-10.7s-19.8,3.5-27.1,10.7c-7.4,7.2-11,16.1-11,26.8s3.6,19.6,11,26.7c7.4,7.2,16.4,10.8,27.1,10.8
	s19.8-3.6,27.1-10.8C322.9,80.9,326.5,72.1,326.5,61.3L326.5,61.3z M405.3,98.2h16.2V25.5h-21.9l-18.8,40l-18.7-40h-22v72.7h16.2
	V52.4L376,92.1h9.7l19.7-39.7L405.3,98.2L405.3,98.2z M439.5,25.5v72.7H493V83.8h-37.4V68.7h32.6V54.9h-32.6v-15h36.2V25.5H439.5
	L439.5,25.5z M530.9,38c6.8,0,13.2,2.4,19.6,7.2l8.2-11.9c-3.6-3-7.8-5.4-12.7-7.1s-9.7-2.5-14.6-2.5c-7.4,0-13.6,1.9-18.5,5.6
	c-5,3.8-7.5,9-7.5,15.9c0,7,2,12,5.9,15.2c3.8,3.2,10.1,5.9,18.5,7.9c5.3,1.3,9,2.6,10.7,3.8c1.8,1.3,2.7,3,2.7,5.2
	s-0.8,3.9-2.5,5.2c-1.8,1.3-4.1,2-7.1,2c-6.7,0-13.9-3.4-21.7-10.3L502.2,86c9.3,8.5,19.6,12.8,31.1,12.8c8,0,14.5-2.1,19.3-6.1
	c4.9-4.1,7.3-9.3,7.3-15.8c0-6.6-1.9-11.4-5.7-14.9c-3.8-3.4-9.2-5.9-16-7.7c-7-1.7-11.3-3.1-13.2-4.4c-2-1.3-2.9-2.9-2.9-5.1
	c0-2.1,0.8-3.8,2.4-5.1C526.1,38.7,528.2,38,530.9,38L530.9,38z M573.9,25.5v72.7h16.2V69.7h32V55.4h-32V39.7h33.7V25.5H573.9
	L573.9,25.5z M668.8,69.4l25.2-44h-17.6l-15.7,27.1l-15.7-27h-17.6l25.2,44v28.7h16.2L668.8,69.4L668.8,69.4z"/>
<path class="st1" d="M182.5,115.6c-2.8,0-4.9,1.1-6.1,3v-9.5h-2.2V132h2.2v-8.5c0-3.7,2.2-5.9,5.7-5.9c3.1,0,4.9,1.8,4.9,5.2v9.2
	h2.2v-9.4C189.2,117.9,186.5,115.6,182.5,115.6L182.5,115.6z M225.4,132.1c4.8,0,8.3-3.5,8.3-8.3s-3.5-8.3-8.3-8.3s-8.3,3.4-8.3,8.3
	C217.1,128.7,220.6,132.1,225.4,132.1L225.4,132.1z M225.4,130.2c-3.5,0-6.1-2.5-6.1-6.3s2.6-6.3,6.1-6.3s6,2.5,6,6.3
	S228.8,130.2,225.4,130.2L225.4,130.2z M281.9,115.6c-2.9,0-5.3,1.3-6.4,3.4c-1-2.3-3.1-3.4-5.8-3.4c-2.7,0-4.8,1.1-6,3.1v-3h-2.1
	V132h2.2v-8.5c0-3.7,2.1-5.9,5.4-5.9c3,0,4.7,1.8,4.7,5.2v9.2h2.2v-8.5c0-3.7,2.1-5.9,5.4-5.9c2.9,0,4.7,1.8,4.7,5.2v9.2h2.2v-9.4
	C288.4,117.9,285.8,115.6,281.9,115.6L281.9,115.6z M332.1,123.8c0-4.9-3.3-8.3-7.9-8.3s-7.9,3.4-7.9,8.3c0,4.9,3.5,8.3,8.5,8.3
	c2.6,0,4.8-0.9,6.3-2.7l-1.2-1.4c-1.2,1.4-3,2.1-5,2.1c-3.5,0-6.1-2.3-6.4-5.7h13.6C332.1,124.3,332.1,124,332.1,123.8L332.1,123.8z
	 M324.3,117.5c3.2,0,5.5,2.2,5.8,5.4h-11.5C318.8,119.7,321.1,117.5,324.3,117.5L324.3,117.5z M364.5,132.1c4.2,0,6.7-1.8,6.7-4.6
	c0-6.2-10.5-2.9-10.5-7.3c0-1.5,1.3-2.7,4.2-2.7c1.7,0,3.4,0.4,4.8,1.4l1-1.8c-1.4-0.9-3.6-1.5-5.8-1.5c-4.1,0-6.4,2-6.4,4.6
	c0,6.4,10.5,3.1,10.5,7.3c0,1.6-1.3,2.7-4.4,2.7c-2.3,0-4.5-0.8-5.8-1.8l-1,1.7C359.2,131.3,361.8,132.1,364.5,132.1L364.5,132.1z
	 M435.7,110.8c0.9,0,1.8,0.3,2.4,0.8l0.7-1.6c-0.8-0.7-2-1-3.2-1c-3.2,0-4.9,1.9-4.9,4.8v2h-2.9v1.8h2.9V132h2.2v-14.4h4.9v-1.8h-5
	v-1.9C432.9,111.8,433.8,110.8,435.7,110.8L435.7,110.8z M470.7,132.1c4.8,0,8.3-3.5,8.3-8.3s-3.5-8.3-8.3-8.3s-8.3,3.4-8.3,8.3
	C462.4,128.7,465.9,132.1,470.7,132.1L470.7,132.1z M470.7,130.2c-3.5,0-6-2.5-6-6.3s2.6-6.3,6-6.3s6,2.5,6,6.3
	S474.1,130.2,470.7,130.2L470.7,130.2z M509,118.9v-3.2h-2.1V132h2.2v-8.3c0-3.8,2.1-6,5.5-6c0.2,0,0.3,0,0.5,0v-2.1
	C512.1,115.6,510,116.7,509,118.9L509,118.9z M585.9,115.7l-6.1,13.8l-6.1-13.8h-2.3l7.3,16.2l-0.7,1.6c-0.9,2-1.9,2.7-3.4,2.7
	c-1.2,0-2.2-0.4-3-1.2l-1,1.6c1,1,2.4,1.5,4,1.5c2.3,0,4-1,5.4-4.2l8.1-18.2L585.9,115.7L585.9,115.7z M620.9,132.1
	c4.8,0,8.3-3.5,8.3-8.3s-3.5-8.3-8.3-8.3s-8.3,3.4-8.3,8.3C612.6,128.7,616.1,132.1,620.9,132.1L620.9,132.1z M620.9,130.2
	c-3.5,0-6.1-2.5-6.1-6.3s2.6-6.3,6.1-6.3s6,2.5,6,6.3S624.3,130.2,620.9,130.2L620.9,130.2z M669.5,115.7v8.5c0,3.7-2.1,5.9-5.5,5.9
	c-3.1,0-4.9-1.8-4.9-5.2v-9.2h-2.2v9.4c0,4.7,2.7,7,6.9,7c2.6,0,4.7-1.1,5.8-3.1v3h2.1v-16.3C671.7,115.7,669.5,115.7,669.5,115.7z"
	/>
<polygon class="st1" points="68.7,30.2 14,84.9 27,84.9 68.7,43.2 110.5,84.9 123.5,84.9 "/>
<polygon class="st2" points="68.7,30.2 14,84.9 27,84.9 68.7,43.2 110.5,84.9 123.5,84.9 "/>
<path class="st3" d="M109.8,95.6H98.5c0,0.2,0,0.5,0,0.7c0,16.6-13.5,30-30,30s-30-13.5-30-30c0-0.2,0-0.5,0-0.7H27.2
	c0,0.2,0,0.5,0,0.7c0,22.8,18.5,41.3,41.3,41.3s41.3-18.5,41.3-41.3C109.9,96.1,109.9,95.9,109.8,95.6z"/>
<path class="st4" d="M109.8,95.6H98.5c0,0.2,0,0.5,0,0.7c0,16.6-13.5,30-30,30s-30-13.5-30-30c0-0.2,0-0.5,0-0.7H27.2
	c0,0.2,0,0.5,0,0.7c0,22.8,18.5,41.3,41.3,41.3s41.3-18.5,41.3-41.3C109.9,96.1,109.9,95.9,109.8,95.6z"/>
<path class="st0" d="M695.7,89.9c0,4.7-3.8,8.6-8.5,8.6s-8.5-3.8-8.5-8.6s3.8-8.6,8.5-8.6S695.7,85.1,695.7,89.9z"/>
<g class="st5">
	<path d="M702,16.3h16.4v4.3h-5.5v13.1h-5.4V20.6H702V16.3z"/>
</g>
<g class="st5">
	<path d="M720.8,16.3h7.1l2.7,10.6l2.7-10.6h7.1v17.4h-4.4V20.5l-3.4,13.3h-4l-3.4-13.3v13.3h-4.4V16.3z"/>
</g>
</svg>
