<?xml version="1.0" encoding="UTF-8"?>
<svg version="1.1" xmlns="http://www.w3.org/2000/svg" width="1373" height="332">
<path d="M0 0 C202.29 0 404.58 0 613 0 C613 69.96 613 139.92 613 212 C410.71 212 208.42 212 0 212 C0 142.04 0 72.08 0 0 Z " fill="#FDFDFD" transform="translate(37,33)"/>
<path d="M0 0 C154.11 0 308.22 0 467 0 C467 19.14 467 38.28 467 58 C312.89 58 158.78 58 0 58 C0 38.86 0 19.72 0 0 Z " fill="#382D7C" transform="translate(110,161)"/>
<path d="M0 0 C74.17647059 0 74.17647059 0 89 13 C96.87301424 22.28877557 99.69137391 32.78587136 98.78515625 44.86328125 C97.09689931 56.23087798 91.95999265 64.81215779 83 72 C77.7866341 75.28975951 73.11660545 77.15022558 67 78 C73.1046045 88.35468776 79.30745254 98.64102429 85.8125 108.75 C86.32643311 109.55791992 86.84036621 110.36583984 87.36987305 111.19824219 C94.39067743 122.08804796 94.39067743 122.08804796 105 129 C104.67 129.66 104.34 130.32 104 131 C100.27124612 131.14560195 96.54322566 131.23417043 92.8125 131.3125 C91.22985352 131.3753418 91.22985352 131.3753418 89.61523438 131.43945312 C81.85635174 131.56183298 81.85635174 131.56183298 78.171875 129.14453125 C75.0720822 124.65652188 72.20981532 120.07171915 69.4375 115.375 C68.20317743 113.31429223 66.96747587 111.2544099 65.73046875 109.1953125 C65.11091309 108.16180664 64.49135742 107.12830078 63.85302734 106.06347656 C61.04494971 101.42108419 58.15596223 96.8315649 55.25 92.25 C54.74911865 91.45899902 54.2482373 90.66799805 53.73217773 89.85302734 C51.84721774 86.88284695 49.95146597 83.92719895 48 81 C44.89786275 80.48779459 44.89786275 80.48779459 41.2421875 80.48828125 C40.02901855 80.45516846 38.81584961 80.42205566 37.56591797 80.38793945 C36.01791504 80.36304443 34.46991211 80.33814941 32.875 80.3125 C27.96625 80.209375 23.0575 80.10625 18 80 C18 96.5 18 113 18 130 C12.06 130 6.12 130 0 130 C0 87.1 0 44.2 0 0 Z M17 7 C17 28.78 17 50.56 17 73 C46.85096107 74.79956631 46.85096107 74.79956631 72.875 62.6875 C80.398794 54.5603829 81.47293737 45.72327559 81.27734375 35.05859375 C80.92362962 27.45461992 77.94556057 21.07744364 72.765625 15.53125 C64.92515418 8.73154964 56.09577922 6.67309267 46.00390625 6.8046875 C44.89396301 6.80770874 44.89396301 6.80770874 43.76159668 6.81079102 C41.02850033 6.82116223 38.29549316 6.84908398 35.5625 6.875 C29.436875 6.91625 23.31125 6.9575 17 7 Z " fill="#26613C" transform="translate(1258,45)"/>
<path d="M0 0 C18.15818834 -2.34275951 18.15818834 -2.34275951 23.91210938 1.16601562 C27.29721264 4.4738922 29.48523972 8.56441753 31.71191406 12.70263672 C34.00003381 16.78360844 36.75618149 20.54616972 39.4375 24.375 C40.52688702 25.97249603 41.61412331 27.57146082 42.69921875 29.171875 C46.00386391 34.0219712 49.36539698 38.83044383 52.75 43.625 C53.26361084 44.35380371 53.77722168 45.08260742 54.30639648 45.83349609 C56.48300791 49.05551831 56.48300791 49.05551831 59 52 C59.55945312 51.20980469 60.11890625 50.41960937 60.6953125 49.60546875 C66.24317734 41.79290435 71.88802058 34.05704633 77.58520508 26.3527832 C82.44103614 19.77876557 87.23525647 13.16187561 92.0012207 6.52246094 C92.76825317 5.45560059 92.76825317 5.45560059 93.55078125 4.3671875 C94.00106689 3.73925293 94.45135254 3.11131836 94.9152832 2.46435547 C96 1 96 1 97 0 C99.67058851 -0.14115161 102.32432238 -0.04247107 105 0 C103.34234922 3.65917593 101.09583273 6.82326031 98.75 10.0625 C98.31526367 10.66682861 97.88052734 11.27115723 97.43261719 11.89379883 C93.73721159 17.01521895 89.996169 22.10315244 86.25 27.1875 C85.66742432 27.97850098 85.08484863 28.76950195 84.48461914 29.58447266 C81.34939975 33.83505328 78.19839257 38.07294796 75.02734375 42.296875 C74.38442383 43.15772705 73.74150391 44.0185791 73.07910156 44.90551758 C71.84281678 46.56033294 70.60148181 48.21139056 69.35449219 49.8581543 C68.79793945 50.60492432 68.24138672 51.35169434 67.66796875 52.12109375 C67.17578857 52.7752124 66.6836084 53.42933105 66.17651367 54.10327148 C64.90693236 56.15003995 64.24760638 57.60133172 64 60 C64.74313861 61.80420536 64.74313861 61.80420536 66.0703125 63.4765625 C66.78670898 64.46849609 66.78670898 64.46849609 67.51757812 65.48046875 C68.04802734 66.18816406 68.57847656 66.89585938 69.125 67.625 C69.66833984 68.37136719 70.21167969 69.11773437 70.77148438 69.88671875 C71.92353394 71.46765275 73.08090848 73.04471801 74.24316406 74.61816406 C76.47960361 77.65022412 78.68356684 80.70501094 80.88647461 83.76147461 C81.96906724 85.26341012 83.05323523 86.76421127 84.13891602 88.26391602 C88.80831513 94.71451938 93.41068625 101.21058963 97.98828125 107.7265625 C100.11591142 110.75355836 102.26184362 113.76667504 104.41796875 116.7734375 C104.97540771 117.55388428 105.53284668 118.33433105 106.10717773 119.13842773 C107.18242011 120.64319181 108.26122591 122.14541752 109.34399414 123.64477539 C113 128.77522488 113 128.77522488 113 131 C105.69621568 132.50983926 98.17030307 133.49652785 91 131 C84.63697902 125.89254526 80.85354828 118.24186374 76.89111328 111.24658203 C73.87727431 106.07255278 70.42806828 101.21730089 67 96.3125 C65.7663457 94.50607763 64.53574565 92.69756466 63.30859375 90.88671875 C62.74253418 90.05188965 62.17647461 89.21706055 61.59326172 88.35693359 C58.369749 83.58834766 55.17172919 78.80319373 52 74 C43.85692074 84.09585607 36.05830065 94.46094486 28.5 105 C27.4235127 106.48722215 26.34668852 107.97420052 25.26953125 109.4609375 C23.00442773 112.58968416 20.78301514 115.74538326 18.57421875 118.9140625 C17.44647714 120.48521161 16.31760821 122.0555523 15.1875 123.625 C14.68476562 124.36621094 14.18203125 125.10742188 13.6640625 125.87109375 C10.07200738 130.77617163 10.07200738 130.77617163 6.83447266 131.45214844 C4.61328125 131.4609375 4.61328125 131.4609375 1 131 C2.44020131 126.77181539 4.53321658 123.79229021 7.3125 120.3125 C11.42407053 115.09047214 15.37714526 109.77633515 19.25 104.375 C24.48564343 97.07763621 29.78869755 89.83403109 35.15527344 82.63232422 C38.93966122 77.52798311 42.52278818 72.31822716 46 67 C39.562778 57.48377126 33.09231778 48.01168252 26.24365234 38.78588867 C21.71265356 32.66143687 17.36162761 26.41456531 13.01147461 20.16088867 C9.18543321 14.66712669 5.28846828 9.24453743 1.2578125 3.8984375 C0 2 0 2 0 0 Z " fill="#26613C" transform="translate(1068,45)"/>
<path d="M0 0 C29.04 0 58.08 0 88 0 C88 2.31 88 4.62 88 7 C64.57 7 41.14 7 17 7 C17 24.82 17 42.64 17 61 C36.14 61 55.28 61 75 61 C75 63.31 75 65.62 75 68 C55.86 68 36.72 68 17 68 C17 86.48 17 104.96 17 124 C41.09 124 65.18 124 90 124 C90 126.31 90 128.62 90 131 C59.97907285 131.17889258 30.02806189 130.57746273 0 130 C0 87.1 0 44.2 0 0 Z " fill="#26613C" transform="translate(816,45)"/>
<path d="M0 0 C5.61 0 11.22 0 17 0 C17 40.92 17 81.84 17 124 C46.37 124 75.74 124 106 124 C106 120.37 106 116.74 106 113 C108.31 113 110.62 113 113 113 C113 118.94 113 124.88 113 131 C75.71 131 38.42 131 0 131 C0 87.77 0 44.54 0 0 Z " fill="#26613C" transform="translate(936,45)"/>
<path d="M0 0 C5.28 0 10.56 0 16 0 C16 42.9 16 85.8 16 130 C10.72 130 5.44 130 0 130 C0 87.1 0 44.2 0 0 Z " fill="#26613C" transform="translate(1207,45)"/>
<path d="M0 0 C6.05795284 2.83738454 10.10691013 6.26712998 13.0703125 12.3515625 C15.20161138 18.84739082 15.24284435 27.29576959 12.40625 33.58984375 C8.9520766 39.28984014 3.24736374 43.95748436 -3.03125 46.08984375 C-11.99229324 47.00242524 -18.70101913 45.89175784 -26.21875 41.02734375 C-30.85757034 36.75708722 -33.56265959 31.25588501 -34.48046875 25.0546875 C-34.71684331 18.60736755 -34.04275449 13.27137038 -30.03125 8.08984375 C-21.47115978 -0.76844633 -12.12546913 -3.64076586 0 0 Z " fill="#0A9C5C" transform="translate(303.03125,76.91015625)"/>
<path d="M0 0 C5.28 0 10.56 0 16 0 C16 36.63 16 73.26 16 111 C10.72 111 5.44 111 0 111 C0 74.37 0 37.74 0 0 Z " fill="#26613C" transform="translate(995,19)"/>
<path d="M0 0 C4.62 0 9.24 0 14 0 C18 8 22 16 26 24 C26.79664063 22.28103516 26.79664063 22.28103516 27.609375 20.52734375 C28.32275919 18.9973224 29.03630973 17.4673786 29.75 15.9375 C30.09804688 15.18533203 30.44609375 14.43316406 30.8046875 13.65820312 C32.99896148 8.96489489 35.36829703 4.46322598 38 0 C42.62 0 47.24 0 52 0 C52 15.51 52 31.02 52 47 C48.37 47 44.74 47 41 47 C40.505 34.13 40.505 34.13 40 21 C36.75169006 27.86498421 36.75169006 27.86498421 33.50805664 34.73217773 C33.10449951 35.58239502 32.70094238 36.4326123 32.28515625 37.30859375 C31.66459351 38.62041626 31.66459351 38.62041626 31.03149414 39.95874023 C30 42 30 42 29 43 C27.00041636 43.04080783 24.99954746 43.04254356 23 43 C21.37431783 39.91702588 19.74957416 36.83355811 18.125 33.75 C17.66480469 32.87730469 17.20460938 32.00460938 16.73046875 31.10546875 C16.28574219 30.26113281 15.84101563 29.41679688 15.3828125 28.546875 C14.97434082 27.77182617 14.56586914 26.99677734 14.14501953 26.19824219 C13.07472074 24.14345108 12.03611833 22.07223667 11 20 C10.67 28.91 10.34 37.82 10 47 C6.7 47 3.4 47 0 47 C0 31.49 0 15.98 0 0 Z " fill="#109F60" transform="translate(326,76)"/>
<path d="M0 0 C3.75082583 1.52089151 5.74080371 3.73969172 8.3515625 6.7890625 C17.68317433 18.25043226 17.68317433 18.25043226 30.38671875 24.38671875 C34.72599917 24.53391279 38.77815381 23.9742722 43 23 C43 23.66 43 24.32 43 25 C30.625 25.495 30.625 25.495 18 26 C18 28.31 18 30.62 18 33 C16.4332614 38.95360669 13.79470629 41.71204425 8.53125 44.890625 C4.24982232 46.76705318 0.55298262 46.97511544 -4 46 C-9.49488199 43.75854212 -13.48493179 40.44931445 -16 35 C-16 32.03 -16 29.06 -16 26 C-24.25 25.67 -32.5 25.34 -41 25 C-40.67 24.34 -40.34 23.68 -40 23 C-39.03964844 23.26683594 -38.07929687 23.53367187 -37.08984375 23.80859375 C-32.06379924 24.72593256 -27.82081281 24.9042552 -23 23 C-14.28775807 16.57833316 -7.08565178 8.12365327 0 0 Z " fill="#FBFBFA" transform="translate(153,93)"/>
<path d="M0 0 C2.60335478 0.99026004 3.96598489 2.29113797 5.9337616 4.26083374 C7.03961861 5.35734756 7.03961861 5.35734756 8.16781616 6.47601318 C9.34613762 7.66814926 9.34613762 7.66814926 10.54826355 8.8843689 C11.36148575 9.69709259 12.17470795 10.50981628 13.01257324 11.34716797 C14.72997862 13.0669139 16.44369146 14.79035408 18.15397644 16.5171814 C20.77795338 19.1647627 23.41500273 21.7987664 26.05412292 24.4312439 C27.7196306 26.10232779 29.38437055 27.77417727 31.04826355 29.4468689 C31.83988388 30.23757782 32.63150421 31.02828674 33.44711304 31.84295654 C34.17489456 32.58027008 34.90267609 33.31758362 35.6525116 34.07723999 C36.61703499 35.04867447 36.61703499 35.04867447 37.6010437 36.03973389 C39.0990448 37.7984314 39.0990448 37.7984314 40.0990448 40.7984314 C34.23251227 42.42846124 28.87592789 43.08034113 23.0990448 40.7984314 C14.38680287 34.37676455 7.18469658 25.92208466 0.0990448 17.7984314 C-3.65190111 19.32130801 -5.6632016 21.54809746 -8.28767395 24.5874939 C-23.13590775 41.08224218 -23.13590775 41.08224218 -30.0650177 42.18515015 C-34.15431733 42.33172003 -37.93811731 41.78005179 -41.9009552 40.7984314 C-41.9009552 40.1384314 -41.9009552 39.4784314 -41.9009552 38.7984314 C-41.2409552 38.7984314 -40.5809552 38.7984314 -39.9009552 38.7984314 C-39.9009552 38.1384314 -39.9009552 37.4784314 -39.9009552 36.7984314 C-38.40486145 35.3609314 -38.40486145 35.3609314 -36.4634552 33.7984314 C-33.74907282 31.65318096 -33.74907282 31.65318096 -31.9009552 28.7984314 C-31.2409552 28.7984314 -30.5809552 28.7984314 -29.9009552 28.7984314 C-29.9009552 28.1384314 -29.9009552 27.4784314 -29.9009552 26.7984314 C-28.2915802 25.24765015 -28.2915802 25.24765015 -26.1509552 23.4859314 C-23.80034875 21.49284725 -21.83177162 19.71195192 -19.9009552 17.2984314 C-17.47299564 14.26348194 -14.68356008 11.93033962 -11.7056427 9.4468689 C-9.68323264 7.73210809 -9.68323264 7.73210809 -7.9009552 4.7984314 C-7.2409552 4.7984314 -6.5809552 4.7984314 -5.9009552 4.7984314 C-5.9009552 4.1384314 -5.9009552 3.4784314 -5.9009552 2.7984314 C-2.70178293 -0.28648472 -2.70178293 -0.28648472 0 0 Z " fill="#171F2E" transform="translate(154.9009552001953,76.20156860351563)"/>
<path d="M0 0 C10.89 0 21.78 0 33 0 C33 3.3 33 6.6 33 10 C25.41 10 17.82 10 10 10 C10 12.97 10 15.94 10 19 C16.93 19 23.86 19 31 19 C31 21.97 31 24.94 31 28 C24.07 28 17.14 28 10 28 C10 30.97 10 33.94 10 37 C17.92 37 25.84 37 34 37 C34 40.3 34 43.6 34 47 C22.78 47 11.56 47 0 47 C0 31.49 0 15.98 0 0 Z " fill="#139F61" transform="translate(389,76)"/>
<path d="M0 0 C3.63 0 7.26 0 11 0 C11 6.6 11 13.2 11 20 C16.94 20 22.88 20 29 20 C29 13.73 29 7.46 29 1 C32.3 1 35.6 1 39 1 C39 15.85 39 30.7 39 46 C35.7 46 32.4 46 29 46 C29 40.39 29 34.78 29 29 C23.06 29 17.12 29 11 29 C11 34.94 11 40.88 11 47 C7.37 47 3.74 47 0 47 C0 31.49 0 15.98 0 0 Z " fill="#0F9E60" transform="translate(221,76)"/>
<path d="M0 0 C5.115 -0.061875 10.23 -0.12375 15.5 -0.1875 C17.89668945 -0.22846802 17.89668945 -0.22846802 20.34179688 -0.27026367 C36.14506653 -0.36281431 36.14506653 -0.36281431 42.9375 5.5625 C46.97240923 10.33102909 46.4379936 14.96444814 46 21 C44.92257109 24.54012358 43.74446014 25.56962772 40.57421875 27.40234375 C38.07704959 28.67741881 35.56517415 29.86901327 33 31 C37.82087864 36.94684349 42.663144 42.84793778 47.78515625 48.5390625 C49 50 49 50 49 51 C45.45810792 51.73204033 42.52642437 51.88160609 39 51 C34.69849582 47.14945997 31.51714897 42.36332297 28.41015625 37.5234375 C25.61859513 33.61667257 24.0812558 32.20392597 19.23046875 31.2890625 C15.45762409 30.90947303 11.83311059 31 8 31 C8 37.6 8 44.2 8 51 C5.36 51 2.72 51 0 51 C0 34.17 0 17.34 0 0 Z M8 6 C8 12.27 8 18.54 8 25 C11.70877584 25.08114826 15.41576511 25.14057594 19.125 25.1875 C20.69507813 25.22520508 20.69507813 25.22520508 22.296875 25.26367188 C27.91167825 25.31697697 32.23349467 25.35218162 37 22 C39.34168764 18.48746854 39.49623677 17.13530644 39 13 C36.53785893 8.98762196 34.41533963 7.43232735 30 6 C27.39509291 5.72834469 27.39509291 5.72834469 24.69921875 5.8046875 C23.72275391 5.81113281 22.74628906 5.81757813 21.74023438 5.82421875 C20.22913086 5.84935547 20.22913086 5.84935547 18.6875 5.875 C17.14739258 5.88853516 17.14739258 5.88853516 15.57617188 5.90234375 C13.05068073 5.92583669 10.52531008 5.96170549 8 6 Z " fill="#26613C" transform="translate(816,203)"/>
<path d="M0 0 C4.90875 -0.0825 9.8175 -0.165 14.875 -0.25 C16.40237793 -0.28641602 17.92975586 -0.32283203 19.50341797 -0.36035156 C28.4916761 -0.43313098 36.45466088 0.11983246 43.5625 6.1875 C46.28622192 11.51652115 46.56239981 16.09408952 44.875 21.8125 C41.58748202 27.40128056 38.02261788 29.09768345 32 31 C32.37809814 31.42821045 32.75619629 31.8564209 33.14575195 32.29760742 C34.87207792 34.25735659 36.59231565 36.22235847 38.3125 38.1875 C38.90740234 38.86103516 39.50230469 39.53457031 40.11523438 40.22851562 C43.11449147 43.663419 45.8269964 46.95993915 48 51 C44.36042034 52.01457309 41.63377371 52.09957049 38 51 C32.44625786 46.47327295 27.98301737 40.0865375 24.1328125 34.09375 C21.13207136 31.14796749 18.23872578 31.22322122 14.25 31.1875 C11.8575 31.125625 9.465 31.06375 7 31 C7 37.6 7 44.2 7 51 C4.69 51 2.38 51 0 51 C0 34.17 0 17.34 0 0 Z M7 6 C7 12.27 7 18.54 7 25 C10.72960366 25.08101311 14.45744359 25.14051069 18.1875 25.1875 C19.77014648 25.22520508 19.77014648 25.22520508 21.38476562 25.26367188 C22.40634766 25.27333984 23.42792969 25.28300781 24.48046875 25.29296875 C25.41785889 25.3086792 26.35524902 25.32438965 27.32104492 25.34057617 C31.34183178 24.82941262 33.95529579 22.97505727 36.875 20.25 C38.59594712 16.80810577 38.03958743 14.638556 37 11 C33.85425244 7.85425244 31.16490751 6.10413593 26.63989258 5.88647461 C25.73392334 5.89171143 24.8279541 5.89694824 23.89453125 5.90234375 C22.42016602 5.90717773 22.42016602 5.90717773 20.91601562 5.91210938 C19.37977539 5.92467773 19.37977539 5.92467773 17.8125 5.9375 C16.77673828 5.94201172 15.74097656 5.94652344 14.67382812 5.95117188 C12.1158608 5.96295974 9.55792314 5.98089518 7 6 Z " fill="#26613C" transform="translate(1149,203)"/>
<path d="M0 0 C1.31097656 0.69609375 1.31097656 0.69609375 2.6484375 1.40625 C3.30070312 1.7671875 3.95296875 2.128125 4.625 2.5 C2.34040242 4.78459758 0.49962656 5.47129748 -2.5 6.625 C-3.41007812 6.97820312 -4.32015625 7.33140625 -5.2578125 7.6953125 C-5.95648438 7.96085938 -6.65515625 8.22640625 -7.375 8.5 C-3.91 11.965 -3.91 11.965 -0.375 15.5 C2.79718843 11.87464179 4.05402597 7.98849722 5.625 3.5 C9.32001178 5.34750589 10.28180005 9.61554441 11.76953125 13.2890625 C13.07545104 18.19073406 11.87686991 21.12667735 9.625 25.5 C9.233125 26.593125 8.84125 27.68625 8.4375 28.8125 C5.86713206 32.62373523 2.77473852 33.77436616 -1.375 35.5 C-2.5815625 36.180625 -2.5815625 36.180625 -3.8125 36.875 C-7.95238632 37.88472837 -11.37721523 36.74805635 -15.375 35.5 C-16.09558594 35.31050781 -16.81617188 35.12101562 -17.55859375 34.92578125 C-21.40703742 33.55081744 -22.99850584 32.17339692 -25.01953125 28.55859375 C-27.91503384 21.54717013 -28.83146109 17.20168265 -26.5703125 9.90234375 C-23.75412133 3.4168816 -20.69184035 0.92373215 -14.19140625 -1.7578125 C-8.66178624 -3.21499392 -5.00307862 -2.70436682 0 0 Z " fill="#ECB321" transform="translate(330.375,172.5)"/>
<path d="M0 0 C13.86 0 27.72 0 42 0 C42 1.98 42 3.96 42 6 C30.78 6 19.56 6 8 6 C8 11.28 8 16.56 8 22 C18.23 22 28.46 22 39 22 C39 23.98 39 25.96 39 28 C28.77 28 18.54 28 8 28 C8 33.61 8 39.22 8 45 C19.55 45 31.1 45 43 45 C43 46.98 43 48.96 43 51 C28.81 51 14.62 51 0 51 C0 34.17 0 17.34 0 0 Z " fill="#26613C" transform="translate(1066,203)"/>
<path d="M0 0 C13.86 0 27.72 0 42 0 C42 1.98 42 3.96 42 6 C30.78 6 19.56 6 8 6 C8 11.28 8 16.56 8 22 C18.23 22 28.46 22 39 22 C39 23.98 39 25.96 39 28 C28.77 28 18.54 28 8 28 C8 33.61 8 39.22 8 45 C19.55 45 31.1 45 43 45 C43 46.98 43 48.96 43 51 C28.81 51 14.62 51 0 51 C0 34.17 0 17.34 0 0 Z " fill="#26613C" transform="translate(903,203)"/>
<path d="M0 0 C13.86 0 27.72 0 42 0 C42 1.98 42 3.96 42 6 C30.78 6 19.56 6 8 6 C8 11.28 8 16.56 8 22 C17.9 22 27.8 22 38 22 C38 23.98 38 25.96 38 28 C28.1 28 18.2 28 8 28 C8 33.61 8 39.22 8 45 C19.22 45 30.44 45 42 45 C42 46.98 42 48.96 42 51 C28.14 51 14.28 51 0 51 C0 34.17 0 17.34 0 0 Z " fill="#26613C" transform="translate(1323,203)"/>
<path d="M0 0 C2.17578125 1.1015625 2.17578125 1.1015625 5.23828125 3.1015625 C5.23828125 7.36983123 4.86214612 8.04038682 2.23828125 11.1015625 C-0.42009636 10.64584062 -2.71884044 10.12025305 -5.19921875 9.0390625 C-8.23522128 7.92832987 -10.55180698 7.81623701 -13.76171875 8.1015625 C-14.42171875 8.7615625 -15.08171875 9.4215625 -15.76171875 10.1015625 C-15.76171875 11.4215625 -15.76171875 12.7415625 -15.76171875 14.1015625 C-15.06046875 14.34390625 -14.35921875 14.58625 -13.63671875 14.8359375 C4.10966016 21.10503875 4.10966016 21.10503875 7.23828125 27.1015625 C8.0773978 31.42963734 8.2140551 35.27699907 6.09765625 39.234375 C3.02206586 43.10314397 0.19968051 45.24285878 -4.76171875 46.1015625 C-13.87652652 47.0984946 -21.57822415 44.82539724 -28.76171875 39.1015625 C-27.39017371 36.14746549 -25.77308151 33.66147874 -23.76171875 31.1015625 C-21.06939416 32.10156878 -18.80871018 33.06854149 -16.44921875 34.7265625 C-12.63040266 36.68037538 -10.02885575 36.45132783 -5.76171875 36.1015625 C-5.10171875 35.4415625 -4.44171875 34.7815625 -3.76171875 34.1015625 C-3.77552014 32.01961549 -3.77552014 32.01961549 -4.76171875 30.1015625 C-6.50675191 29.13649807 -6.50675191 29.13649807 -8.69921875 28.6640625 C-12.34646994 27.59031175 -15.70834797 26.31531891 -19.13671875 24.6640625 C-19.94882812 24.27347656 -20.7609375 23.88289063 -21.59765625 23.48046875 C-24.06670377 21.90723089 -25.31024021 20.64393214 -26.76171875 18.1015625 C-27.54795016 13.76418587 -27.77487475 9.13993589 -25.77734375 5.12109375 C-19.66537983 -2.51886115 -8.83686106 -2.87479214 0 0 Z " fill="#099B5B" transform="translate(457.76171875,76.8984375)"/>
<path d="M0 0 C10.56 0 21.12 0 32 0 C32 3.3 32 6.6 32 10 C25.07 10 18.14 10 11 10 C11 12.97 11 15.94 11 19 C17.6 19 24.2 19 31 19 C31 22.3 31 25.6 31 29 C24.4 29 17.8 29 11 29 C11 34.94 11 40.88 11 47 C7.37 47 3.74 47 0 47 C0 31.49 0 15.98 0 0 Z " fill="#19A165" transform="translate(474,76)"/>
<path d="M0 0 C1.78515625 1.16796875 1.78515625 1.16796875 3.78515625 4.16796875 C2.46515625 5.48796875 1.14515625 6.80796875 -0.21484375 8.16796875 C-0.91609375 7.87921875 -1.61734375 7.59046875 -2.33984375 7.29296875 C-3.28859375 6.92171875 -4.23734375 6.55046875 -5.21484375 6.16796875 C-6.06046875 5.79671875 -6.90609375 5.42546875 -7.77734375 5.04296875 C-12.92287153 3.73319804 -17.94163075 3.53370817 -23.21484375 4.16796875 C-26.4232444 5.92145406 -26.4232444 5.92145406 -28.21484375 8.16796875 C-28.51595193 11.05701238 -28.51595193 11.05701238 -27.21484375 14.16796875 C-22.52648638 17.21747554 -16.81138014 18.28822321 -11.45019531 19.61328125 C-0.55833696 22.31347634 -0.55833696 22.31347634 3.78515625 27.16796875 C5.6668722 30.93140065 5.43290041 35.07984756 4.78515625 39.16796875 C2.76667167 42.88658631 0.12194575 45.35104183 -3.46484375 47.54296875 C-15.99553189 50.39085242 -26.07772743 48.49752293 -37.21484375 42.16796875 C-37.21484375 38.16796875 -37.21484375 38.16796875 -35.21484375 35.16796875 C-33.22206717 36.1532614 -31.25029281 37.14802411 -29.3125 38.23828125 C-22.78718015 41.61992493 -16.47554693 42.003873 -9.21484375 41.16796875 C-6.88725311 40.49336221 -6.88725311 40.49336221 -5.21484375 39.16796875 C-4.55875396 36.10621639 -4.21484375 33.29575491 -4.21484375 30.16796875 C-10.94736678 27.80567997 -17.73124579 25.99113711 -24.6640625 24.328125 C-28.98856286 22.91516944 -32.7359837 21.05015427 -35.58984375 17.41796875 C-36.84672056 12.89321224 -36.83425332 8.83263197 -35.21484375 4.48046875 C-26.39788355 -5.71414148 -11.69170211 -5.23419254 0 0 Z " fill="#26613C" transform="translate(1021.21484375,205.83203125)"/>
<path d="M0 0 C2.64 0 5.28 0 8 0 C13.28945182 10.44249943 18.4030144 20.96000269 23.40551758 31.54321289 C23.85822021 32.49703857 24.31092285 33.45086426 24.77734375 34.43359375 C25.18202881 35.29009521 25.58671387 36.14659668 26.00366211 37.02905273 C26.84606562 38.95008245 26.84606562 38.95008245 28 40 C30.38668115 35.10810403 32.77105323 30.21509198 35.15332031 25.32104492 C35.96356321 23.65732675 36.77442915 21.99391184 37.5859375 20.33081055 C38.75425693 17.93618524 39.92030956 15.54046761 41.0859375 13.14453125 C41.44746918 12.4047554 41.80900085 11.66497955 42.18148804 10.90278625 C43.9254733 7.31257 45.582694 3.73565948 47 0 C49.97 0 52.94 0 56 0 C53.41155422 6.74522943 50.52234802 13.24227148 47.26953125 19.69140625 C46.83364182 20.5627269 46.39775238 21.43404755 45.94865417 22.33177185 C45.03709028 24.15190468 44.12360364 25.97107576 43.20825195 27.78930664 C41.80146476 30.58442571 40.40126489 33.38277284 39.00195312 36.18164062 C38.11235916 37.95591974 37.2223987 39.73001516 36.33203125 41.50390625 C35.70238213 42.76153526 35.70238213 42.76153526 35.06001282 44.04457092 C34.67258408 44.81304855 34.28515533 45.58152618 33.88598633 46.37329102 C33.54497391 47.05150406 33.20396149 47.7297171 32.85261536 48.42848206 C32 50 32 50 31 51 C28.66702567 51.04092937 26.33294775 51.04241723 24 51 C10.57165954 24.33249164 10.57165954 24.33249164 4.125 10.875 C3.70299316 10.00012939 3.28098633 9.12525879 2.84619141 8.22387695 C2.46640137 7.42554443 2.08661133 6.62721191 1.6953125 5.8046875 C1.2005542 4.76803955 1.2005542 4.76803955 0.69580078 3.71044922 C0 2 0 2 0 0 Z " fill="#26613C" transform="translate(1229,203)"/>
<path d="M0 0 C2.64 0 5.28 0 8 0 C9.00736628 2.93502595 10.00460504 5.87339461 11 8.8125 C11.28617188 9.64587891 11.57234375 10.47925781 11.8671875 11.33789062 C12.13789062 12.14033203 12.40859375 12.94277344 12.6875 13.76953125 C12.93886719 14.50792236 13.19023438 15.24631348 13.44921875 16.00708008 C14 18 14 18 14 21 C14.66 21 15.32 21 16 21 C16.09796875 20.40574219 16.1959375 19.81148438 16.296875 19.19921875 C17.50641916 12.49459034 19.51825672 6.33687847 22 0 C23.98 0 25.96 0 28 0 C30.7527517 6.56747868 33.07443364 13.14381674 35 20 C37.05070859 16.28964817 38.27380033 12.33156039 39.5625 8.3125 C41.86570248 1.13429752 41.86570248 1.13429752 43 0 C45.33297433 -0.04092937 47.66705225 -0.04241723 50 0 C47.84297423 7.4632057 45.39016484 14.79753322 42.8125 22.125 C42.44447266 23.176875 42.07644531 24.22875 41.69726562 25.3125 C40.80014644 27.87569766 39.90102729 30.4381741 39 33 C36.69 33 34.38 33 32 33 C30.99422987 30.23113877 29.99519853 27.46015896 29 24.6875 C28.71382812 23.90181641 28.42765625 23.11613281 28.1328125 22.30664062 C27.86210938 21.54931641 27.59140625 20.79199219 27.3125 20.01171875 C27.06113281 19.31522217 26.80976562 18.61872559 26.55078125 17.90112305 C26 16 26 16 26 13 C25.34 13 24.68 13 24 13 C23.7525 14.258125 23.505 15.51625 23.25 16.8125 C22.02166198 22.40232809 20.05312625 27.66785174 18 33 C15.69 33 13.38 33 11 33 C7.37 22.11 3.74 11.22 0 0 Z " fill="#000000" transform="translate(1077,279)"/>
<path d="M0 0 C3.63 0 7.26 0 11 0 C11.061875 1.340625 11.12375 2.68125 11.1875 4.0625 C11.76234209 9.13228785 13.40520609 12.39543763 17 16 C21.92749885 19.55238289 27.12199192 19.95098744 33 19 C37.76228279 17.19306302 40.39754595 15.0494361 42.9375 10.625 C43.98008508 7.06794502 44.62400266 3.68477397 45 0 C48.63 0 52.26 0 56 0 C55.17889259 10.51017483 52.90246478 17.66664277 45 25 C37.82460783 30.29757677 29.66715119 30.92939526 21 30 C12.63580329 27.46467692 7.05753996 22.18965239 2.68359375 14.765625 C0.15698553 9.65958748 -0.41168957 5.66073152 0 0 Z " fill="#F59C0B" transform="translate(126,119)"/>
<path d="M0 0 C3.9844113 -1.0054122 7.05903747 -1.27828656 11 0 C14.79773071 3.89412652 20 11.51373946 20 17 C20.66 17 21.32 17 22 17 C22.26941406 16.30519531 22.53882813 15.61039063 22.81640625 14.89453125 C27.12371134 4.36082474 27.12371134 4.36082474 31 0 C34.85047943 -1.02989974 38.11438382 -0.75885452 42 0 C40.67437903 3.58519311 39.06898967 6.64491812 36.99609375 9.8515625 C29.15155006 22.45616082 24.93612122 32.05337513 26 47 C22.7 47 19.4 47 16 47 C16.10183594 45.84628906 16.20367188 44.69257812 16.30859375 43.50390625 C16.96922768 27.57915153 10.15600634 17.06492832 1.36108398 4.20458984 C0 2 0 2 0 0 Z " fill="#0D9D5E" transform="translate(508,76)"/>
<path d="M0 0 C0.66 0 1.32 0 2 0 C2 106.92 2 213.84 2 324 C1.34 324 0.68 324 0 324 C0 217.08 0 110.16 0 0 Z " fill="#000000" transform="translate(717,4)"/>
<path d="M0 0 C3.76367773 1.77919311 5.50626666 3.29231555 7.875 6.6875 C9.31631514 10.93137236 9.73119554 14.56514009 9 19 C6.50586109 23.64425866 4.05874933 27.31375022 -1 29 C-6.23503836 29.39509723 -9.59928724 28.93380851 -14 26 C-17.61773856 22.2870578 -18.34830688 19.09328405 -18.625 14.0625 C-18.46547273 8.7183364 -17.27310418 5.94503821 -13.5078125 2.20703125 C-9.52174832 -0.98388541 -4.87704607 -0.53190518 0 0 Z " fill="#FBFDFC" transform="translate(298,85)"/>
<path d="M0 0 C4.45333219 2.3751105 6.57306787 5.49767609 8.31640625 10.09375 C9.32485728 17.15290722 8.88122853 22.41642631 4.62890625 28.28125 C-1.20194204 32.92212925 -6.11958679 33.94597147 -13.37109375 33.28125 C-18.59239847 31.62783684 -21.82550624 29.45252942 -25.37109375 25.28125 C-27.34249234 19.36705422 -27.20890222 12.62711371 -25.12109375 6.78125 C-19.17623928 -1.71139925 -9.85858203 -2.98843343 0 0 Z M-16.37109375 7.28125 C-19.23259348 11.67569602 -19.93855766 15.07949752 -19.37109375 20.28125 C-17.92636005 23.81282127 -16.70510746 25.06341497 -13.49609375 27.15625 C-10.04328186 28.39926228 -8.76128586 28.58517004 -5.37109375 27.28125 C-2.46569651 25.65963293 -0.81107554 24.32844647 0.4921875 21.2265625 C1.59196262 17.21879305 1.83812941 14.90891947 0.50390625 10.90625 C-1.3773655 8.27246955 -2.4835374 6.72502818 -5.37109375 5.28125 C-9.48536592 4.91390427 -13.02753054 4.65416462 -16.37109375 7.28125 Z " fill="#000000" transform="translate(1055.37109375,279.71875)"/>
<path d="M0 0 C1.65 0 3.3 0 5 0 C15 19.7 15 19.7 15 23 C15.66 23 16.32 23 17 23 C17.5259375 21.205625 17.5259375 21.205625 18.0625 19.375 C20.30103034 12.5833424 23.71359345 6.32970905 27 0 C28.65 0 30.3 0 32 0 C32 10.23 32 20.46 32 31 C30.35 31 28.7 31 27 31 C26.67 25.39 26.34 19.78 26 14 C25.32904297 15.71509766 25.32904297 15.71509766 24.64453125 17.46484375 C24.03487844 18.95614831 23.42414487 20.44701136 22.8125 21.9375 C22.52052734 22.69224609 22.22855469 23.44699219 21.92773438 24.22460938 C21.06910952 26.28346253 20.24905772 28.1506642 19 30 C16.26171875 31.00390625 16.26171875 31.00390625 14 31 C13.03912864 29.10545176 12.08141031 27.20930419 11.125 25.3125 C10.59132812 24.25675781 10.05765625 23.20101563 9.5078125 22.11328125 C8.22353053 19.46153843 7.09425586 16.73563964 6 14 C5.67 19.61 5.34 25.22 5 31 C3.35 31 1.7 31 0 31 C0 20.77 0 10.54 0 0 Z " fill="#000000" transform="translate(129,272)"/>
<path d="M0 0 C2.31 0 4.62 0 7 0 C8.83734895 4.05489162 10.67030849 8.11172981 12.49926758 12.17041016 C13.12176875 13.55018248 13.74545561 14.92942051 14.37036133 16.30810547 C15.26958205 18.29254325 16.16448863 20.27887806 17.05859375 22.265625 C17.86768188 24.05661621 17.86768188 24.05661621 18.69311523 25.88378906 C19.70249991 28.29062374 20.49033165 30.4544132 21 33 C18.69 33 16.38 33 14 33 C13.66355469 32.02804687 13.32710937 31.05609375 12.98046875 30.0546875 C11.25975855 26.62091276 11.25975855 26.62091276 7.42578125 26.1953125 C6.05551014 26.14235516 4.68378449 26.11987849 3.3125 26.125 C2.2596582 26.0940625 2.2596582 26.0940625 1.18554688 26.0625 C-0.54245468 26.01547955 -2.27136406 26.00425249 -4 26 C-4.309375 26.969375 -4.61875 27.93875 -4.9375 28.9375 C-6 32 -6 32 -7 33 C-9.33297433 33.04092937 -11.66705225 33.04241723 -14 33 C-9.91009347 21.73734282 -4.98896742 10.88635422 0 0 Z M3 9 C2.32880451 10.4562545 1.66318193 11.91507867 1 13.375 C0.62875 14.18710937 0.2575 14.99921875 -0.125 15.8359375 C-1.12495013 17.91998433 -1.12495013 17.91998433 -1 20 C1.97 20 4.94 20 8 20 C7.54917531 18.53932801 7.08906463 17.08151968 6.625 15.625 C6.36976562 14.81289063 6.11453125 14.00078125 5.8515625 13.1640625 C5.10145717 10.83540815 5.10145717 10.83540815 3 9 Z " fill="#000000" transform="translate(1150,279)"/>
<path d="M0 0 C2.84625 -0.061875 5.6925 -0.12375 8.625 -0.1875 C9.51010254 -0.21481201 10.39520508 -0.24212402 11.30712891 -0.27026367 C17.17462529 -0.33167231 21.43492257 0.60592773 25.875 4.75 C27.50340357 8.00680714 27.37833086 10.40585687 27 14 C25.48934941 17.16517266 23.75050328 19.79959738 21 22 C17.87496605 23.01408386 15.02093387 23.1055386 11.75 23.0625 C9.39875 23.0315625 9.39875 23.0315625 7 23 C7 26.3 7 29.6 7 33 C4.69 33 2.38 33 0 33 C0 22.11 0 11.22 0 0 Z M7 6 C7 9.63 7 13.26 7 17 C13.37870398 17.48180737 13.37870398 17.48180737 19 15 C20.16378519 12.50617459 20.14393398 11.41980744 19.25 8.8125 C18.04890402 6.68217062 18.04890402 6.68217062 15 6 C13.60560336 5.93334624 12.20830125 5.91461801 10.8125 5.9375 C9.554375 5.958125 8.29625 5.97875 7 6 Z " fill="#000000" transform="translate(987,279)"/>
<path d="M0 0 C3.98126656 1.99063328 6.70093269 4.16822114 9 8 C9 8.66 9 9.32 9 10 C6.3125 10.3125 6.3125 10.3125 3 10 C2.195625 9.175 1.39125 8.35 0.5625 7.5 C-1.8359706 4.65498377 -1.8359706 4.65498377 -5.5625 4.5625 C-9.64950083 4.97250049 -9.64950083 4.97250049 -13 7 C-15.59089351 11.23179273 -16.34124897 13.84736177 -15.4375 18.75 C-14.68738812 21.38662079 -14.08435865 22.89292941 -12.375 25.0625 C-8.89065744 26.43789838 -5.64906641 26.66609942 -2 26 C1.44312714 23.8755173 2.71617547 22.85147359 4 19 C0.04 18.67 -3.92 18.34 -8 18 C-8 16.68 -8 15.36 -8 14 C-2.06 14 3.88 14 10 14 C9.8055516 20.31957314 9.15116062 24.03829922 4.6640625 28.62109375 C0.83743182 31.79198725 -2.70289923 32.1803431 -7.5 31.875 C-11.8210525 31.24939307 -14.64267947 29.87770331 -18 27 C-21.50697725 22.15261558 -21.67150224 18.09741009 -21.55859375 12.24609375 C-20.68337377 7.16002518 -18.04474276 4.08335851 -14 1 C-9.37164486 -0.54278505 -4.8335155 -0.50478774 0 0 Z " fill="#000000" transform="translate(354,272)"/>
<path d="M0 0 C1.65 0 3.3 0 5 0 C6.8527832 1.92773438 6.8527832 1.92773438 8.55078125 4.59375 C9.16630859 5.54121094 9.78183594 6.48867188 10.41601562 7.46484375 C11.04185547 8.46644531 11.66769531 9.46804688 12.3125 10.5 C12.95767578 11.50160156 13.60285156 12.50320313 14.26757812 13.53515625 C15.86074651 16.01341818 17.43243175 18.50546649 19 21 C19.33 14.07 19.66 7.14 20 0 C21.65 0 23.3 0 25 0 C25 10.23 25 20.46 25 31 C23.35 31 21.7 31 20 31 C17.97265625 28.91015625 17.97265625 28.91015625 16.0625 26.0625 C15.38316406 25.06734375 14.70382812 24.0721875 14.00390625 23.046875 C13.34261719 22.04140625 12.68132812 21.0359375 12 20 C11.39027344 19.09765625 10.78054688 18.1953125 10.15234375 17.265625 C8.75260334 15.1875234 7.37393564 13.09525185 6 11 C5.67 17.6 5.34 24.2 5 31 C3.35 31 1.7 31 0 31 C0 20.77 0 10.54 0 0 Z " fill="#000000" transform="translate(483,272)"/>
<path d="M0 0 C1.65 0 3.3 0 5 0 C6.8527832 1.92773438 6.8527832 1.92773438 8.55078125 4.59375 C9.16630859 5.54121094 9.78183594 6.48867188 10.41601562 7.46484375 C11.04185547 8.46644531 11.66769531 9.46804688 12.3125 10.5 C12.95767578 11.50160156 13.60285156 12.50320313 14.26757812 13.53515625 C15.86074651 16.01341818 17.43243175 18.50546649 19 21 C19.33 14.07 19.66 7.14 20 0 C21.65 0 23.3 0 25 0 C25 10.23 25 20.46 25 31 C23.35 31 21.7 31 20 31 C17.97265625 28.91015625 17.97265625 28.91015625 16.0625 26.0625 C15.38316406 25.06734375 14.70382812 24.0721875 14.00390625 23.046875 C13.34261719 22.04140625 12.68132812 21.0359375 12 20 C11.39027344 19.09765625 10.78054688 18.1953125 10.15234375 17.265625 C8.75260334 15.1875234 7.37393564 13.09525185 6 11 C5.67 17.6 5.34 24.2 5 31 C3.35 31 1.7 31 0 31 C0 20.77 0 10.54 0 0 Z " fill="#000000" transform="translate(304,272)"/>
<path d="M0 0 C6 0 6 0 7.50732422 1.37695312 C7.8529541 2.00537109 8.19858398 2.63378906 8.5546875 3.28125 C8.94140625 3.95800781 9.328125 4.63476562 9.7265625 5.33203125 C10.10554688 6.04746094 10.48453125 6.76289063 10.875 7.5 C11.2771875 8.21542969 11.679375 8.93085938 12.09375 9.66796875 C13.08278598 11.43410442 14.04412455 13.21569916 15 15 C15.33 10.05 15.66 5.1 16 0 C17.98 0 19.96 0 22 0 C22 9.24 22 18.48 22 28 C20.35 28 18.7 28 17 28 C15.0859375 25.98828125 15.0859375 25.98828125 13.375 23.3125 C12.80523437 22.44238281 12.23546875 21.57226562 11.6484375 20.67578125 C10.07951198 18.12906565 8.53896058 15.56493431 7 13 C6.67 17.62 6.34 22.24 6 27 C4.02 27 2.04 27 0 27 C0 18.09 0 9.18 0 0 Z " fill="#E4E3E9" transform="translate(351,176)"/>
<path d="M0 0 C2.45311902 1.09079529 3.94569711 2.22330561 6 4 C5 7 5 7 2.9375 8.1875 C2.298125 8.455625 1.65875 8.72375 1 9 C0.649375 8.525625 0.29875 8.05125 -0.0625 7.5625 C-2.84163543 5.32126175 -5.5144717 5.32882342 -9 5 C-9 6.32 -9 7.64 -9 9 C-8.08476562 9.25394531 -7.16953125 9.50789062 -6.2265625 9.76953125 C-5.03804688 10.11371094 -3.84953125 10.45789063 -2.625 10.8125 C-0.84996094 11.31716797 -0.84996094 11.31716797 0.9609375 11.83203125 C4 13 4 13 6 16 C6.50835292 19.8973724 6.32962183 21.50556726 4.125 24.8125 C0.99945766 28.02997006 -0.86638469 28.19871764 -5.25 28.3125 C-10.50732742 28.29177466 -13.05737892 27.40983445 -17 24 C-16.67 22.68 -16.34 21.36 -16 20 C-14.125 19.375 -14.125 19.375 -12 19 C-11.34 19.66 -10.68 20.32 -10 21 C-7.78927023 21.24253813 -7.78927023 21.24253813 -5.375 21.125 C-4.55773437 21.10695312 -3.74046875 21.08890625 -2.8984375 21.0703125 C-1.95871094 21.03550781 -1.95871094 21.03550781 -1 21 C-0.67 20.01 -0.34 19.02 0 18 C-0.73605469 17.91363281 -1.47210938 17.82726562 -2.23046875 17.73828125 C-6.93886342 17.06032218 -10.25088092 16.52878994 -14.1875 13.75 C-16 11 -16 11 -16.625 8 C-14.78406948 -0.83646648 -7.6615645 -1.2657263 0 0 Z " fill="#EBEAEE" transform="translate(393,176)"/>
<path d="M0 0 C15 0 15 0 20 3 C21.74249931 6.48499862 21.72545362 10.20934144 21 14 C19.19832396 16.29017713 17.4908642 17.39131687 15 19 C18.465 24.94 18.465 24.94 22 31 C20.02 31 18.04 31 16 31 C14.13671875 29.1015625 14.13671875 29.1015625 12.6875 26.625 C12.19636719 25.81289063 11.70523438 25.00078125 11.19921875 24.1640625 C10.43837232 22.79106926 9.70199683 21.40399366 9 20 C7.68 19.67 6.36 19.34 5 19 C5 22.96 5 26.92 5 31 C3.35 31 1.7 31 0 31 C0 20.77 0 10.54 0 0 Z M5 4 C5 7.63 5 11.26 5 15 C10.21648103 15.44308651 10.21648103 15.44308651 15 13.875 C16.47271848 11.11365285 16.39191116 9.06997072 16 6 C12.91111478 3.94074319 12.29064073 3.7609626 8.8125 3.875 C7.554375 3.91625 6.29625 3.9575 5 4 Z " fill="#000000" transform="translate(536,272)"/>
<path d="M0 0 C15 0 15 0 20 3 C21.74249931 6.48499862 21.72545362 10.20934144 21 14 C19.19832396 16.29017713 17.4908642 17.39131687 15 19 C18.465 24.94 18.465 24.94 22 31 C20.02 31 18.04 31 16 31 C14.13671875 29.1015625 14.13671875 29.1015625 12.6875 26.625 C12.19636719 25.81289063 11.70523437 25.00078125 11.19921875 24.1640625 C10.43837232 22.79106926 9.70199683 21.40399366 9 20 C7.68 19.67 6.36 19.34 5 19 C5 22.96 5 26.92 5 31 C3.35 31 1.7 31 0 31 C0 20.77 0 10.54 0 0 Z M5 4 C5 7.63 5 11.26 5 15 C10.21648103 15.44308651 10.21648103 15.44308651 15 13.875 C16.47271848 11.11365285 16.39191116 9.06997072 16 6 C12.91111478 3.94074319 12.29064073 3.7609626 8.8125 3.875 C7.554375 3.91625 6.29625 3.9575 5 4 Z " fill="#000000" transform="translate(434,272)"/>
<path d="M0 0 C15 0 15 0 20 3 C21.74249931 6.48499862 21.72545362 10.20934144 21 14 C19.19832396 16.29017713 17.4908642 17.39131687 15 19 C18.465 24.94 18.465 24.94 22 31 C20.02 31 18.04 31 16 31 C14.13671875 29.1015625 14.13671875 29.1015625 12.6875 26.625 C12.19636719 25.81289063 11.70523438 25.00078125 11.19921875 24.1640625 C10.43837232 22.79106926 9.70199683 21.40399366 9 20 C7.68 19.67 6.36 19.34 5 19 C5 22.96 5 26.92 5 31 C3.35 31 1.7 31 0 31 C0 20.77 0 10.54 0 0 Z M5 4 C5 7.63 5 11.26 5 15 C10.21648103 15.44308651 10.21648103 15.44308651 15 13.875 C16.47271848 11.11365285 16.39191116 9.06997072 16 6 C12.91111478 3.94074319 12.29064073 3.7609626 8.8125 3.875 C7.554375 3.91625 6.29625 3.9575 5 4 Z " fill="#000000" transform="translate(196,272)"/>
<path d="M0 0 C1.98 0 3.96 0 6 0 C11.445 15.345 11.445 15.345 17 31 C15.02 31 13.04 31 11 31 C10.34 29.35 9.68 27.7 9 26 C4.71 25.67 0.42 25.34 -4 25 C-4.66 26.98 -5.32 28.96 -6 31 C-7.65 31 -9.3 31 -11 31 C-8.96150996 23.80613443 -6.51843632 16.84290835 -3.8125 9.875 C-3.44447266 8.91851562 -3.07644531 7.96203125 -2.69726562 6.9765625 C-1.80144555 4.64975711 -0.90232227 2.32428979 0 0 Z M2 8 C1.32942113 9.7902061 0.6636531 11.58221489 0 13.375 C-0.37125 14.37273437 -0.7425 15.37046875 -1.125 16.3984375 C-2.10626277 18.85848061 -2.10626277 18.85848061 -2 21 C1.3 21 4.6 21 8 21 C7.38416344 19.01796291 6.75706166 17.0394228 6.125 15.0625 C5.77695312 13.96035156 5.42890625 12.85820312 5.0703125 11.72265625 C4.29975705 8.87121196 4.29975705 8.87121196 2 8 Z " fill="#000000" transform="translate(413,272)"/>
<path d="M0 0 C1.98 0 3.96 0 6 0 C11.445 15.345 11.445 15.345 17 31 C15.02 31 13.04 31 11 31 C10.34 29.35 9.68 27.7 9 26 C4.71 25.67 0.42 25.34 -4 25 C-4.66 26.98 -5.32 28.96 -6 31 C-7.65 31 -9.3 31 -11 31 C-8.96150996 23.80613443 -6.51843632 16.84290835 -3.8125 9.875 C-3.44447266 8.91851562 -3.07644531 7.96203125 -2.69726562 6.9765625 C-1.80144555 4.64975711 -0.90232227 2.32428979 0 0 Z M2 8 C1.32942113 9.7902061 0.6636531 11.58221489 0 13.375 C-0.37125 14.37273437 -0.7425 15.37046875 -1.125 16.3984375 C-2.10626277 18.85848061 -2.10626277 18.85848061 -2 21 C1.3 21 4.6 21 8 21 C7.38416344 19.01796291 6.75706166 17.0394228 6.125 15.0625 C5.77695313 13.96035156 5.42890625 12.85820312 5.0703125 11.72265625 C4.29975705 8.87121196 4.29975705 8.87121196 2 8 Z " fill="#000000" transform="translate(176,272)"/>
<path d="M0 0 C1.65 0 3.3 0 5 0 C5.33 3.63 5.66 7.26 6 11 C10.65794591 6.59048732 10.65794591 6.59048732 14.5625 1.5625 C16 0 16 0 19.1875 -0.25 C20.115625 -0.1675 21.04375 -0.085 22 0 C20.38462556 3.89917968 17.72075127 6.71293772 14.875 9.75 C14.40707031 10.25660156 13.93914062 10.76320313 13.45703125 11.28515625 C12.30873459 12.52719141 11.15491328 13.76411494 10 15 C13.53668866 19.98763785 17.24384571 24.43733391 21.6796875 28.65234375 C23 30 23 30 23 31 C19.83984375 31.34375 19.83984375 31.34375 16 31 C13.81452925 29.16836737 12.29900761 27.67799259 10.5625 25.5 C10.11712891 24.97535156 9.67175781 24.45070313 9.21289062 23.91015625 C8.123748 22.62192304 7.05927415 21.31290317 6 20 C5.67 23.63 5.34 27.26 5 31 C3.35 31 1.7 31 0 31 C0 20.77 0 10.54 0 0 Z " fill="#000000" transform="translate(222,272)"/>
<path d="M0 0 C6.27 0 12.54 0 19 0 C19 1.98 19 3.96 19 6 C14.38 6 9.76 6 5 6 C5 7.65 5 9.3 5 11 C8.96 11 12.92 11 17 11 C17 12.65 17 14.3 17 16 C13.04 16 9.08 16 5 16 C5 17.98 5 19.96 5 22 C9.62 22 14.24 22 19 22 C19 23.65 19 25.3 19 27 C12.73 27 6.46 27 0 27 C0 18.09 0 9.18 0 0 Z " fill="#EDECF0" transform="translate(403,176)"/>
<path d="M0 0 C3.69501178 1.84750589 4.65680005 6.11554441 6.14453125 9.7890625 C7.45045104 14.69073406 6.25186991 17.62667735 4 22 C3.608125 23.093125 3.21625 24.18625 2.8125 25.3125 C0.24213206 29.12373523 -2.85026148 30.27436616 -7 32 C-8.2065625 32.680625 -8.2065625 32.680625 -9.4375 33.375 C-15.73945254 34.9120616 -22.35720009 31.6413106 -28 29 C-23.93584387 25.58610885 -19.51309365 23.39981035 -14.25 22.5625 C-9.23097465 23.23813803 -4.6868455 25.13193347 0 27 C-0.37253906 26.27554688 -0.74507813 25.55109375 -1.12890625 24.8046875 C-4.98096675 16.93262926 -4.98096675 16.93262926 -5.0625 12.9375 C-3.4852047 8.5767424 -1.81352137 4.26810145 0 0 Z " fill="#E06C27" transform="translate(336,176)"/>
<path d="M0 0 C15 0 15 0 20 3 C21.61082802 6.22165604 21.6006214 9.51639589 21 13 C18.90642825 15.73327423 17.2943996 17.43909351 14.125 18.8125 C11.07703324 19.08143824 8.05723104 19.0587929 5 19 C5 22.96 5 26.92 5 31 C3.35 31 1.7 31 0 31 C0 20.77 0 10.54 0 0 Z M5 4 C5 7.63 5 11.26 5 15 C6.44375 14.87625 7.8875 14.7525 9.375 14.625 C10.18710937 14.55539062 10.99921875 14.48578125 11.8359375 14.4140625 C14.20334191 14.17107412 14.20334191 14.17107412 16 12 C16.41666667 9 16.41666667 9 16 6 C12.91111478 3.94074319 12.29064073 3.7609626 8.8125 3.875 C7.554375 3.91625 6.29625 3.9575 5 4 Z " fill="#000000" transform="translate(379,272)"/>
<path d="M0 0 C5.61 0 11.22 0 17 0 C17 1.32 17 2.64 17 4 C13.04 4 9.08 4 5 4 C5 6.97 5 9.94 5 13 C8.63 13 12.26 13 16 13 C16 14.65 16 16.3 16 18 C12.37 18 8.74 18 5 18 C5 20.97 5 23.94 5 27 C8.96 27 12.92 27 17 27 C17 28.32 17 29.64 17 31 C11.39 31 5.78 31 0 31 C0 20.77 0 10.54 0 0 Z " fill="#000000" transform="translate(514,272)"/>
<path d="M0 0 C5.61 0 11.22 0 17 0 C17 1.32 17 2.64 17 4 C13.04 4 9.08 4 5 4 C5 6.97 5 9.94 5 13 C8.63 13 12.26 13 16 13 C16 14.65 16 16.3 16 18 C12.37 18 8.74 18 5 18 C5 20.97 5 23.94 5 27 C8.96 27 12.92 27 17 27 C17 28.32 17 29.64 17 31 C11.39 31 5.78 31 0 31 C0 20.77 0 10.54 0 0 Z " fill="#000000" transform="translate(248,272)"/>
<path d="M0 0 C1.98 0 3.96 0 6 0 C6 10.89 6 21.78 6 33 C4.02 33 2.04 33 0 33 C0 22.11 0 11.22 0 0 Z " fill="#000000" transform="translate(1188,279)"/>
<path d="M0 0 C3.26600019 2.46764459 4.78253791 3.95618195 5.625 8 C4.77618008 12.0743356 3.32274404 13.54405875 0 16 C-3.0625 16.5625 -3.0625 16.5625 -6 16 C-8.65359262 14.06359458 -9.7609947 12.62141377 -10.9375 9.5625 C-11.01997067 6.18120249 -10.0198841 4.66913256 -8 2 C-4.72942857 -0.18038095 -3.79480531 -0.63246755 0 0 Z " fill="#F0F0F0" transform="translate(571,68)"/>
<path d="M0 0 C7.26 0 14.52 0 22 0 C22 1.32 22 2.64 22 4 C19.03 4 16.06 4 13 4 C13 12.91 13 21.82 13 31 C11.68 31 10.36 31 9 31 C9 22.09 9 13.18 9 4 C6.03 4 3.06 4 0 4 C0 2.68 0 1.36 0 0 Z " fill="#000000" transform="translate(458,272)"/>
<path d="M0 0 C7.26 0 14.52 0 22 0 C22 1.32 22 2.64 22 4 C19.03 4 16.06 4 13 4 C13 12.91 13 21.82 13 31 C11.68 31 10.36 31 9 31 C9 22.09 9 13.18 9 4 C6.03 4 3.06 4 0 4 C0 2.68 0 1.36 0 0 Z " fill="#000000" transform="translate(268,272)"/>
<path d="M0 0 C0.66 0 1.32 0 2 0 C2 1.32 2 2.64 2 4 C4.90073181 4.67801034 4.90073181 4.67801034 8 5 C8.66 4.34 9.32 3.68 10 3 C12.88306818 2.63037587 14.39094287 2.5799606 16.8125 4.25 C18 6 18 6 18 10 C15.03 10 12.06 10 9 10 C9.99 11.485 9.99 11.485 11 13 C12.98 12.67 14.96 12.34 17 12 C16.34 13.32 15.68 14.64 15 16 C11.37471432 16.20140476 9.13498292 15.85776765 6 14 C6 14.66 6 15.32 6 16 C1.125 15.125 1.125 15.125 0 14 C-0.14115161 11.32941149 -0.04247107 8.67567762 0 6 C-0.66 6 -1.32 6 -2 6 C-2 5.34 -2 4.68 -2 4 C-1.34 4 -0.68 4 0 4 C0 2.68 0 1.36 0 0 Z " fill="#483D85" transform="translate(224,183)"/>
<path d="M0 0 C0.95132812 0.4640625 1.90265625 0.928125 2.8828125 1.40625 C4.33300781 2.10234375 4.33300781 2.10234375 5.8125 2.8125 C6.53695313 3.1734375 7.26140625 3.534375 8.0078125 3.90625 C4.66906335 7.24499915 0.54209978 8.74344567 -3.9921875 9.90625 C-9.6884573 9.71268743 -14.89657713 7.29142932 -19.9921875 4.90625 C-14.04572262 -0.0887805 -7.52074399 -2.74909702 0 0 Z " fill="#E02128" transform="translate(327.9921875,200.09375)"/>
<path d="M0 0 C3.4770953 3.17431453 4.9280501 6.45035003 6 11 C5.89822814 17.41162721 3.83431881 22.30499663 1 28 C-2.20851142 23.18723287 -5 17.80840156 -5 11.9375 C-3.6015961 7.82968854 -1.86970974 3.91334596 0 0 Z " fill="#E02228" transform="translate(307,176)"/>
<path d="M0 0 C1.54781854 0.82185055 3.09163099 1.65149541 4.625 2.5 C0.82803329 6.29696671 -4.13652634 7.7617709 -9.375 8.5 C-14.02566364 7.41994132 -18.1298192 5.6636728 -22.375 3.5 C-20.7056227 0.1612454 -17.29438787 -0.39752435 -13.92578125 -1.66015625 C-8.28336044 -3.51792114 -5.20301266 -2.55778353 0 0 Z " fill="#E56E24" transform="translate(330.375,172.5)"/>
<path d="M0 0 C1.65 0 3.3 0 5 0 C5 10.23 5 20.46 5 31 C3.35 31 1.7 31 0 31 C0 20.77 0 10.54 0 0 Z " fill="#000000" transform="translate(293,272)"/>
<path d="M0 0 C1.13199353 0.9080162 2.25532363 1.82683826 3.375 2.75 C4.00148438 3.26046875 4.62796875 3.7709375 5.2734375 4.296875 C7 6 7 6 9 10 C6.36 12.31 3.72 14.62 1 17 C-2.90432869 15.04783565 -5.03839944 13.12613393 -8 10 C-6.34908222 5.70761377 -3.26245434 3.1206085 0 0 Z " fill="#FAFAFA" transform="translate(322,181)"/>
<path d="M0 0 C0.66 0 1.32 0 2 0 C2 5.61 2 11.22 2 17 C-6 18 -6 18 -8.5 16.375 C-10.29186133 13.53788623 -10.65793542 12.28967708 -10 9 C-8.3125 6.625 -8.3125 6.625 -6 5 C-3.25 5.25 -3.25 5.25 -1 6 C-0.67 4.02 -0.34 2.04 0 0 Z " fill="#D2D0DE" transform="translate(253,181)"/>
<path d="M0 0 C3.0625 0.375 3.0625 0.375 5 1.9375 C6.50890049 5.39909525 5.9326627 7.76047801 5.0625 11.375 C4.4025 12.035 3.7425 12.695 3.0625 13.375 C-0.4375 13.1875 -0.4375 13.1875 -3.9375 12.375 C-5.9375 9.375 -5.9375 9.375 -5.6875 5.8125 C-4.76756194 1.59611722 -4.33010594 0.55277948 0 0 Z " fill="#DDDBE5" transform="translate(267.9375,185.625)"/>
<path d="M0 0 C0.66 0 1.32 0 2 0 C2 4.95 2 9.9 2 15 C4.64 15 7.28 15 10 15 C10 12.03 10 9.06 10 6 C11.32 5.67 12.64 5.34 14 5 C14 9.29 14 13.58 14 18 C9.38 18 4.76 18 0 18 C0 12.06 0 6.12 0 0 Z " fill="#9791B7" transform="translate(196,181)"/>
<path d="M0 0 C0.99 0.33 1.98 0.66 3 1 C1.35 5.29 -0.3 9.58 -2 14 C-5 14 -5 14 -6.82421875 12.46875 C-7.43910156 11.8190625 -8.05398438 11.169375 -8.6875 10.5 C-9.31011719 9.8503125 -9.93273437 9.200625 -10.57421875 8.53125 C-11.04472656 8.0259375 -11.51523437 7.520625 -12 7 C-9.4347341 5.28982274 -7.12039035 4.09582189 -4.3125 2.875 C-3.50425781 2.52179688 -2.69601562 2.16859375 -1.86328125 1.8046875 C-1.24839844 1.53914062 -0.63351562 1.27359375 0 1 C0 0.67 0 0.34 0 0 Z " fill="#44408E" transform="translate(334,174)"/>
<path d="M0 0 C3.625 0.375 3.625 0.375 7 1 C8.32561852 7.38707103 8.32561852 7.38707103 6.9375 10 C3.99948754 11.51639353 2.09843192 10.92293717 -1 10 C-3 7 -3 7 -2.75 4.4375 C-2 2 -2 2 0 0 Z " fill="#129F5F" transform="translate(543,112)"/>
<path d="M0 0 C3.18959781 -0.4071827 5.16000247 -0.51483719 7.9375 1.1875 C9 3 9 3 8.8125 5.5625 C8 8 8 8 6 10 C2.375 9.625 2.375 9.625 -1 9 C-1.625 6.1875 -1.625 6.1875 -2 3 C-1.34 2.01 -0.68 1.02 0 0 Z " fill="#9DA0A5" transform="translate(250,134)"/>
<path d="M0 0 C3 0.25 3 0.25 5 2.25 C5.3125 5.25 5.3125 5.25 5 8.25 C1.77626323 10.39915785 0.73296326 10.63286803 -3 10.25 C-5 8.25 -5 8.25 -5.25 5.25 C-4.90584825 1.120179 -4.129821 0.34415175 0 0 Z " fill="#9EA1A7" transform="translate(504,133.75)"/>
<path d="M0 0 C0.99 0.103125 1.98 0.20625 3 0.3125 C5 3.3125 5 3.3125 4.625 6.5 C4.41875 7.428125 4.2125 8.35625 4 9.3125 C0.625 9.9375 0.625 9.9375 -3 10.3125 C-5 8.3125 -5 8.3125 -5.25 5.3125 C-4.90578549 1.18192588 -4.11441953 0.42858537 0 0 Z " fill="#9DA0A6" transform="translate(409,133.6875)"/>
<path d="M0 0 C1.010625 0.0825 2.02125 0.165 3.0625 0.25 C5.0625 3.25 5.0625 3.25 4.75 6.375 C4.0625 9.25 4.0625 9.25 3.0625 10.25 C0.125 10.5 0.125 10.5 -2.9375 10.25 C-4.9375 7.25 -4.9375 7.25 -4.625 4.125 C-3.71417611 0.31610009 -3.71417611 0.31610009 0 0 Z " fill="#2E3542" transform="translate(315.9375,133.75)"/>
<path d="M0 0 C3.26600019 2.46764459 4.78253791 3.95618195 5.625 8 C4.77618008 12.0743356 3.32274404 13.54405875 0 16 C-3.0625 16.5625 -3.0625 16.5625 -6 16 C-8.65359262 14.06359458 -9.7609947 12.62141377 -10.9375 9.5625 C-11.01997067 6.18120249 -10.0198841 4.66913256 -8 2 C-4.72942857 -0.18038095 -3.79480531 -0.63246755 0 0 Z M-9 5 C-9.46376624 8.18011138 -9.54663625 10.08893958 -7.875 12.875 C-5.14747535 14.51151479 -3.12026907 14.32502803 0 14 C0.99 13.34 1.98 12.68 3 12 C3.52072819 7.31717937 3.52072819 7.31717937 1.8125 3.0625 C-2.26054308 0.67485406 -5.9159059 1.57322877 -9 5 Z " fill="#262626" transform="translate(571,68)"/>
<path d="M0 0 C-0.020625 1.0725 -0.04125 2.145 -0.0625 3.25 C-0.0142016 6.14790424 0.13155885 8.28612141 1 11 C-4.75 12.125 -4.75 12.125 -7 11 C-6.93993922 9.54052295 -6.8511311 8.08220728 -6.75 6.625 C-6.70359375 5.81289062 -6.6571875 5.00078125 -6.609375 4.1640625 C-6 2 -6 2 -4.078125 0.7109375 C-2 0 -2 0 0 0 Z " fill="#C6C3D7" transform="translate(478,184)"/>
<path d="M0 0 C4.62 1.32 9.24 2.64 14 4 C13.67 5.32 13.34 6.64 13 8 C10.03 8 7.06 8 4 8 C3.34 6.68 2.68 5.36 2 4 C1.34 3.67 0.68 3.34 0 3 C0 2.01 0 1.02 0 0 Z " fill="#34297A" transform="translate(379,190)"/>
<path d="M0 0 C1.2375 0.1546875 1.2375 0.1546875 2.5 0.3125 C3.16 1.3025 3.82 2.2925 4.5 3.3125 C2.52 3.3125 0.54 3.3125 -1.5 3.3125 C-1.83 3.9725 -2.16 4.6325 -2.5 5.3125 C0.47 5.8075 0.47 5.8075 3.5 6.3125 C4.125 8.6875 4.125 8.6875 4.5 11.3125 C2.5 13.3125 2.5 13.3125 -0.125 13.4375 C-0.90875 13.39625 -1.6925 13.355 -2.5 13.3125 C-3.16 11.9925 -3.82 10.6725 -4.5 9.3125 C-1.53 9.8075 -1.53 9.8075 1.5 10.3125 C1.83 9.6525 2.16 8.9925 2.5 8.3125 C-0.47 7.8175 -0.47 7.8175 -3.5 7.3125 C-4.125 4.9375 -4.125 4.9375 -4.5 2.3125 C-2.5 0.3125 -2.5 0.3125 0 0 Z " fill="#DCDAE5" transform="translate(216.5,185.6875)"/>
<path d="M0 0 C2.375 -0.125 2.375 -0.125 5 0 C7 2 7 2 7 6 C4.03 6 1.06 6 -2 6 C-1.01 7.485 -1.01 7.485 0 9 C1.98 8.67 3.96 8.34 6 8 C5.34 9.32 4.68 10.64 4 12 C-0.44936709 12.36075949 -0.44936709 12.36075949 -2.8125 10.8125 C-4.36678206 8.44017475 -4.22537188 6.77958655 -4 4 C-1.29120665 2.64560332 1.00933268 2.93498549 4 3 C2.68 2.01 1.36 1.02 0 0 Z " fill="#E5E4EA" transform="translate(235,187)"/>
<path d="M0 0 C1 1 1 1 1.09765625 3.28515625 C1.08605469 4.20167969 1.07445312 5.11820313 1.0625 6.0625 C1.05347656 6.98160156 1.04445313 7.90070313 1.03515625 8.84765625 C1.02355469 9.55792969 1.01195312 10.26820313 1 11 C0.34 11 -0.32 11 -1 11 C-1.33 8.36 -1.66 5.72 -2 3 C-3.32 3 -4.64 3 -6 3 C-6.33 5.64 -6.66 8.28 -7 11 C-7.66 11 -8.32 11 -9 11 C-9 7.37 -9 3.74 -9 0 C-5.16046631 -0.95988342 -3.67125527 -0.99223115 0 0 Z " fill="#DBDAE3" transform="translate(285,187)"/>
<path d="M0 0 C1.64574566 -0.02688151 3.29161413 -0.04634123 4.9375 -0.0625 C5.85402344 -0.07410156 6.77054687 -0.08570313 7.71484375 -0.09765625 C10 0 10 0 11 1 C11.04080783 2.99958364 11.04254356 5.00045254 11 7 C8.69 7 6.38 7 4 7 C3.67 5.35 3.34 3.7 3 2 C2.67 3.65 2.34 5.3 2 7 C1.34 7 0.68 7 0 7 C0 4.69 0 2.38 0 0 Z " fill="#C5C1D6" transform="translate(447,186)"/>
<path d="M0 0 C0.78375 0.04125 1.5675 0.0825 2.375 0.125 C3 2.4375 3 2.4375 3.375 5.125 C2.385 6.61 2.385 6.61 1.375 8.125 C-0.275 7.795 -1.925 7.465 -3.625 7.125 C-4.25 4.75 -4.25 4.75 -4.625 2.125 C-2.625 0.125 -2.625 0.125 0 0 Z " fill="#423882" transform="translate(268.625,188.875)"/>
<path d="M0 0 C2.31 0 4.62 0 7 0 C7 0.66 7 1.32 7 2 C5.35 2 3.7 2 2 2 C2 2.66 2 3.32 2 4 C3.32 4 4.64 4 6 4 C6 4.66 6 5.32 6 6 C4.68 6 3.36 6 2 6 C2 6.66 2 7.32 2 8 C3.65 8 5.3 8 7 8 C7 8.66 7 9.32 7 10 C4.69 10 2.38 10 0 10 C0 6.7 0 3.4 0 0 Z " fill="#E5E4EB" transform="translate(439,183)"/>
<path d="M0 0 C0.66 0 1.32 0 2 0 C2 4.95 2 9.9 2 15 C4.31 15 6.62 15 9 15 C9 15.66 9 16.32 9 17 C6.03 17 3.06 17 0 17 C0 11.39 0 5.78 0 0 Z " fill="#E4E3E9" transform="translate(196,181)"/>
<path d="M0 0 C0.66 0 1.32 0 2 0 C2 1.32 2 2.64 2 4 C2.99 4 3.98 4 5 4 C5 4.66 5 5.32 5 6 C4.01 6 3.02 6 2 6 C2 8.31 2 10.62 2 13 C2.99 13 3.98 13 5 13 C5 13.66 5 14.32 5 15 C3.35 14.67 1.7 14.34 0 14 C0 11.36 0 8.72 0 6 C-0.66 6 -1.32 6 -2 6 C-2 5.34 -2 4.68 -2 4 C-1.34 4 -0.68 4 0 4 C0 2.68 0 1.36 0 0 Z " fill="#E0DFE6" transform="translate(224,183)"/>
<path d="M0 0 C1.98 0 3.96 0 6 0 C6.93065133 2.60582371 7.14917407 3.64198224 6.0625 6.25 C5.5365625 7.11625 5.5365625 7.11625 5 8 C4.67 7.01 4.34 6.02 4 5 C3.34 5 2.68 5 2 5 C2 5.99 2 6.98 2 8 C1.34 8 0.68 8 0 8 C0 5.36 0 2.72 0 0 Z " fill="#222222" transform="translate(565,72)"/>
<path d="M0 0 C1.2065625 0.0309375 1.2065625 0.0309375 2.4375 0.0625 C3.5625 4.8125 3.5625 4.8125 2.4375 7.0625 C0.77138095 7.105221 -0.89632885 7.10313832 -2.5625 7.0625 C-3.5625 6.0625 -3.5625 6.0625 -3.6875 3.5625 C-3.51717518 0.15600356 -3.41884482 0.08338646 0 0 Z " fill="#342879" transform="translate(249.5625,188.9375)"/>
<path d="M0 0 C1.32 0.33 2.64 0.66 4 1 C2.68 1.33 1.36 1.66 0 2 C0 2.66 0 3.32 0 4 C0.99 4 1.98 4 3 4 C3 4.66 3 5.32 3 6 C2.01 6 1.02 6 0 6 C0 8.97 0 11.94 0 15 C-0.66 15 -1.32 15 -2 15 C-2.25002209 13.25285767 -2.47423194 11.50200859 -2.6875 9.75 C-2.81511719 8.77546875 -2.94273437 7.8009375 -3.07421875 6.796875 C-2.9871902 3.51727269 -2.19219402 2.36689329 0 0 Z " fill="#616771" transform="translate(385,129)"/>
<path d="M0 0 C0.20625 0.61875 0.4125 1.2375 0.625 1.875 C2.54775888 4.84653645 4.66594527 5.13024659 8 6 C7.67 6.99 7.34 7.98 7 9 C4.83125748 8.49396008 3.00032373 8.00016187 1 7 C1.33 7.99 1.66 8.98 2 10 C1.01 10 0.02 10 -1 10 C-1.125 2.25 -1.125 2.25 0 0 Z " fill="#433882" transform="translate(211,188)"/>
<path d="M0 0 C2.97 0 5.94 0 9 0 C8.34 1.65 7.68 3.3 7 5 C5.02 5 3.04 5 1 5 C0.67 3.35 0.34 1.7 0 0 Z " fill="#9C9FA5" transform="translate(312,139)"/>
<path d="M0 0 C1.2065625 0.0309375 1.2065625 0.0309375 2.4375 0.0625 C3.37173645 3.07281744 3.48199911 3.92900268 2.4375 7.0625 C0.7875 7.0625 -0.8625 7.0625 -2.5625 7.0625 C-2.94383299 5.0710944 -3.27575582 3.06970923 -3.5625 1.0625 C-2.5625 0.0625 -2.5625 0.0625 0 0 Z " fill="#D5D3E1" transform="translate(482.5625,185.9375)"/>
<path d="M0 0 C1.2065625 0.0309375 1.2065625 0.0309375 2.4375 0.0625 C2.4375 2.3725 2.4375 4.6825 2.4375 7.0625 C0.77138095 7.105221 -0.89632885 7.10313832 -2.5625 7.0625 C-3.5625 6.0625 -3.5625 6.0625 -3.6875 3.5625 C-3.51717518 0.15600356 -3.41884482 0.08338646 0 0 Z " fill="#D5D3E1" transform="translate(462.5625,185.9375)"/>
<path d="M0 0 C0.66 0 1.32 0 2 0 C2.1875 2.875 2.1875 2.875 2 6 C-1.4352048 8.29013653 -2.985331 8.17842973 -7 8 C-6.34 6.35 -5.68 4.7 -5 3 C-4.34 3 -3.68 3 -3 3 C-2.67 3.66 -2.34 4.32 -2 5 C-1.34 3.35 -0.68 1.7 0 0 Z " fill="#E4E4E4" transform="translate(572,74)"/>
<path d="M0 0 C2.875 -0.1875 2.875 -0.1875 6 0 C8 3 8 3 7.6875 6.625 C7 10 7 10 6 11 C4.33382885 11.04063832 2.66611905 11.042721 1 11 C1.680625 10.443125 2.36125 9.88625 3.0625 9.3125 C5.28097119 7.16746056 5.28097119 7.16746056 5 4.375 C4.20423043 1.85506227 4.20423043 1.85506227 1.9375 0.6875 C1.298125 0.460625 0.65875 0.23375 0 0 Z " fill="#EAE9EE" transform="translate(266,187)"/>
<path d="M0 0 C0.66 0 1.32 0 2 0 C2 5.61 2 11.22 2 17 C1.34 17 0.68 17 0 17 C-1.25296481 13.38032389 -0.6567573 10.72162469 0 7 C0.03762951 4.66697011 0.04665734 2.33286681 0 0 Z " fill="#F8F8F9" transform="translate(253,181)"/>
<path d="M0 0 C2.97 0.33 5.94 0.66 9 1 C8.34 2.65 7.68 4.3 7 6 C4.36 5.01 1.72 4.02 -1 3 C-0.67 2.01 -0.34 1.02 0 0 Z " fill="#413781" transform="translate(215,188)"/>
<path d="M0 0 C2.31 0 4.62 0 7 0 C6.0409375 0.495 6.0409375 0.495 5.0625 1 C1.9447236 4.02329832 2.27956936 6.73656724 2 11 C1.34 11 0.68 11 0 11 C0 7.37 0 3.74 0 0 Z " fill="#FBFBFA" transform="translate(276,187)"/>
<path d="M0 0 C1.2065625 0.0309375 1.2065625 0.0309375 2.4375 0.0625 C2.4375 1.0525 2.4375 2.0425 2.4375 3.0625 C2.7675 3.7225 3.0975 4.3825 3.4375 5.0625 C0.4675 5.0625 -2.5025 5.0625 -5.5625 5.0625 C-3.06867284 0.07484568 -3.06867284 0.07484568 0 0 Z " fill="#8982AF" transform="translate(236.5625,185.9375)"/>
<path d="M0 0 C2.1875 -0.3125 2.1875 -0.3125 5 0 C7.8125 2.125 7.8125 2.125 10 5 C10.3125 8.3125 10.3125 8.3125 10 11 C9.34 10.67 8.68 10.34 8 10 C7.7525 9.05125 7.505 8.1025 7.25 7.125 C6.25543537 3.72466057 6.25543537 3.72466057 2.875 2.125 C1.92625 1.75375 0.9775 1.3825 0 1 C0 0.67 0 0.34 0 0 Z " fill="#3C3C3C" transform="translate(566,68)"/>
<path d="M0 0 C1.98 0 3.96 0 6 0 C6 1.98 6 3.96 6 6 C5.01 4.68 4.02 3.36 3 2 C2.67 3.65 2.34 5.3 2 7 C1.34 7 0.68 7 0 7 C0 4.69 0 2.38 0 0 Z " fill="#E5E4EC" transform="translate(447,186)"/>
<path d="M0 0 C1.65 0 3.3 0 5 0 C5 1.65 5 3.3 5 5 C3.02 5 1.04 5 -1 5 C-1 4.34 -1 3.68 -1 3 C0.32 3 1.64 3 3 3 C3 2.34 3 1.68 3 1 C2.01 0.67 1.02 0.34 0 0 Z " fill="#443983" transform="translate(442,186)"/>
<path d="M0 0 C1.65 0.33 3.3 0.66 5 1 C5 1.99 5 2.98 5 4 C3.02 4.33 1.04 4.66 -1 5 C-0.67 3.35 -0.34 1.7 0 0 Z " fill="#B8B4CE" transform="translate(474,191)"/>
<path d="M0 0 C1.98 0 3.96 0 6 0 C5.67 1.32 5.34 2.64 5 4 C3.0625 3.6875 3.0625 3.6875 1 3 C0.67 2.01 0.34 1.02 0 0 Z " fill="#413681" transform="translate(233,193)"/>
<path d="M0 0 C-1.29299694 2.88437779 -2.65941363 4.87219421 -5 7 C-5.99 6.67 -6.98 6.34 -8 6 C-7.0479279 4.99403703 -6.08812654 3.99538437 -5.125 3 C-4.59132813 2.443125 -4.05765625 1.88625 -3.5078125 1.3125 C-2 0 -2 0 0 0 Z " fill="#EBB936" transform="translate(331,191)"/>
<path d="M0 0 C1.98 0 3.96 0 6 0 C5.67 0.99 5.34 1.98 5 3 C4.01 3 3.02 3 2 3 C1.67 4.65 1.34 6.3 1 8 C0.67 8 0.34 8 0 8 C0 5.36 0 2.72 0 0 Z " fill="#808080" transform="translate(565,72)"/>
<path d="M0 0 C0.78375 0.04125 1.5675 0.0825 2.375 0.125 C2.375 1.445 2.375 2.765 2.375 4.125 C0.065 3.465 -2.245 2.805 -4.625 2.125 C-2.625 0.125 -2.625 0.125 0 0 Z " fill="#D71D2D" transform="translate(312.625,202.875)"/>
<path d="M0 0 C1.32 0 2.64 0 4 0 C4 0.66 4 1.32 4 2 C3.34 2 2.68 2 2 2 C2 3.65 2 5.3 2 7 C1.34 7 0.68 7 0 7 C0 4.69 0 2.38 0 0 Z " fill="#E4E3EB" transform="translate(467,186)"/>
<path d="M0 0 C0.66 0 1.32 0 2 0 C2 1.32 2 2.64 2 4 C2.99 4.33 3.98 4.66 5 5 C2.69 5.33 0.38 5.66 -2 6 C-2 5.34 -2 4.68 -2 4 C-1.34 4 -0.68 4 0 4 C0 2.68 0 1.36 0 0 Z " fill="#E8E7ED" transform="translate(224,183)"/>
<path d="M0 0 C1.98 0 3.96 0 6 0 C5.67 0.99 5.34 1.98 5 3 C2.69 3.33 0.38 3.66 -2 4 C-1.34 2.68 -0.68 1.36 0 0 Z " fill="#B0ACC8" transform="translate(265,186)"/>
<path d="M0 0 C1.65 0.33 3.3 0.66 5 1 C5 1.66 5 2.32 5 3 C2.69 3 0.38 3 -2 3 C-1.34 2.01 -0.68 1.02 0 0 Z " fill="#F2F2F3" transform="translate(314,135)"/>
</svg>
