<svg width="82" height="41" viewBox="0 0 82 41" fill="none" xmlns="http://www.w3.org/2000/svg">
<path d="M71.59 12.83H62.21L53.4 1.72C52.52 0.610001 51.26 0 49.85 0H21.12C19.01 0 17.25 1.37 16.73 3.41L14.33 12.82H4.53C2.03 12.82 0 14.85 0 17.35V28.71C0 31.21 2.03 33.24 4.53 33.24H10.49C10.93 37.35 14.41 40.57 18.64 40.57C22.87 40.57 26.36 37.35 26.79 33.24H52.99C53.43 37.35 56.91 40.57 61.14 40.57C65.37 40.57 68.86 37.35 69.29 33.24H77.08C79.58 33.24 81.61 31.21 81.61 28.71V22.85C81.62 17.33 77.12 12.83 71.59 12.83ZM79.84 21.99H75.26C73.72 21.99 72.46 20.74 72.46 19.19V14.61C76.34 15.01 79.43 18.11 79.84 21.99ZM52.04 2.8L59.99 12.83H36.35V1.74H49.84C50.74 1.74 51.48 2.09 52.04 2.8ZM18.41 3.84C18.73 2.58 19.82 1.73 21.12 1.73H34.61V12.82H16.13L18.41 3.84ZM1.74 28.72V22.72H4.26C5.3 22.72 6.14 23.56 6.14 24.6V31.52H4.53C2.99 31.51 1.74 30.26 1.74 28.72ZM18.64 38.84C15.08 38.84 12.18 35.94 12.18 32.38C12.18 28.82 15.08 25.92 18.64 25.92C22.2 25.92 25.1 28.82 25.1 32.38C25.1 35.94 22.2 38.84 18.64 38.84ZM61.15 38.84C57.59 38.84 54.69 35.94 54.69 32.38C54.69 28.82 57.59 25.92 61.15 25.92C64.71 25.92 67.61 28.82 67.61 32.38C67.61 35.94 64.71 38.84 61.15 38.84ZM77.09 31.51H69.3C68.86 27.4 65.38 24.18 61.15 24.18C56.92 24.18 53.43 27.4 53 31.51H26.8C26.36 27.4 22.88 24.18 18.65 24.18C14.42 24.18 10.93 27.4 10.5 31.51H7.88V24.59C7.88 22.6 6.26 20.97 4.26 20.97H1.74V17.35C1.74 15.81 2.99 14.55 4.54 14.55H70.73V19.18C70.73 21.68 72.76 23.71 75.26 23.71H79.89V28.7C79.88 30.26 78.63 31.51 77.09 31.51ZM18.64 28.77C16.65 28.77 15.02 30.39 15.02 32.39C15.02 34.39 16.64 36.01 18.64 36.01C20.64 36.01 22.26 34.39 22.26 32.39C22.26 30.39 20.64 28.77 18.64 28.77ZM18.64 34.26C17.6 34.26 16.76 33.42 16.76 32.38C16.76 31.34 17.6 30.5 18.64 30.5C19.68 30.5 20.52 31.34 20.52 32.38C20.52 33.42 19.68 34.26 18.64 34.26ZM61.15 28.77C59.16 28.77 57.53 30.39 57.53 32.39C57.53 34.39 59.15 36.01 61.15 36.01C63.14 36.01 64.77 34.39 64.77 32.39C64.77 30.39 63.14 28.77 61.15 28.77ZM61.15 34.26C60.11 34.26 59.27 33.42 59.27 32.38C59.27 31.34 60.11 30.5 61.15 30.5C62.19 30.5 63.03 31.34 63.03 32.38C63.03 33.42 62.18 34.26 61.15 34.26ZM43.32 18.23C43.32 18.71 42.93 19.1 42.45 19.1H37.69C37.21 19.1 36.82 18.71 36.82 18.23C36.82 17.75 37.21 17.36 37.69 17.36H42.45C42.93 17.37 43.32 17.75 43.32 18.23Z" fill="black"/>
</svg>
