<svg clip-rule="evenodd" fill-rule="evenodd" height="512" image-rendering="optimizeQuality" shape-rendering="geometricPrecision" text-rendering="geometricPrecision" viewBox="0 0 28444 28444" width="512" xmlns="http://www.w3.org/2000/svg"><g id="Layer_x0020_1"><path d="m8976 3578 10578 1421c85 11 164 53 223 116h1c60 65 98 151 98 249v18835h446v-14892l2118 459v14433c1052 0 2448-205 2448 335 0 185-150 335-335 335h-20668c-441 0-441-669 0-669h2114v-14433l2118-459v14892h446v-20256c0-208 181-397 412-366zm6543 20622v-4323h-2598v4323m469-2373c117 0 211 95 211 211 0 117-95 211-211 211-117 0-211-95-211-211 0-117 95-211 211-211zm3092-3389h1365v-1704h-1365zm-2945 0h1365v-1704h-1365zm-2945 0h1365v-1704h-1365zm0-3419h1365v-1704h-1365zm2945 0h1365v-1704h-1365zm2945 0h1365v-1704h-1365zm0-3419h1365v-1704h-1365zm-2945 0h1365v-1704h-1365zm-2945 0h1365v-1704h-1365zm15-3400h1365v-1704h-1365zm2929-19h1365v-1704h-1365zm2945 0h1365v-1704h-1365z"/></g></svg>