<svg width="231" height="233" viewBox="0 0 231 233" fill="none" xmlns="http://www.w3.org/2000/svg">
<path d="M207.649 158.07H200.165C193.975 158.07 188.939 163.105 188.939 169.295V173.036H173.972V169.295C173.972 163.106 168.937 158.07 162.747 158.07H155.263C149.073 158.07 144.037 163.105 144.037 169.295V173.036H129.07V169.295C129.07 163.106 124.035 158.07 117.845 158.07H110.361C104.171 158.07 99.1352 163.105 99.1352 169.295V173.036H84.1685V169.295C84.1685 163.106 79.1327 158.07 72.9429 158.07H65.4589C59.2694 158.07 54.2333 163.105 54.2333 169.295V173.036H39.2665V169.295C39.2665 163.106 34.2308 158.07 28.0409 158.07H20.5569C14.3674 158.07 9.3313 163.105 9.3313 169.295V232.905H218.864L218.872 169.295C218.872 163.106 213.836 158.07 207.646 158.07H207.649ZM188.941 180.519V195.485H173.974V180.519H188.941ZM155.264 165.552H162.748C164.812 165.552 166.49 167.23 166.49 169.293V225.417H151.523V169.293C151.523 167.23 153.201 165.55 155.264 165.55L155.264 165.552ZM144.041 225.421H129.074V202.97H144.041V225.421ZM144.041 180.519V195.486H129.074V180.519H144.041ZM110.364 165.552H117.848C119.911 165.552 121.589 167.23 121.589 169.294V225.417H106.623V169.294C106.623 167.23 108.301 165.551 110.364 165.551L110.364 165.552ZM99.1385 225.421H84.1718V202.97H99.1385V225.421ZM99.1385 180.52V195.486H84.1718V180.52H99.1385ZM65.4638 165.553H72.9478C75.0111 165.553 76.6891 167.231 76.6891 169.294V225.418H61.7223V169.294C61.7223 167.231 63.4004 165.551 65.4636 165.551L65.4638 165.553ZM54.2382 180.52V195.486H39.2715V180.52H54.2382ZM31.7891 225.421H16.8223V169.297C16.8223 167.234 18.5004 165.556 20.5636 165.556H28.0476C30.1108 165.556 31.7889 167.234 31.7889 169.297L31.7891 225.421ZM39.2715 202.972H54.2382V225.423H39.2715V202.972ZM173.972 225.421V202.97H188.939V225.421H173.972ZM211.388 225.421H196.421V169.297C196.421 167.234 198.099 165.556 200.162 165.556H207.646C209.71 165.556 211.388 167.234 211.388 169.297L211.388 225.421Z" fill="black"/>
<path d="M192.682 112.932V90.3403C197.318 89.4099 201.4 86.7754 204.154 82.9065C205.3 83.1233 206.468 83.2333 207.648 83.2333C217.964 83.2333 226.356 74.8413 226.356 64.5254C226.356 63.3991 226.256 62.2793 226.055 61.1773C228.675 57.8827 230.097 53.8309 230.097 49.5586C230.097 44.887 228.377 40.4611 225.299 37.0484C225.995 35.0645 226.355 32.9641 226.355 30.849C226.355 20.5331 217.962 12.1411 207.647 12.1411C207.134 12.1411 206.621 12.1621 206.109 12.2042C203.193 5.49525 196.458 0.915619 188.94 0.915619C181.422 0.915619 174.686 5.49525 171.77 12.2042C171.258 12.1621 170.745 12.1411 170.232 12.1411C159.917 12.1411 151.524 20.5331 151.524 30.849C151.524 32.9624 151.885 35.0629 152.58 37.0484C149.502 40.4596 147.782 44.8854 147.782 49.5586C147.782 53.8305 149.204 57.8827 151.824 61.1773C151.625 62.2794 151.523 63.3991 151.523 64.5254C151.523 74.8413 159.915 83.2333 170.231 83.2333C171.41 83.2333 172.577 83.1233 173.725 82.9065C176.479 86.7756 180.563 89.4099 185.197 90.3403V110.374C166.488 104.273 141.087 98.1997 114.106 98.1997C112.721 98.1997 111.343 98.2207 109.967 98.2531C108.935 93.4468 105.889 89.0698 101.125 85.6683C95.5504 81.6843 88.2023 79.49 80.4316 79.49C75.0529 79.49 69.9181 80.5694 65.4648 82.4886V67.7873C66.6769 68.0996 67.9326 68.2663 69.2061 68.2663C76.3036 68.2663 82.2635 63.3002 83.7926 56.6604C90.4319 55.1312 95.3985 49.1714 95.3985 42.0739C95.3985 40.5884 95.1751 39.1143 94.7463 37.7031C97.5393 34.9263 99.1412 31.1445 99.1412 27.1072C99.1412 20.0097 94.1751 14.0497 87.5353 12.5207C86.0045 5.88135 80.0463 0.914795 72.9488 0.914795C68.9114 0.914795 65.1297 2.51682 62.3529 5.30967C60.9402 4.87921 59.466 4.65593 57.9821 4.65593C52.5076 4.65593 47.5593 7.65284 44.9491 12.2646C44.3099 12.1805 43.6658 12.14 43.0153 12.14C34.7624 12.14 28.0485 18.8539 28.0485 27.1068C28.0485 28.5907 28.2718 30.0665 28.7007 31.4776C25.9076 34.2545 24.3058 38.0362 24.3058 42.0736C24.3058 50.3264 31.0197 57.0403 39.2726 57.0403C39.4295 57.0403 39.5881 57.0387 39.7434 57.0322C41.4086 63.4839 47.2763 68.2657 54.2392 68.2657C55.5127 68.2657 56.7685 68.1007 57.9805 67.7867V87.0515C56.3768 88.4059 54.9884 89.9157 53.8557 91.5516C51.5837 91.0046 49.2002 90.715 46.7549 90.715C32.3125 90.715 20.5625 100.786 20.5625 113.166C20.5625 114.97 20.8149 116.737 21.3004 118.459C8.27855 123.927 0.420887 128.385 0 128.624L3.71213 135.123C4.22673 134.829 55.9834 105.682 114.104 105.682C126.919 105.682 139.421 107.099 151.135 109.311L143.012 125.558L134.058 116.605L129.644 143.1H121.589V150.584H181.457V143.1H173.402L168.986 116.605L160.033 125.558L151.992 109.477C192.993 117.378 224.102 134.895 224.504 135.123L228.216 128.626C227.671 128.314 214.606 120.898 193.964 113.391C193.544 113.239 193.114 113.085 192.685 112.931L192.682 112.932ZM178.838 76.9076L177.349 73.8476L174.161 75.0402C172.904 75.5111 171.58 75.7489 170.231 75.7489C164.041 75.7489 159.005 70.7132 159.005 64.5233C159.005 63.4068 159.168 62.3015 159.494 61.2416L160.151 59.0894L158.558 57.5004C156.434 55.3789 155.264 52.5582 155.264 49.5565C155.264 46.1664 156.775 42.9897 159.411 40.8459L161.813 38.8911L160.343 36.1661C159.455 34.5203 159.005 32.7306 159.005 30.847C159.005 24.6575 164.041 19.6214 170.231 19.6214C171.263 19.6214 172.294 19.7654 173.294 20.0486L177.129 21.1344L177.971 17.2378C179.077 12.1163 183.691 8.39913 188.94 8.39913C194.189 8.39913 198.803 12.1178 199.908 17.2411L200.75 21.1361L204.585 20.0503C205.585 19.7671 206.616 19.6231 207.648 19.6231C213.838 19.6231 218.874 24.6588 218.874 30.8487C218.874 32.7323 218.424 34.522 217.536 36.1678L216.066 38.8928L218.468 40.8476C221.104 42.9933 222.615 46.1683 222.615 49.5582C222.615 52.56 221.445 55.3806 219.321 57.5021L217.728 59.0911L218.385 61.2433C218.709 62.3049 218.874 63.4085 218.874 64.525C218.874 70.7145 213.838 75.7506 207.648 75.7506C206.297 75.7506 204.975 75.5128 203.718 75.0419L200.53 73.8493L199.041 76.9093C197.714 79.6375 195.421 81.6376 192.681 82.597V66.8374L213.063 56.6458L209.716 49.953L192.681 58.471V44.1919L209.574 34.0571L205.724 27.6394L192.683 35.4651L192.681 23.3659H185.197V35.4651L172.157 27.6394L168.307 34.0571L185.199 44.1919V58.4694L168.164 49.9514L164.818 56.6441L185.199 66.8357V82.5954C182.458 81.6374 180.165 79.6357 178.838 76.9076L178.838 76.9076ZM54.237 60.7821C50.1106 60.7821 46.753 57.4243 46.753 53.2981C46.753 53.1509 46.7578 53.0052 46.7675 52.8596L47.0847 47.2364L41.7785 49.1249C40.9726 49.4113 40.1295 49.5569 39.2702 49.5569C35.1438 49.5569 31.7862 46.1992 31.7862 42.0729C31.7862 39.5097 33.0792 37.152 35.2476 35.765L38.2299 33.8571L36.4904 30.7745C35.8609 29.6595 35.5291 28.3909 35.5291 27.106C35.5291 22.9796 38.8869 19.622 43.0131 19.622C43.9614 19.622 44.8886 19.8 45.7705 20.1479L49.6623 21.6917L50.761 17.651C51.6413 14.4082 54.6107 12.141 57.9799 12.141C59.2648 12.141 60.5335 12.4743 61.6468 13.1022L64.7294 14.8417L66.6373 11.8594C68.0241 9.69261 70.3818 8.39805 72.9452 8.39805C77.0716 8.39805 80.4292 11.7558 80.4292 15.8821V19.6233H84.1705C88.2969 19.6233 91.6545 22.9811 91.6545 27.1073C91.6545 29.6706 90.3616 32.0283 88.1932 33.4152L85.2108 35.3231L86.9504 38.4058C87.5799 39.5207 87.9116 40.7894 87.9116 42.0726C87.9116 46.199 84.5538 49.5567 80.4276 49.5567H76.6863V53.2979C76.6863 57.4243 73.3286 60.7819 69.2023 60.7819C67.877 60.7819 66.5905 60.4259 65.4611 59.7722L65.4627 30.8486H57.9787V59.7722C56.8492 60.4259 55.5643 60.7819 54.2374 60.7819L54.237 60.7821ZM80.4293 86.9745C90.8699 86.9745 99.914 92.0218 102.275 98.5787C91.0091 99.2875 80.1704 100.94 70.152 103.066C68.0596 99.493 64.922 96.5203 61.124 94.3877C65.1388 89.9004 72.4905 86.9745 80.4293 86.9745V86.9745ZM28.3072 115.628C28.1373 114.819 28.0483 113.997 28.0483 113.165C28.0483 104.912 36.4404 98.1983 46.7563 98.1983C53.1433 98.1983 58.9057 100.758 62.3121 104.857C51.6077 107.485 42.0669 110.548 34.2527 113.39C32.1927 114.141 30.2121 114.888 28.3072 115.628V115.628ZM163.994 132.179L165.814 143.1H137.23L139.051 132.179L145.064 138.192L151.522 125.276L157.981 138.192L163.994 132.179Z" fill="black"/>
<path d="M114.105 143.103H106.05L101.634 116.608L92.6801 125.561L84.1717 108.544L75.6632 125.561L66.7098 116.608L62.2938 143.103H54.2385V150.587H114.107L114.105 143.103ZM71.7012 132.181L77.7146 138.195L84.1729 125.278L90.6312 138.195L96.6446 132.181L98.4634 143.103H69.8795L71.7012 132.181Z" fill="black"/>
</svg>
