<svg width="218" height="183" viewBox="0 0 218 183" fill="none" xmlns="http://www.w3.org/2000/svg">
<path d="M218 15.2911V8.04153C218 6.11912 217.236 4.27434 215.877 2.91507C214.518 1.5558 212.673 0.791992 210.75 0.791992H7.76345C5.84104 0.791992 3.99626 1.5558 2.63699 2.91507C1.27773 4.27434 0.513916 6.11912 0.513916 8.04153V15.2911C0.522007 17.8689 1.90235 20.2477 4.13868 21.5323V160.28C2.13698 160.28 0.513916 161.903 0.513916 163.905V178.404C0.513916 179.365 0.895813 180.288 1.57546 180.967C2.2551 181.647 3.17748 182.029 4.13868 182.029H25.8873C26.8485 182.029 27.7709 181.647 28.4505 180.967C29.1302 180.288 29.5121 179.365 29.5121 178.404V163.905C29.5121 162.944 29.1302 162.021 28.4505 161.342C27.7709 160.662 26.8485 160.28 25.8873 160.28V22.5389H58.5102V124.032C56.5878 124.032 54.743 124.796 53.3837 126.156C52.0245 127.515 51.2607 129.36 51.2607 131.282V138.532C51.2607 140.454 52.0245 142.299 53.3837 143.658C54.743 145.017 56.5878 145.781 58.5102 145.781H160.004C161.926 145.781 163.771 145.017 165.13 143.658C166.489 142.299 167.253 140.454 167.253 138.532V131.282C167.253 129.36 166.489 127.515 165.13 126.156C163.771 124.796 161.926 124.032 160.004 124.032V22.5389H192.627V160.28C190.625 160.28 189.002 161.903 189.002 163.905V178.404C189.002 179.365 189.384 180.288 190.063 180.967C190.743 181.647 191.665 182.029 192.627 182.029H214.375C215.336 182.029 216.259 181.647 216.938 180.967C217.618 180.288 218 179.365 218 178.404V163.905C218 162.944 217.618 162.021 216.938 161.342C216.259 160.662 215.336 160.28 214.375 160.28V21.5323C216.612 20.2474 217.992 17.8687 218 15.2911V15.2911ZM152.754 8.04153V15.2911H65.7597V8.04153H152.754ZM22.2625 174.781H7.76345V167.531H22.2625V174.781ZM18.6378 160.282H11.3882V22.5406H18.6378V160.282ZM7.76345 15.2911V8.04153H58.5102V15.2911H7.76345ZM160.004 138.533H58.5102V131.284H160.004V138.533ZM65.7597 124.034V105.91C65.7662 101.106 67.6773 96.4987 71.0739 93.1005C74.4721 89.7039 79.079 87.7931 83.8836 87.7864H134.63C139.435 87.7929 144.042 89.704 147.44 93.1005C150.837 96.4988 152.748 101.106 152.754 105.91V124.034H65.7597ZM152.754 88.1845C147.992 83.2942 141.456 80.5352 134.63 80.5369H83.8836C77.0578 80.5353 70.5221 83.2943 65.7597 88.1845V22.541H152.754V88.1845ZM160.004 8.04194H210.75V15.2915H160.004V8.04194ZM210.75 174.781H196.251V167.532H210.75V174.781ZM199.876 160.282V22.541H207.126V160.282H199.876Z" fill="black"/>
</svg>
