<svg width="184" height="185" viewBox="0 0 184 185" fill="none" xmlns="http://www.w3.org/2000/svg">
<path d="M0.0688477 9.6254C0.0688477 -2.72946 18.8576 -2.72946 18.8576 9.6254V22.2976H165.095V9.6254C165.095 -2.72946 183.884 -2.72946 183.884 9.6254V175.416C183.884 187.768 165.095 187.768 165.095 175.416V41.0884H101.382V79.2342C120.025 83.5272 134.03 100.289 134.03 120.209C134.03 143.386 115.168 162.248 91.9905 162.248C68.8342 162.248 49.9515 143.336 49.9515 120.209C49.9515 100.311 63.9522 83.5305 82.5955 79.2342V41.0884H18.8617V175.416C18.8617 187.768 0.072988 187.768 0.072988 175.416V9.6254H0.0688477ZM91.9888 108.642C98.3709 108.642 103.551 113.826 103.551 120.207C103.551 126.591 98.3692 131.772 91.9888 131.772C85.6051 131.772 80.4235 126.591 80.4235 120.207C80.4235 113.825 85.6051 108.642 91.9888 108.642ZM91.9888 96.955C79.0917 96.955 68.7369 107.311 68.7369 120.207C68.7369 133.08 79.1161 143.459 91.9888 143.459C104.831 143.459 115.241 133.056 115.241 120.207C115.241 107.338 104.859 96.955 91.9888 96.955Z" fill="black"/>
</svg>
