<svg id="Glyph" enable-background="new 0 0 32 32" height="512" viewBox="0 0 32 32" width="512" xmlns="http://www.w3.org/2000/svg"><path id="XMLID_490_" d="m11 12c0-.552.448-1 1-1s1 .448 1 1-.448 1-1 1-1-.448-1-1z"/><path id="XMLID_492_" d="m21 20c0 .552-.448 1-1 1s-1-.448-1-1 .448-1 1-1 1 .448 1 1z"/><path id="XMLID_494_" d="m29.077 13.732-1.723-1.773c-.228-.235-.354-.546-.354-.874v-2.83c0-1.795-1.46-3.255-3.255-3.255h-2.83c-.328 0-.639-.126-.875-.355l-1.772-1.722c-1.271-1.234-3.264-1.234-4.535 0l-1.773 1.723c-.236.228-.547.354-.875.354h-2.83c-1.795 0-3.255 1.46-3.255 3.255v2.83c0 .328-.126.639-.355.875l-1.722 1.772c-1.234 1.271-1.234 3.264 0 4.535l1.723 1.773c.228.236.354.547.354.875v2.83c0 1.795 1.46 3.255 3.255 3.255h2.83c.328 0 .639.126.875.355l1.772 1.722c.636.617 1.451.926 2.268.926s1.632-.309 2.268-.926l1.773-1.723c.235-.228.546-.354.874-.354h2.83c1.795 0 3.255-1.46 3.255-3.255v-2.83c0-.328.126-.639.355-.875l1.722-1.772c1.235-1.272 1.235-3.264 0-4.536zm-17.077-4.732c1.654 0 3 1.346 3 3s-1.346 3-3 3-3-1.346-3-3 1.346-3 3-3zm8 14c-1.654 0-3-1.346-3-3s1.346-3 3-3 3 1.346 3 3-1.346 3-3 3zm2.707-12.293-12 12c-.391.391-1.023.391-1.414 0s-.391-1.023 0-1.414l12-12c.391-.391 1.023-.391 1.414 0s.391 1.023 0 1.414z"/></svg>