<svg id="Layer_1" enable-background="new -1 -57 512 512" height="512" viewBox="-1 -57 512 512" width="512" xmlns="http://www.w3.org/2000/svg" xmlns:xodm="http://www.corel.com/coreldraw/odm/2003"><g id="Layer_x0020_1"><path d="m160.411 7.578h294.846c12.308 0 23.5 5.035 31.608 13.144 8.101 8.109 13.135 19.292 13.135 31.6s-5.034 23.501-13.135 31.61c-8.108 8.109-19.301 13.144-31.608 13.144h-294.846c-12.308 0-23.491-5.035-31.6-13.144s-13.144-19.302-13.144-31.61 5.035-23.491 13.144-31.6 19.292-13.144 31.6-13.144zm294.846 9.608h-294.846c-9.656 0-18.438 3.958-24.808 10.329-6.37 6.37-10.328 15.151-10.328 24.807 0 9.666 3.958 18.447 10.328 24.817s15.152 10.319 24.808 10.319h294.846c9.655 0 18.446-3.949 24.816-10.319 6.36-6.37 10.319-15.151 10.319-24.817 0-9.656-3.949-18.438-10.319-24.807-6.37-6.37-15.161-10.329-24.816-10.329z"/><path d="m54.744 7.578c12.356 0 23.549 5.006 31.639 13.105 8.099 8.1 13.115 19.292 13.115 31.639 0 12.356-5.016 23.549-13.115 31.639-8.091 8.099-19.283 13.114-31.639 13.114-12.355 0-23.539-5.016-31.639-13.115-8.099-8.089-13.105-19.282-13.105-31.638 0-12.346 5.006-23.539 13.105-31.639 8.1-8.099 19.283-13.105 31.639-13.105zm24.846 19.898c-6.351-6.351-15.142-10.29-24.846-10.29s-18.485 3.939-24.846 10.29c-6.351 6.36-10.29 15.142-10.29 24.846s3.939 18.495 10.29 24.846c6.36 6.36 15.142 10.29 24.846 10.29s18.495-3.93 24.846-10.29c6.36-6.351 10.29-15.142 10.29-24.846s-3.93-18.486-10.29-24.846z"/><path d="m160.411 154.251h294.846c12.308 0 23.5 5.035 31.608 13.143 8.101 8.109 13.135 19.293 13.135 31.61 0 12.308-5.034 23.491-13.135 31.6-8.108 8.109-19.301 13.144-31.608 13.144h-294.846c-12.308 0-23.491-5.034-31.6-13.143s-13.144-19.293-13.144-31.601c0-12.317 5.035-23.501 13.144-31.61 8.109-8.108 19.292-13.143 31.6-13.143zm294.846 9.608h-294.846c-9.656 0-18.438 3.958-24.808 10.329-6.37 6.37-10.328 15.151-10.328 24.817 0 9.655 3.958 18.437 10.328 24.808 6.37 6.369 15.152 10.327 24.808 10.327h294.846c9.655 0 18.446-3.958 24.816-10.327 6.37-6.371 10.319-15.152 10.319-24.808 0-9.666-3.949-18.447-10.319-24.817-6.37-6.371-15.161-10.329-24.816-10.329z"/><path d="m54.744 154.251c12.356 0 23.549 5.015 31.639 13.105 8.099 8.099 13.115 19.292 13.115 31.648 0 12.355-5.016 23.54-13.115 31.639-8.09 8.09-19.283 13.104-31.639 13.104-12.355 0-23.539-5.015-31.639-13.104-8.099-8.098-13.105-19.292-13.105-31.638 0-12.356 5.006-23.549 13.105-31.648 8.1-8.09 19.283-13.106 31.639-13.106zm24.846 19.898c-6.351-6.351-15.142-10.29-24.846-10.29s-18.485 3.939-24.846 10.29c-6.351 6.36-10.29 15.151-10.29 24.855 0 9.694 3.939 18.485 10.29 24.846 6.36 6.351 15.142 10.289 24.846 10.289s18.495-3.938 24.846-10.289c6.36-6.36 10.29-15.151 10.29-24.846 0-9.703-3.93-18.494-10.29-24.855z"/><path d="m160.411 300.925h294.846c12.308 0 23.5 5.034 31.608 13.143 8.101 8.11 13.135 19.303 13.135 31.61s-5.034 23.501-13.135 31.601c-8.108 8.108-19.301 13.144-31.608 13.144h-294.846c-12.308 0-23.491-5.035-31.6-13.144-8.109-8.1-13.144-19.293-13.144-31.601s5.035-23.5 13.144-31.61c8.109-8.109 19.292-13.143 31.6-13.143zm294.846 9.617h-294.846c-9.656 0-18.438 3.949-24.808 10.319s-10.328 15.152-10.328 24.816c0 9.656 3.958 18.438 10.328 24.808s15.152 10.329 24.808 10.329h294.846c9.655 0 18.446-3.959 24.816-10.329s10.319-15.151 10.319-24.808c0-9.664-3.959-18.446-10.319-24.816-6.37-6.37-15.161-10.319-24.816-10.319z"/><path d="m54.744 300.925c12.356 0 23.549 5.016 31.639 13.114 8.099 8.09 13.115 19.284 13.115 31.639 0 12.347-5.016 23.54-13.115 31.639-8.09 8.1-19.283 13.105-31.639 13.105-12.355 0-23.539-5.006-31.639-13.105-8.099-8.099-13.105-19.293-13.105-31.639 0-12.354 5.006-23.549 13.105-31.639 8.1-8.099 19.283-13.114 31.639-13.114zm24.846 19.907c-6.351-6.36-15.142-10.29-24.846-10.29s-18.485 3.93-24.846 10.29c-6.351 6.352-10.29 15.142-10.29 24.846s3.939 18.485 10.29 24.847c6.36 6.35 15.142 10.29 24.846 10.29s18.495-3.94 24.846-10.29c6.36-6.361 10.29-15.143 10.29-24.847s-3.93-18.494-10.29-24.846z"/></g></svg>