<svg width="175" height="175" viewBox="0 0 175 175" fill="none" xmlns="http://www.w3.org/2000/svg">
<path d="M167.522 0.844604H50.3691V14.2997H121.589V41.442H45.7294C42.0173 41.442 39.0027 44.4583 39.0027 48.1687V130.291C39.0027 134.004 42.019 137.018 45.7294 137.018H80.2956C84.0078 137.018 87.0224 134.002 87.0224 130.291C87.0224 126.579 84.0061 123.565 80.2956 123.565H52.4578V54.6652H128.549C132.261 54.6652 135.276 51.6488 135.276 47.9384V14.0678H161.026V161.378H152.443V174.833H167.521C171.233 174.833 174.248 171.817 174.248 168.107L174.25 7.573C174.25 3.86087 171.233 0.846261 167.521 0.846261L167.522 0.844604Z" fill="black"/>
<path d="M137.596 81.1111H75.8876C72.1755 81.1111 69.1608 84.1274 69.1608 87.8378C69.1608 91.5499 72.1771 94.5645 75.8876 94.5645H103.494V161.376L13.484 161.378V14.0673H25.5476V0.612183H6.75725C3.04512 0.612183 0.0305176 3.62849 0.0305176 7.33892V167.873C0.0305176 171.585 3.04682 174.599 6.75725 174.599H129.013V161.144H116.487L116.485 94.5686H137.363C141.075 94.5686 144.09 91.5523 144.09 87.8419C144.323 84.1298 141.308 81.1135 137.596 81.1135L137.596 81.1111Z" fill="black"/>
</svg>
