<?xml version="1.0" encoding="utf-8"?>
<!-- Generator: Adobe Illustrator 25.4.1, SVG Export Plug-In . SVG Version: 6.00 Build 0)  -->
<svg version="1.1" id="Layer_1" xmlns="http://www.w3.org/2000/svg" xmlns:xlink="http://www.w3.org/1999/xlink" x="0px" y="0px"
	 viewBox="0 0 348 104" style="enable-background:new 0 0 348 104;" xml:space="preserve">
<style type="text/css">
	.st0{display:none;}
	.st1{display:inline;fill:#2E72BB;}
	.st2{display:inline;fill:#EE6A29;}
	.st3{display:inline;fill-rule:evenodd;clip-rule:evenodd;fill:#2E72BB;}
	.st4{display:inline;fill-rule:evenodd;clip-rule:evenodd;fill:#EE6A29;}
	.st5{display:none;fill:none;stroke:#231F20;stroke-width:0.75;stroke-miterlimit:10;}
	.st6{fill:#495054;}
	.st7{fill:#FFFFFF;}
	.st8{fill:#5C843D;}
	.st9{fill:#231F20;}
	.st10{fill:#1F2A35;}
	.st11{fill:none;stroke:#231F20;stroke-miterlimit:10;}
</style>
<g class="st0">
	<path class="st1" d="M268.8,167.2c-1.4,0-2.6-0.3-3.4-1.3c-0.8-0.8-1.3-2-1.3-3.3c0-1.4,0.5-2.6,1.3-3.4c0.8-0.8,2.1-1.3,3.5-1.3
		s2.6,0.3,3.4,1.3c0.8,0.8,1.3,1.9,1.3,3.3c0,1.4-0.5,2.6-1.3,3.4C271.5,166.7,270.3,167.2,268.8,167.2L268.8,167.2z M268.9,160.1
		c-0.6,0-1.2,0.2-1.5,0.7s-0.5,1-0.5,1.9c0,1.6,0.7,2.6,2.1,2.6c1.3,0,2-0.8,2-2.6C270.9,160.9,270.2,160.1,268.9,160.1L268.9,160.1
		z M289.2,167h-2.7v-5c0-1.3-0.5-1.9-1.4-1.9c-0.5,0-0.8,0.2-1,0.6c-0.2,0.3-0.5,0.8-0.5,1.4v4.9h-2.7v-5c0-1.3-0.5-1.9-1.4-1.9
		c-0.5,0-0.8,0.2-1,0.6c-0.2,0.3-0.5,0.8-0.5,1.5v4.8h-2.7v-8.7h2.7v1.4l0,0c0.2-0.5,0.7-0.8,1.2-1.2c0.5-0.2,1-0.5,1.6-0.5
		c1.3,0,2.1,0.6,2.6,1.6c0.7-1,1.6-1.6,2.9-1.6c1.9,0,2.8,1.2,2.8,3.5L289.2,167L289.2,167z M299.2,163.4h-5.7
		c0.1,1.3,0.9,1.9,2.4,1.9c0.9,0,1.9-0.2,2.6-0.7v2c-0.8,0.5-1.9,0.7-3.1,0.7c-1.4,0-2.4-0.3-3.3-1.2c-0.8-0.8-1.2-1.9-1.2-3.3
		c0-1.4,0.5-2.6,1.3-3.4c0.8-0.8,1.9-1.3,3.1-1.3c1.3,0,2.2,0.3,2.9,1.2c0.7,0.8,1,1.7,1,3L299.2,163.4L299.2,163.4z M296.8,161.7
		c0-1.3-0.5-1.9-1.5-1.9c-0.5,0-0.8,0.2-1.2,0.6c-0.3,0.3-0.5,0.8-0.6,1.4L296.8,161.7L296.8,161.7z M354.8,167.2
		c-0.5,0-0.8-0.1-1.2-0.3c-0.2-0.2-0.5-0.6-0.5-1c0-0.3,0.1-0.7,0.5-1c0.3-0.2,0.7-0.3,1.2-0.3s0.8,0.1,1.2,0.3
		c0.2,0.2,0.5,0.6,0.5,1c0,0.3-0.1,0.8-0.5,1C355.8,167.1,355.4,167.2,354.8,167.2L354.8,167.2z M365,166.6
		c-0.6,0.3-1.5,0.5-2.7,0.5c-1.3,0-2.4-0.3-3.3-1.3c-0.8-0.8-1.3-1.9-1.3-3.1c0-1.5,0.5-2.7,1.3-3.5c0.9-0.8,2.1-1.3,3.6-1.3
		c1,0,1.7,0.1,2.2,0.3v2.3c-0.6-0.5-1.2-0.6-1.9-0.6c-0.8,0-1.4,0.2-1.9,0.7s-0.7,1-0.7,1.9c0,0.8,0.2,1.4,0.7,1.9s1,0.7,1.7,0.7
		s1.3-0.2,2-0.6L365,166.6L365,166.6z M370.9,167.2c-1.4,0-2.6-0.3-3.4-1.3c-0.8-0.8-1.3-2-1.3-3.3c0-1.4,0.5-2.6,1.3-3.4
		c0.8-0.8,2.1-1.3,3.5-1.3s2.6,0.3,3.4,1.3c0.8,0.8,1.3,1.9,1.3,3.3c0,1.4-0.5,2.6-1.3,3.4S372.5,167.2,370.9,167.2L370.9,167.2z
		 M371.1,160.1c-0.6,0-1.2,0.2-1.5,0.7s-0.5,1-0.5,1.9c0,1.6,0.7,2.6,2.1,2.6c1.3,0,2-0.8,2-2.6C373,160.9,372.3,160.1,371.1,160.1
		L371.1,160.1z M391.5,167h-2.7v-5c0-1.3-0.5-1.9-1.4-1.9c-0.5,0-0.8,0.2-1,0.6c-0.2,0.3-0.5,0.8-0.5,1.4v4.9h-2.7v-5
		c0-1.3-0.5-1.9-1.4-1.9c-0.5,0-0.8,0.2-1,0.6c-0.2,0.3-0.5,0.8-0.5,1.5v4.8h-2.7v-8.7h2.7v1.4l0,0c0.2-0.5,0.7-0.8,1.2-1.2
		c0.5-0.2,1-0.5,1.6-0.5c1.3,0,2.1,0.6,2.6,1.6c0.7-1,1.6-1.6,2.9-1.6c1.9,0,2.8,1.2,2.8,3.5L391.5,167L391.5,167z"/>
	<path class="st2" d="M303.5,165.9L303.5,165.9v1h-2.6V154h2.7v5.5l0,0c0.7-1,1.6-1.5,2.8-1.5s2,0.3,2.6,1.2
		c0.6,0.8,0.9,1.9,0.9,3.1c0,1.4-0.3,2.6-1,3.5s-1.6,1.3-2.8,1.3C304.9,167.2,304.1,166.7,303.5,165.9L303.5,165.9z M303.5,162.2
		v0.9c0,0.6,0.1,1,0.5,1.4c0.3,0.3,0.7,0.6,1.3,0.6c0.6,0,1-0.2,1.4-0.7c0.3-0.5,0.5-1.2,0.5-2c0-0.7-0.1-1.3-0.5-1.6
		c-0.3-0.3-0.7-0.6-1.3-0.6s-0.9,0.2-1.3,0.6C303.8,161,303.5,161.6,303.5,162.2L303.5,162.2z M318.8,167h-2.6v-1.3l0,0
		c-0.6,0.9-1.4,1.5-2.6,1.5c-0.8,0-1.5-0.2-2-0.7s-0.7-1.2-0.7-2c0-1.6,1-2.7,3-2.9l2.3-0.3c0-0.9-0.5-1.4-1.5-1.4s-2,0.3-2.9,0.9
		v-2.1c0.3-0.2,0.9-0.3,1.5-0.5c0.7-0.1,1.3-0.2,1.7-0.2c2.4,0,3.7,1.3,3.7,3.7L318.8,167L318.8,167z M316.3,163.4v-0.6l-1.6,0.2
		c-0.9,0.1-1.3,0.5-1.3,1.2c0,0.3,0.1,0.6,0.3,0.8c0.2,0.2,0.5,0.2,0.9,0.2c0.5,0,0.9-0.2,1.3-0.5
		C316.1,164.4,316.3,163.9,316.3,163.4L316.3,163.4z M327.8,167H320v-1.2l4.4-5.6h-4v-2h7.3v1.3l-4.2,5.5h4.2L327.8,167L327.8,167z
		 M336.5,167h-2.6v-1.3l0,0c-0.6,0.9-1.4,1.5-2.6,1.5c-0.8,0-1.5-0.2-2-0.7s-0.7-1.2-0.7-2c0-1.6,1-2.7,3-2.9l2.3-0.3
		c0-0.9-0.5-1.4-1.5-1.4s-2.1,0.3-3,0.9v-2.1c0.3-0.2,0.9-0.3,1.5-0.5c0.7-0.1,1.3-0.2,1.7-0.2c2.4,0,3.7,1.3,3.7,3.7v5.3H336.5z
		 M334.1,163.4v-0.6l-1.6,0.2c-0.9,0.1-1.3,0.5-1.3,1.2c0,0.3,0.1,0.6,0.3,0.8c0.2,0.2,0.5,0.2,0.8,0.2c0.5,0,0.9-0.2,1.3-0.5
		C334,164.5,334.1,163.9,334.1,163.4L334.1,163.4z M346,167h-2.6v-1.3l0,0c-0.6,0.9-1.4,1.5-2.6,1.5c-0.8,0-1.5-0.2-2-0.7
		s-0.7-1.2-0.7-2c0-1.6,1-2.7,3-2.9l2.3-0.3c0-0.9-0.5-1.4-1.5-1.4s-2,0.3-3,0.9v-2.1c0.3-0.2,0.9-0.3,1.5-0.5
		c0.7-0.1,1.3-0.2,1.7-0.2c2.4,0,3.7,1.3,3.7,3.7v5.3H346z M343.4,163.4v-0.6l-1.6,0.2c-0.9,0.1-1.3,0.5-1.3,1.2
		c0,0.3,0.1,0.6,0.3,0.8c0.2,0.2,0.5,0.2,0.9,0.2c0.5,0,0.9-0.2,1.3-0.5C343.3,164.4,343.4,163.9,343.4,163.4L343.4,163.4z
		 M353.8,160.7c-0.3-0.2-0.7-0.2-1.2-0.2c-0.6,0-1,0.2-1.4,0.7c-0.3,0.5-0.5,1-0.5,1.7v4.1H348v-8.7h2.7v1.6l0,0
		c0.5-1.2,1.2-1.7,2.3-1.7c0.2,0,0.5,0,0.7,0.1L353.8,160.7L353.8,160.7z"/>
	<polygon class="st3" points="252.1,157.8 255.3,157.8 255.3,159.7 252.1,162.1 	"/>
	<polygon class="st3" points="262.6,157.8 259.6,157.8 259.6,159.7 262.6,162.1 	"/>
	<polygon class="st4" points="257.5,159.4 251.2,163.9 252.4,163.9 252.4,167.3 255,167.3 255,163.7 257.4,162 259.8,163.7 
		259.8,167.3 262.5,167.3 262.5,163.9 263.8,163.9 	"/>
	<path class="st1" d="M292.9,173.9c0.1-0.3,0.5-0.9,0.9-1.7l0.7-1.3h1l-0.8,4.1H294l0.5-2c0.1-0.3,0.1-0.7,0.2-1.2l0,0
		c-0.2,0.5-0.6,1.2-1.2,2.2l-0.6,0.9h-0.5l-0.3-2.2c0-0.3-0.1-0.6-0.1-0.9l0,0c0,0.3-0.1,0.7-0.1,1l-0.5,2.1h-0.7l0.8-4.1h0.9
		l0.2,1.2C292.8,172.5,292.8,173,292.9,173.9L292.9,173.9z M297.4,172.5c-0.1,0-0.2,0-0.2,0.1c-0.1,0-0.1,0.1-0.2,0.1
		c-0.1,0.1-0.1,0.1-0.1,0.2c0,0.1-0.1,0.2-0.1,0.2s-0.1,0.2-0.1,0.3s0,0.2,0,0.3c0,0.2,0,0.3,0.1,0.3c0.1,0.1,0.2,0.1,0.3,0.1
		c0.1,0,0.2,0,0.2-0.1c0.1,0,0.1-0.1,0.2-0.1c0.1-0.1,0.1-0.1,0.1-0.2c0.1-0.1,0.1-0.2,0.1-0.2s0.1-0.2,0.1-0.3s0-0.2,0-0.3
		s0-0.3-0.1-0.3C297.8,172.6,297.6,172.5,297.4,172.5L297.4,172.5z M297.5,171.9c0.1,0,0.3,0,0.5,0.1c0.1,0,0.2,0.1,0.3,0.2
		c0.1,0.1,0.1,0.2,0.2,0.3s0.1,0.3,0.1,0.5s0,0.5-0.1,0.7s-0.1,0.5-0.3,0.7c-0.1,0.2-0.3,0.3-0.5,0.5s-0.5,0.1-0.7,0.1
		c-0.1,0-0.3,0-0.5-0.1c-0.1,0-0.2-0.1-0.3-0.2c-0.1-0.1-0.1-0.2-0.2-0.3s-0.1-0.3-0.1-0.5s0-0.5,0.1-0.8s0.1-0.5,0.3-0.6
		c0.1-0.2,0.3-0.3,0.5-0.5C296.9,171.9,297.1,171.9,297.5,171.9L297.5,171.9z M300.4,174.1c0-0.1,0-0.1-0.1-0.1l-0.1-0.1
		c-0.1,0-0.1-0.1-0.2-0.1s-0.1-0.1-0.2-0.1s-0.1-0.1-0.2-0.1s-0.1-0.1-0.2-0.1c-0.1-0.1-0.1-0.1-0.1-0.2s-0.1-0.2-0.1-0.2
		c0-0.2,0-0.3,0.1-0.5s0.1-0.2,0.2-0.3s0.2-0.1,0.3-0.2c0.1,0,0.2-0.1,0.5-0.1c0.1,0,0.1,0,0.2,0s0.1,0,0.2,0s0.1,0,0.2,0.1
		s0.1,0.1,0.2,0.1l-0.1,0.6c-0.1-0.1-0.3-0.1-0.5-0.1c-0.1,0-0.2,0-0.5,0c-0.1,0-0.2,0-0.3,0.1c-0.1,0.1-0.1,0.1-0.1,0.2
		s0,0.1,0,0.1l0.1,0.1l0.1,0.1c0,0,0.1,0,0.2,0.1c0.1,0,0.1,0.1,0.2,0.1s0.1,0.1,0.2,0.1c0.1,0.1,0.1,0.1,0.1,0.2s0.1,0.2,0.1,0.3
		c0,0.2,0,0.3-0.1,0.5s-0.1,0.2-0.2,0.3s-0.2,0.1-0.5,0.2c-0.1,0-0.3,0.1-0.6,0.1c-0.1,0-0.2,0-0.3,0s-0.2,0-0.2,0
		c-0.1,0-0.1,0-0.2-0.1c-0.1,0-0.1,0-0.1-0.1l0.1-0.6c0.1,0.1,0.2,0.1,0.5,0.1c0.1,0,0.2,0,0.5,0s0.3,0,0.5-0.1
		C300.4,174.2,300.4,174.2,300.4,174.1L300.4,174.1z M303.8,172.6H303l-0.2,1.4v0.1v0.1c0,0.1,0,0.1,0.1,0.1c0,0,0.1,0,0.2,0
		s0.1,0,0.2,0s0.2,0,0.2-0.1l-0.1,0.6c-0.1,0-0.2,0.1-0.3,0.1s-0.2,0-0.3,0c-0.1,0-0.2,0-0.3,0s-0.2-0.1-0.2-0.1s-0.1-0.1-0.1-0.2
		s0-0.2,0-0.2v-0.1c0,0,0-0.1,0-0.2l0.3-1.5h-0.6v-0.7h0.6l0.1-0.8h0.7l-0.1,0.8h0.8L303.8,172.6z M306.2,174.9h-0.8l0.7-3.5h-1.3
		l0.1-0.6h3.4l-0.1,0.6h-1.3L306.2,174.9z M310.1,172.6c-0.1,0-0.1,0-0.2,0s-0.1,0-0.2,0s-0.1,0-0.2,0.1c-0.1,0-0.1,0.1-0.2,0.1
		c-0.1,0.1-0.1,0.1-0.1,0.2c0,0,0,0.1-0.1,0.1c0,0.1,0,0.1-0.1,0.2l-0.3,1.5H308l0.6-3h0.6v0.3l0,0c0.1-0.1,0.2-0.2,0.3-0.3
		s0.3-0.1,0.5-0.1c0.1,0,0.1,0,0.2,0L310.1,172.6z M311.4,175c-0.2,0-0.3,0-0.5-0.1c-0.1,0-0.2-0.1-0.3-0.2
		c-0.1-0.1-0.1-0.2-0.2-0.2c0-0.1-0.1-0.2-0.1-0.3v-0.1c0-0.1,0-0.1,0-0.2l0.3-1.7h0.7l-0.4,1.7c0,0.1,0,0.1,0,0.1v0.1
		c0,0.1,0,0.2,0.1,0.2s0.1,0.1,0.3,0.1c0.1,0,0.2,0,0.2,0c0.1,0,0.1-0.1,0.2-0.1c0.1-0.1,0.1-0.1,0.1-0.2s0.1-0.2,0.1-0.2l0.3-1.9
		h0.7l-0.3,2c0,0.1-0.1,0.2-0.1,0.3c-0.1,0.1-0.1,0.2-0.2,0.3s-0.1,0.3-0.4,0.3C311.8,175,311.6,175,311.4,175L311.4,175z
		 M315,174.1c0-0.1,0-0.1-0.1-0.1l-0.1-0.1c-0.1,0-0.1-0.1-0.2-0.1s-0.1-0.1-0.2-0.1s-0.1-0.1-0.2-0.1s-0.1-0.1-0.2-0.1
		c0-0.1-0.1-0.1-0.1-0.2s0-0.2,0-0.2c0-0.2,0-0.3,0.1-0.5s0.1-0.2,0.2-0.3s0.2-0.1,0.3-0.2c0.1,0,0.2-0.1,0.5-0.1c0.1,0,0.1,0,0.2,0
		s0.1,0,0.2,0s0.1,0,0.2,0.1s0.1,0.1,0.2,0.1l-0.1,0.6c-0.1-0.1-0.3-0.1-0.5-0.1c-0.1,0-0.2,0-0.5,0c-0.1,0-0.2,0-0.3,0.1
		c-0.1,0.1-0.1,0.1-0.1,0.2s0,0.1,0,0.1l0.1,0.1l0.1,0.1c0,0,0.1,0,0.2,0.1c0.1,0,0.1,0.1,0.2,0.1s0.1,0.1,0.2,0.1
		c0.1,0.1,0.1,0.1,0.1,0.2s0.1,0.2,0.1,0.3c0,0.2,0,0.3-0.1,0.5s-0.1,0.2-0.2,0.3s-0.2,0.1-0.5,0.2c-0.1,0-0.3,0.1-0.6,0.1
		c-0.1,0-0.2,0-0.3,0s-0.2,0-0.2,0c-0.1,0-0.1,0-0.2-0.1c-0.1,0-0.1,0-0.1-0.1l0.1-0.6c0.1,0.1,0.2,0.1,0.5,0.1c0.2,0,0.2,0,0.5,0
		s0.3,0,0.5-0.1C314.9,174.2,315,174.2,315,174.1L315,174.1z M318.2,172.6h-0.8l-0.3,1.4v0.1v0.1c0,0.1,0,0.1,0.1,0.1
		c0,0,0.1,0,0.2,0s0.1,0,0.2,0s0.2,0,0.2-0.1l-0.1,0.6c-0.1,0-0.2,0.1-0.3,0.1c-0.1,0-0.2,0-0.3,0s-0.2,0-0.3,0
		c-0.1,0-0.2-0.1-0.2-0.1s-0.1-0.1-0.1-0.2s0-0.2,0-0.2v-0.1c0,0,0-0.1,0-0.2l0.3-1.5h-0.6l0.1-0.6h0.6l0.1-0.8h0.7l-0.1,0.8h0.8
		L318.2,172.6z M320.5,172.7c0-0.1,0-0.1-0.1-0.2c-0.1,0-0.1-0.1-0.2-0.1s-0.1,0-0.2,0s-0.1,0.1-0.2,0.1c-0.1,0.1-0.1,0.1-0.2,0.2
		s-0.1,0.2-0.1,0.3c0.2,0,0.5,0,0.6,0s0.2-0.1,0.3-0.1C320.5,172.9,320.5,172.8,320.5,172.7C320.5,172.8,320.5,172.8,320.5,172.7
		L320.5,172.7z M321.3,172.7c0,0.2,0,0.3-0.1,0.5c-0.1,0.1-0.2,0.2-0.3,0.3c-0.1,0.1-0.3,0.1-0.6,0.2c-0.2,0-0.5,0.1-0.8,0.1h-0.1
		l0,0c0,0.1,0,0.2,0,0.2c0,0.1,0.1,0.1,0.1,0.2c0.1,0,0.1,0.1,0.2,0.1s0.1,0,0.2,0s0.3,0,0.5-0.1c0.1,0,0.3-0.1,0.5-0.1l-0.1,0.7
		c-0.1,0.1-0.2,0.1-0.5,0.1c-0.1,0-0.3,0-0.5,0s-0.5,0-0.6-0.1s-0.2-0.1-0.5-0.2c-0.1-0.1-0.2-0.2-0.2-0.3c-0.1-0.1-0.1-0.3-0.1-0.5
		s0-0.3,0-0.5s0.1-0.3,0.1-0.5c0.1-0.1,0.1-0.2,0.2-0.3s0.2-0.2,0.3-0.3c0.1-0.1,0.2-0.1,0.5-0.2c0.3-0.1,0.3-0.1,0.5-0.1
		c0.1,0,0.2,0,0.5,0.1c0.1,0,0.2,0.1,0.3,0.1c0.1,0.1,0.1,0.1,0.2,0.2C321.2,172.5,321.3,172.6,321.3,172.7L321.3,172.7z
		 M324.1,174.2C324.1,174.3,324.1,174.3,324.1,174.2c0.1,0.1,0.1,0.1,0.1,0.1s0.1,0,0.2,0l-0.1,0.6c-0.1,0-0.1,0-0.2,0s-0.1,0-0.1,0
		c-0.1,0-0.2,0-0.3-0.1c-0.1-0.1-0.1-0.2-0.1-0.3l0,0c-0.1,0.2-0.2,0.3-0.5,0.3c-0.1,0.1-0.3,0.1-0.5,0.1c-0.1,0-0.2,0-0.3-0.1
		c-0.1-0.1-0.2-0.1-0.2-0.2c-0.1-0.1-0.1-0.2-0.1-0.3s-0.1-0.2-0.1-0.5s0-0.3,0-0.5s0.1-0.3,0.1-0.5s0.1-0.3,0.2-0.5
		c0.1-0.1,0.1-0.2,0.2-0.3s0.2-0.2,0.3-0.2c0.1-0.1,0.2-0.1,0.5-0.1s0.2,0,0.5,0.1s0.2,0.1,0.3,0.2l0,0l0.1-1.5h0.7L324.1,174.2
		C324.1,174.1,324.1,174.1,324.1,174.2L324.1,174.2L324.1,174.2z M323.6,172.7L323.6,172.7C323.5,172.6,323.5,172.6,323.6,172.7
		c-0.1-0.1-0.2-0.1-0.2-0.2h-0.1c-0.1,0-0.2,0-0.2,0.1c-0.1,0-0.1,0.1-0.2,0.2c-0.1,0.1-0.1,0.2-0.1,0.2c0,0.1-0.1,0.2-0.1,0.3
		s-0.1,0.2-0.1,0.3s0,0.2,0,0.2c0,0.2,0,0.3,0.1,0.3s0.1,0.1,0.2,0.1s0.2,0,0.3-0.1c0.1-0.1,0.2-0.2,0.2-0.3
		c0.1-0.1,0.1-0.3,0.2-0.6L323.6,172.7L323.6,172.7z M327,174.9h-0.7l0.8-4.1h1c0.3,0,0.7,0,0.9,0.1s0.5,0.2,0.6,0.3
		s0.1,0.3,0.1,0.6s0,0.3-0.1,0.6s-0.2,0.3-0.3,0.5c-0.1,0.1-0.3,0.2-0.6,0.3c-0.2,0.1-0.5,0.1-0.8,0.1c-0.1,0-0.3,0-0.5,0L327,174.9
		z M327.4,172.7c0.1,0,0.2,0,0.3,0c0.2,0,0.3,0,0.5-0.1c0.1,0,0.2-0.1,0.3-0.1c0.1-0.1,0.1-0.1,0.2-0.2c0-0.1,0.1-0.2,0.1-0.3
		s0-0.2-0.1-0.2s-0.1-0.1-0.2-0.1c0,0-0.1,0-0.2,0s-0.2,0-0.3,0h-0.5L327.4,172.7z M330.8,170.5h0.7l-0.7,3.5c0,0.1,0,0.1,0,0.2
		c0,0.1,0,0.1,0,0.1h0.1c0,0,0.1,0,0.2,0l-0.1,0.6c0,0-0.1,0-0.2,0s-0.1,0-0.2,0c-0.2,0-0.3,0-0.5-0.1c-0.1-0.1-0.1-0.2-0.1-0.5
		c0-0.1,0-0.2,0-0.3L330.8,170.5z M334.1,174.2C334.1,174.3,334.1,174.3,334.1,174.2c0.1,0.1,0.1,0.1,0.1,0.1s0.1,0,0.2,0l-0.1,0.6
		c-0.1,0-0.2,0-0.3,0c-0.1,0-0.2,0-0.3-0.1c-0.1-0.1-0.1-0.2-0.1-0.3l0,0c-0.1,0.2-0.2,0.3-0.5,0.3c-0.1,0.1-0.3,0.1-0.5,0.1
		c-0.1,0-0.2,0-0.3-0.1c-0.1-0.1-0.2-0.1-0.2-0.2c-0.1-0.1-0.1-0.2-0.1-0.3s-0.1-0.2-0.1-0.5s0-0.3,0-0.5s0.1-0.3,0.1-0.5
		s0.1-0.3,0.2-0.5c0.1-0.1,0.1-0.2,0.2-0.3s0.2-0.2,0.3-0.2c0.1-0.1,0.2-0.1,0.5-0.1c0.2,0,0.2,0,0.5,0.1s0.2,0.1,0.3,0.2l0,0
		l0.1-0.2h0.6l-0.5,2.1C334.2,174.1,334.2,174.1,334.1,174.2L334.1,174.2L334.1,174.2z M333.8,172.7
		C333.6,172.7,333.6,172.7,333.8,172.7c-0.1-0.1-0.1-0.1-0.2-0.1c0,0-0.1,0-0.1-0.1c-0.1,0-0.1,0-0.1,0c-0.1,0-0.1,0-0.2,0.1
		s-0.1,0.1-0.2,0.2c-0.1,0.1-0.1,0.2-0.1,0.2s-0.1,0.2-0.1,0.3s-0.1,0.2-0.1,0.3s0,0.2,0,0.2c0,0.2,0,0.3,0.1,0.3
		c0.1,0.1,0.1,0.1,0.2,0.1s0.2,0,0.3-0.1c0.1-0.1,0.2-0.2,0.2-0.2c0.1-0.1,0.1-0.2,0.1-0.2c0-0.1,0.1-0.2,0.1-0.3L333.8,172.7z
		 M337.1,172.6h-0.8l-0.2,1.4v0.1v0.1c0,0.1,0,0.1,0.1,0.1c0,0,0.1,0,0.2,0s0.1,0,0.2,0s0.2,0,0.2-0.1l-0.1,0.6
		c-0.1,0-0.2,0.1-0.3,0.1c-0.1,0-0.2,0-0.3,0s-0.2,0-0.3,0c-0.1,0-0.2-0.1-0.2-0.1c-0.1-0.1-0.1-0.1-0.1-0.2s0-0.2,0-0.2v-0.1
		c0,0,0-0.1,0-0.2l0.3-1.5h-0.6l0.1-0.6h0.6l0.1-0.8h0.7l-0.1,0.8h0.8L337.1,172.6z M338.9,172h0.8l-0.1,0.6h-0.8l-0.6,2.7
		c0,0.1-0.1,0.2-0.1,0.3s-0.1,0.2-0.1,0.2c-0.1,0.2-0.2,0.3-0.5,0.3c-0.2,0.1-0.5,0.1-0.7,0.1c-0.1,0-0.2,0-0.3,0s-0.2,0-0.2-0.1
		l0.1-0.6c0.1,0,0.1,0,0.2,0.1c0.1,0,0.1,0,0.2,0s0.2,0,0.2,0s0.1-0.1,0.2-0.1c0.1-0.1,0.1-0.1,0.1-0.2c0-0.1,0.1-0.2,0.1-0.3
		l0.5-2.6h-0.6l0.1-0.6h0.5l0.1-0.3c0-0.1,0.1-0.2,0.1-0.3s0.1-0.2,0.1-0.2c0.1-0.1,0.1-0.2,0.2-0.2c0.1-0.1,0.1-0.1,0.2-0.2
		c0.1,0,0.2-0.1,0.2-0.1c0.1,0,0.2,0,0.3,0c0.1,0,0.2,0,0.3,0s0.2,0,0.2,0.1l-0.1,0.6c-0.1,0-0.2,0-0.2-0.1c-0.1,0-0.1,0-0.2,0
		s-0.2,0-0.2,0.1c-0.1,0-0.1,0.1-0.2,0.2c0,0-0.1,0.1-0.1,0.2s0,0.1-0.1,0.2L338.9,172z M341.3,172.5c-0.1,0-0.2,0-0.2,0.1
		c-0.1,0-0.1,0.1-0.2,0.1c-0.1,0.1-0.1,0.1-0.1,0.2c0,0.1-0.1,0.2-0.1,0.2c0,0.1-0.1,0.2-0.1,0.3s0,0.2,0,0.3c0,0.2,0,0.3,0.1,0.3
		c0.1,0.1,0.2,0.1,0.3,0.1c0.1,0,0.2,0,0.2-0.1c0.1,0,0.1-0.1,0.2-0.1c0.1-0.1,0.1-0.1,0.1-0.2c0.1-0.1,0.1-0.2,0.1-0.2
		s0.1-0.2,0.1-0.3s0-0.2,0-0.3s0-0.3-0.1-0.3C341.6,172.6,341.4,172.5,341.3,172.5L341.3,172.5z M341.3,171.9c0.1,0,0.3,0,0.5,0.1
		c0.1,0,0.2,0.1,0.3,0.2c0.1,0.1,0.1,0.2,0.2,0.3s0.1,0.3,0.1,0.5s0,0.5-0.1,0.7s-0.1,0.5-0.3,0.7c-0.1,0.2-0.3,0.3-0.5,0.5
		s-0.5,0.1-0.7,0.1c-0.1,0-0.3,0-0.5-0.1c-0.1,0-0.2-0.1-0.3-0.2c-0.1-0.1-0.1-0.2-0.2-0.3s-0.1-0.3-0.1-0.5s0-0.5,0.1-0.8
		s0.1-0.5,0.3-0.6c0.1-0.2,0.3-0.3,0.5-0.5C340.9,171.9,341.1,171.9,341.3,171.9L341.3,171.9z M345.1,172.6c-0.1,0-0.1,0-0.2,0
		s-0.1,0-0.2,0s-0.1,0-0.2,0.1c-0.1,0-0.1,0.1-0.2,0.1c-0.1,0.1-0.1,0.1-0.1,0.2c0,0,0,0.1-0.1,0.1c0,0.1,0,0.1-0.1,0.2l-0.3,1.5
		H343l0.6-3h0.6v0.3l0,0c0.1-0.1,0.2-0.2,0.3-0.3s0.3-0.1,0.5-0.1c0.1,0,0.1,0,0.2,0L345.1,172.6z M348,172.5
		c0.1-0.1,0.2-0.2,0.5-0.3c0.1-0.1,0.3-0.1,0.6-0.1c0.1,0,0.2,0,0.3,0.1c0.1,0,0.2,0.1,0.2,0.1s0.1,0.1,0.1,0.2s0.1,0.2,0.1,0.3
		s0,0.1,0,0.2s0,0.2,0,0.2l-0.3,1.7h-0.9l0.3-1.7c0-0.1,0-0.2,0-0.2c0-0.1,0-0.1,0-0.1v-0.1c0,0,0-0.1-0.1-0.1s-0.1,0-0.1-0.1h-0.1
		c-0.1,0-0.2,0-0.3,0.1c-0.1,0.1-0.2,0.1-0.2,0.2c0,0.1-0.1,0.1-0.1,0.2c0,0.1-0.1,0.2-0.1,0.2l-0.3,1.5h-0.7l0.3-1.7
		c0-0.1,0-0.2,0-0.2c0-0.1,0-0.1,0-0.1v-0.1c0,0,0-0.1-0.1-0.1s-0.1,0-0.1-0.1h-0.1c-0.1,0-0.2,0-0.3,0.1s-0.2,0.1-0.2,0.2
		s-0.1,0.1-0.1,0.2s-0.1,0.2-0.1,0.3l-0.3,1.5h-0.5l0.6-3h0.6v0.3l0,0c0-0.1,0.1-0.1,0.1-0.2s0.1-0.1,0.2-0.1s0.1-0.1,0.2-0.1
		s0.1,0,0.2,0c0.2,0,0.3,0,0.5,0.1C347.8,172.1,347.9,172.2,348,172.5L348,172.5L348,172.5z"/>
	<path class="st2" d="M353.2,172.6c0.1,0,0.2,0,0.3,0s0.1,0,0.2-0.1c0.1,0,0.2-0.1,0.2-0.2c0.1-0.1,0.1-0.2,0.1-0.3s0-0.1-0.1-0.2
		c0-0.1-0.1-0.1-0.2-0.1s-0.1,0-0.2,0s-0.1,0-0.2,0h-0.4l-0.2,1C352.6,172.6,353.2,172.6,353.2,172.6z M352.5,173.2l-0.2,1.2h0.3
		c0.3,0,0.6,0,0.8-0.1c0.1-0.1,0.3-0.1,0.3-0.2c0.1-0.1,0.1-0.2,0.1-0.3s0-0.1-0.1-0.2c-0.1-0.1-0.1-0.1-0.2-0.1s-0.1,0-0.1,0
		s-0.1,0-0.2,0L352.5,173.2L352.5,173.2z M354.8,171.9c0,0.2-0.1,0.5-0.2,0.6s-0.3,0.2-0.6,0.3l0,0c0.1,0,0.1,0.1,0.2,0.1
		c0.1,0.1,0.1,0.1,0.1,0.2c0.1,0.1,0.1,0.1,0.1,0.2s0,0.1,0,0.2c0,0.2-0.1,0.5-0.2,0.7s-0.5,0.3-0.7,0.5c-0.1,0-0.3,0.1-0.5,0.1
		s-0.5,0-0.6,0h-1.2l0.8-4.1h1.2c0.1,0,0.3,0,0.5,0c0.1,0,0.2,0,0.3,0.1c0.2,0.1,0.3,0.2,0.5,0.3
		C354.8,171.4,354.8,171.6,354.8,171.9L354.8,171.9z M356.5,175c-0.2,0-0.3,0-0.5-0.1c-0.1,0-0.2-0.1-0.3-0.2
		c-0.1-0.1-0.1-0.2-0.2-0.2c0-0.1-0.1-0.2-0.1-0.3v-0.1c0-0.1,0-0.1,0-0.2l0.3-1.7h0.7l-0.3,1.9c0,0.1,0,0.1,0,0.1v0.1
		c0,0.1,0,0.2,0.1,0.2s0.1,0.1,0.3,0.1c0.1,0,0.2,0,0.2,0c0.1,0,0.1-0.1,0.2-0.1s0.1-0.1,0.1-0.2s0.1-0.2,0.1-0.2l0.3-1.9h0.7
		l-0.5,2c0,0.1-0.1,0.2-0.1,0.3c-0.1,0.1-0.1,0.2-0.2,0.3s-0.2,0.2-0.5,0.2C356.9,175,356.8,175,356.5,175L356.5,175z M358.8,172
		h0.7l0.2,1.3c0.1,0.2,0.1,0.6,0.1,0.8l0,0c0.1-0.2,0.2-0.5,0.3-0.7l0.7-1.4h0.8l-1.7,3c-0.1,0.2-0.2,0.3-0.3,0.6
		c-0.1,0.2-0.2,0.3-0.3,0.5c-0.1,0.1-0.1,0.2-0.3,0.2c-0.1,0.1-0.3,0.1-0.6,0.1c-0.1,0-0.2,0-0.3,0l0.1-0.6c0.1,0,0.1,0,0.2,0
		s0.2,0,0.3-0.1c0.1,0,0.2-0.1,0.2-0.2c0.1-0.1,0.1-0.2,0.2-0.3s0.1-0.2,0.2-0.5L358.8,172z M361.8,174.1h0.8l-0.1,0.8h-0.8
		L361.8,174.1z M366.6,173.6c0-0.1,0-0.2-0.1-0.2c-0.1-0.1-0.1-0.1-0.2-0.1s-0.1-0.1-0.2-0.1s-0.2-0.1-0.3-0.1s-0.2-0.1-0.3-0.1
		c-0.1-0.1-0.2-0.1-0.2-0.2s-0.1-0.2-0.2-0.2s-0.1-0.2-0.1-0.3c0-0.2,0-0.3,0.1-0.6c0.1-0.1,0.1-0.2,0.3-0.3s0.2-0.2,0.5-0.2
		c0.2-0.1,0.3-0.1,0.6-0.1s0.5,0,0.7,0.1s0.5,0.1,0.6,0.2l-0.1,0.6c-0.2-0.1-0.5-0.1-0.6-0.2c-0.2,0-0.3-0.1-0.6-0.1
		c-0.3,0-0.5,0.1-0.6,0.1c-0.1,0.1-0.2,0.2-0.2,0.3s0,0.2,0.1,0.2c0,0.1,0.1,0.1,0.1,0.1s0.1,0.1,0.2,0.1s0.1,0.1,0.2,0.1
		s0.2,0.1,0.3,0.1c0.1,0.1,0.2,0.1,0.3,0.2s0.2,0.2,0.2,0.2c0.1,0.1,0.1,0.2,0.1,0.5c0,0.2,0,0.5-0.1,0.6c-0.1,0.2-0.2,0.3-0.3,0.5
		c-0.1,0.1-0.3,0.2-0.6,0.2c-0.2,0.1-0.5,0.1-0.7,0.1c-0.1,0-0.2,0-0.5,0c-0.1,0-0.2,0-0.3-0.1c-0.1,0-0.2-0.1-0.2-0.1
		s-0.1-0.1-0.2-0.1l0.1-0.6c0.1,0.1,0.3,0.1,0.5,0.2s0.5,0.1,0.6,0.1s0.2,0,0.5-0.1c0.1,0,0.2-0.1,0.3-0.1c0.1-0.1,0.1-0.1,0.2-0.2
		C366.5,173.9,366.6,173.7,366.6,173.6L366.6,173.6z M370,172.7c0-0.1,0-0.1-0.1-0.2s-0.1-0.1-0.2-0.1s-0.1,0-0.2,0
		s-0.1,0.1-0.2,0.1c-0.1,0.1-0.1,0.1-0.2,0.2s-0.1,0.2-0.1,0.3c0.2,0,0.3,0,0.6,0c0.1,0,0.2-0.1,0.3-0.1
		C370,172.9,370,172.8,370,172.7C370,172.8,370,172.8,370,172.7L370,172.7z M370.8,172.7c0,0.2,0,0.3-0.1,0.5s-0.2,0.2-0.3,0.3
		s-0.3,0.1-0.6,0.2c-0.2,0-0.5,0.1-0.8,0.1h-0.1l0,0c0,0.1,0,0.2,0,0.2c0,0.1,0.1,0.1,0.1,0.2c0.1,0,0.1,0.1,0.2,0.1s0.2,0,0.2,0
		c0.1,0,0.3,0,0.5-0.1c0.1,0,0.3-0.1,0.5-0.1l-0.1,0.7c-0.1,0.1-0.2,0.1-0.5,0.1s-0.3,0-0.5,0s-0.5,0-0.6-0.1s-0.3-0.1-0.5-0.2
		c-0.1-0.1-0.2-0.2-0.2-0.3s-0.1-0.3-0.1-0.5s0-0.3,0.1-0.5c0-0.1,0.1-0.3,0.1-0.5c0.1-0.1,0.1-0.2,0.2-0.3s0.2-0.2,0.3-0.3
		s0.2-0.1,0.5-0.2s0.3-0.1,0.5-0.1c0.1,0,0.3,0,0.5,0.1c0.1,0,0.2,0.1,0.3,0.1c0.1,0.1,0.1,0.1,0.2,0.2
		C370.8,172.5,370.8,172.6,370.8,172.7L370.8,172.7z M371.8,170.5h0.7l-0.7,3.5c0,0.1,0,0.1,0,0.2c0,0.1,0,0.1,0.1,0.1h0.1
		c0,0,0.1,0,0.2,0l-0.1,0.6H372c-0.1,0-0.1,0-0.2,0c-0.2,0-0.3,0-0.5-0.1c-0.1-0.1-0.1-0.2-0.1-0.5c0-0.1,0-0.2,0-0.3L371.8,170.5z
		 M373.5,170.5h0.7l-0.7,3.5c0,0.1,0,0.1,0,0.2c0,0.1,0,0.1,0.1,0.1h0.1c0,0,0.1,0,0.2,0v0.6h-0.1c-0.1,0-0.1,0-0.2,0
		c-0.2,0-0.3,0-0.5-0.1c-0.1-0.1-0.1-0.2-0.1-0.5c0-0.1,0-0.2,0-0.3L373.5,170.5z M374.8,174.1h0.8l-0.1,0.8h-0.8L374.8,174.1z
		 M378.3,174.9h-0.7l0.8-4.1h1.2c0.1,0,0.3,0,0.5,0c0.1,0,0.2,0,0.3,0.1c0.2,0.1,0.5,0.2,0.6,0.3c0.1,0.2,0.2,0.3,0.2,0.6
		s0,0.3-0.1,0.5c0,0.1-0.1,0.2-0.2,0.3s-0.2,0.2-0.3,0.3c-0.1,0.1-0.3,0.1-0.6,0.2l0,0l0.9,1.8h-0.8l-0.8-1.6h-0.5L378.3,174.9z
		 M378.8,172.7h0.2c0.1,0,0.2,0,0.3,0s0.2,0,0.2-0.1c0.2,0,0.3-0.1,0.5-0.2c0.1-0.1,0.1-0.2,0.1-0.5c0-0.1,0-0.2-0.1-0.2
		c0-0.1-0.1-0.1-0.2-0.1c0,0-0.1,0-0.2,0s-0.1,0-0.2,0h-0.6L378.8,172.7L378.8,172.7z M383.4,172.7c0-0.1,0-0.1-0.1-0.2
		c-0.1,0-0.1-0.1-0.2-0.1s-0.1,0-0.2,0s-0.1,0.1-0.2,0.1c-0.1,0.1-0.1,0.1-0.2,0.2c-0.1,0.1-0.1,0.2-0.1,0.3c0.2,0,0.5,0,0.6,0
		s0.2-0.1,0.3-0.1C383.4,172.9,383.4,172.8,383.4,172.7C383.4,172.8,383.4,172.8,383.4,172.7L383.4,172.7z M384.1,172.7
		c0,0.2,0,0.3-0.1,0.5s-0.2,0.2-0.3,0.3s-0.3,0.1-0.6,0.2c-0.2,0-0.5,0.1-0.8,0.1h-0.1l0,0c0,0.1,0,0.2,0,0.2c0,0.1,0.1,0.1,0.1,0.2
		c0.1,0,0.1,0.1,0.2,0.1s0.2,0,0.2,0c0.1,0,0.3,0,0.5-0.1c0.1,0,0.3-0.1,0.5-0.1l-0.1,0.7c-0.1,0.1-0.2,0.1-0.5,0.1
		c-0.1,0-0.3,0-0.5,0s-0.5,0-0.6-0.1s-0.2-0.1-0.5-0.2c-0.1-0.1-0.2-0.2-0.2-0.3c-0.1-0.1-0.1-0.3-0.1-0.5s0-0.3,0-0.5
		s0.1-0.3,0.1-0.5c0.1-0.1,0.1-0.2,0.2-0.3s0.2-0.2,0.3-0.3s0.2-0.1,0.5-0.2s0.3-0.1,0.5-0.1c0.1,0,0.2,0,0.5,0.1
		c0.1,0,0.2,0.1,0.3,0.1c0.1,0.1,0.1,0.1,0.2,0.2C384.1,172.5,384.1,172.6,384.1,172.7L384.1,172.7z M385,174.9h-0.7l0.6-3h0.6v0.3
		l0,0c0.1-0.1,0.1-0.1,0.1-0.2c0.1-0.1,0.1-0.1,0.2-0.1s0.1-0.1,0.2-0.1s0.2,0,0.2,0c0.1,0,0.2,0,0.3,0.1c0.1,0,0.2,0.1,0.2,0.1
		c0.1,0.1,0.1,0.1,0.2,0.2c0,0.1,0.1,0.2,0.1,0.3s0,0.1,0,0.2s0,0.2,0,0.2l-0.3,1.7H386l0.3-1.9c0-0.1,0-0.1,0-0.2v-0.1
		c0-0.1,0-0.2-0.1-0.2c-0.1-0.1-0.1-0.1-0.2-0.1s-0.2,0-0.5,0.1s-0.2,0.2-0.3,0.3v0.1v0.3v0.1c0,0.1,0,0.1,0,0.2L385,174.9z
		 M389.9,172.6h-0.8l-0.2,1.4v0.1v0.1c0,0.1,0,0.1,0.1,0.1c0,0,0.1,0,0.2,0s0.1,0,0.2,0s0.2,0,0.2-0.1l-0.1,0.6
		c-0.1,0-0.2,0.1-0.3,0.1s-0.2,0-0.3,0c-0.1,0-0.2,0-0.3,0s-0.2-0.1-0.2-0.1c-0.1-0.1-0.1-0.1-0.1-0.2s0-0.2,0-0.2v-0.1
		c0,0,0-0.1,0-0.2l0.3-1.5H388l0.1-0.6h0.6l0.1-0.8h0.7l-0.1,0.8h0.8L389.9,172.6z M390.5,174.1h0.8l-0.1,0.8h-0.8L390.5,174.1z"/>
	<path class="st2" d="M392.3,155.7L392.3,155.7C392.3,155.8,392.3,155.8,392.3,155.7C392.3,155.8,392.3,155.8,392.3,155.7
		L392.3,155.7l-0.5,0.1v1.4l0,0l0,0c0,0,0,0-0.1,0s0,0-0.1,0h-0.1c0,0,0,0-0.1,0l0,0l0,0v-1.4h-0.5l0,0l0,0l0,0c0,0,0,0,0-0.1v-0.1
		l0,0l0,0l0,0L392.3,155.7L392.3,155.7L392.3,155.7C392.3,155.5,392.3,155.5,392.3,155.7C392.3,155.5,392.3,155.7,392.3,155.7
		L392.3,155.7z M394.6,157.3L394.6,157.3L394.6,157.3C394.6,157.3,394.5,157.3,394.6,157.3c-0.1,0-0.1,0.1-0.2,0.1h-0.1
		c0,0,0,0-0.1,0l0,0l0,0v-1.5l0,0l-0.5,1.5l0,0l0,0c0,0,0,0-0.1,0c0,0,0,0-0.1,0h-0.1c0,0,0,0-0.1,0l0,0l0,0l-0.5-1.5l0,0v1.5l0,0
		l0,0c0,0,0,0-0.1,0s0,0-0.1,0h-0.1l0,0l0,0l0,0v-1.6v-0.1h0.1h0.2h0.1h0.1c0,0,0,0,0.1,0.1v0.1l0.3,1l0,0l0.5-1v-0.1v-0.1
		c0,0,0,0,0.1,0h0.1h0.2c0,0,0,0,0.1,0l0,0l0,0c0,0,0,0,0,0.1L394.6,157.3L394.6,157.3z"/>
</g>
<line class="st5" x1="27.5" y1="54.9" x2="320.5" y2="54.9"/>
<g id="Layer_2_00000118364256778145906940000011040241729218132662_">
</g>
<g>
	<g>
		<path class="st6" d="M591.7-54.3V-57c0-0.5,0-0.9,0-1.1c0-0.1-0.1-0.4-0.3-0.5c-0.1-0.1-0.3-0.4-0.4-0.4c-0.4-0.4-0.9-0.5-1.6-0.5
			c-0.9,0-1.6,0.3-2,0.8v1.3c0.7-0.7,1.3-1.1,2-1.1c0.8,0,1.1,0.4,1.1,1.1v0.4l-1.6,0.5c-0.5,0.1-0.9,0.4-1.2,0.8
			c-0.3,0.3-0.4,0.7-0.4,1.1c0,0.4,0.1,0.8,0.4,1.1c0.3,0.3,0.7,0.4,1.1,0.4c0.5,0,1.2-0.1,1.6-0.7c0.1,0.4,0.4,0.7,0.9,0.7
			c0.1,0,0.4,0,0.5-0.1c0.1,0,0.4-0.1,0.7-0.4v-0.8c-0.3,0.3-0.5,0.4-0.7,0.4C591.7-54,591.7-54.1,591.7-54.3 M590.5-54.4
			c-0.4,0.3-0.7,0.5-1.1,0.5c-0.3,0-0.5-0.1-0.7-0.3c-0.1-0.1-0.3-0.4-0.3-0.7s0.1-0.4,0.3-0.7c0.1-0.1,0.4-0.4,0.9-0.5l0.8-0.3
			V-54.4z"/>
		<path class="st6" d="M591.3-52.9c-0.5,0-0.9-0.3-1.1-0.5c-0.5,0.3-1.1,0.5-1.6,0.5c-0.5,0-0.9-0.1-1.2-0.5
			c-0.3-0.3-0.5-0.7-0.5-1.2c0-0.4,0.1-0.8,0.5-1.2c0.3-0.3,0.7-0.5,1.2-0.8l1.5-0.5v-0.3c0-0.7-0.3-0.9-0.9-0.9s-1.2,0.3-1.9,0.9
			l-0.3,0.3v-1.9l0,0c0.5-0.5,1.2-0.9,2.2-0.9c0.7,0,1.3,0.1,1.8,0.5c0.1,0.1,0.3,0.3,0.4,0.5c0.1,0.1,0.1,0.4,0.3,0.7
			c0,0.3,0,0.5,0,1.1v2.7c0,0.1,0,0.1,0,0.1s0.3,0,0.5-0.3l0.3-0.1v1.2h-0.1c-0.3,0.1-0.5,0.3-0.7,0.4
			C591.7-52.9,591.6-52.9,591.3-52.9 M590.5-54v0.3c0,0.3,0.1,0.5,0.8,0.5c0.1,0,0.3,0,0.4-0.1c0.1,0,0.4-0.1,0.5-0.3V-54
			c0,0.1-0.3,0.1-0.4,0.1c-0.1,0-0.4,0-0.4-0.5v-2.7c0-0.4,0-0.8,0-1.1c0-0.1-0.1-0.4-0.1-0.5c-0.1-0.1-0.3-0.3-0.4-0.4
			c-0.4-0.3-0.9-0.5-1.5-0.5c-0.8,0-1.5,0.3-1.9,0.8v0.8c0.5-0.5,1.2-0.8,1.8-0.8c0.8,0,1.3,0.4,1.3,1.3v0.4l-1.8,0.5
			c-0.5,0.1-0.8,0.4-1.1,0.7c-0.3,0.3-0.4,0.5-0.4,0.9c0,0.4,0.1,0.7,0.4,0.9c0.3,0.3,0.5,0.4,0.9,0.4
			C589.3-53.6,589.8-53.7,590.5-54L590.5-54z M589.3-53.9c-0.3,0-0.5-0.1-0.8-0.3c-0.1-0.1-0.3-0.4-0.3-0.8c0-0.3,0.1-0.5,0.3-0.8
			c0.1-0.1,0.5-0.4,0.9-0.5l1.1-0.4v2.2l0,0C590.2-54,589.8-53.9,589.3-53.9 M590.2-56l-0.7,0.3c-0.5,0.1-0.7,0.4-0.8,0.4
			c-0.1,0.1-0.3,0.3-0.3,0.5c0,0.1,0,0.4,0.1,0.5c0.1,0.1,0.3,0.3,0.5,0.3c0.4,0,0.7-0.1,0.9-0.4L590.2-56L590.2-56z"/>
		<path class="st6" d="M598.2-59.4c-0.5-0.1-0.9-0.3-1.3-0.3c-0.9,0-1.6,0.3-2.2,0.9c-0.5,0.5-0.8,1.3-0.8,2.3s0.3,1.8,0.8,2.3
			c0.5,0.5,1.3,0.9,2.2,0.9h2.7v-9.6h-1.2L598.2-59.4L598.2-59.4z M598.2-54.3h-0.9c-0.5,0-0.9,0-1.2-0.1s-0.4-0.3-0.7-0.4
			c-0.3-0.4-0.5-0.8-0.5-1.5c0-0.7,0.1-1.2,0.5-1.6c0.4-0.4,0.8-0.5,1.5-0.5c0.4,0,0.8,0.1,1.2,0.3L598.2-54.3L598.2-54.3z"/>
		<path class="st6" d="M599.7-53.1h-2.8c-0.9,0-1.8-0.3-2.3-0.9c-0.5-0.5-0.8-1.5-0.8-2.4c0-0.9,0.3-1.8,0.9-2.4
			c0.7-0.7,1.3-0.9,2.3-0.9c0.4,0,0.8,0.1,1.2,0.3v-3.4h1.6L599.7-53.1L599.7-53.1z M596.8-59.4c-0.8,0-1.5,0.3-2.2,0.8
			c-0.5,0.5-0.8,1.3-0.8,2.2c0,0.9,0.3,1.8,0.8,2.3c0.5,0.5,1.2,0.8,2.2,0.8h2.4v-9.2h-0.9v3.5l-0.1-0.3
			C597.6-59.4,597.2-59.4,596.8-59.4 M598.3-54.1h-1.1c-0.5,0-0.9,0-1.2-0.1c-0.3-0.1-0.4-0.3-0.7-0.4c-0.4-0.4-0.5-0.9-0.5-1.6
			c0-0.7,0.1-1.3,0.5-1.8c0.4-0.4,0.9-0.7,1.6-0.7c0.4,0,0.8,0.1,1.2,0.3h0.1V-54.1z M597-58.3c-0.5,0-1.1,0.1-1.3,0.5
			s-0.5,0.9-0.5,1.5c0,0.7,0.1,1.1,0.4,1.3c0.1,0.1,0.4,0.3,0.5,0.4c0.1,0.1,0.5,0.1,1.1,0.1h0.8V-58
			C597.6-58.3,597.4-58.3,597-58.3"/>
		<path class="st6" d="M560.1-59.3c-0.3-0.3-0.7-0.3-1.1-0.3c-0.8,0-1.3,0.3-1.9,0.9v-4H556v9.6h1.2v-4.5c0.3-0.3,0.5-0.5,0.8-0.7
			c0.3-0.1,0.5-0.3,0.8-0.3c0.4,0,0.7,0.1,0.9,0.4c0.3,0.3,0.3,0.7,0.3,1.1v3.9h1.2v-3.5c0-0.7-0.1-1.2-0.3-1.6
			C560.7-58.9,560.4-59.1,560.1-59.3"/>
		<path class="st6" d="M561.2-53.1h-1.6v-4c0-0.4-0.1-0.8-0.3-0.9c-0.1-0.3-0.4-0.4-0.8-0.4c-0.3,0-0.5,0-0.7,0.1
			c-0.3,0.1-0.4,0.3-0.7,0.7v4.6h-1.6v-9.8h1.6v3.8c0.5-0.4,1.1-0.7,1.8-0.7c0.4,0,0.8,0.1,1.2,0.4c0.4,0.3,0.7,0.5,0.8,0.9
			c0.1,0.4,0.3,0.9,0.3,1.8C561.2-56.7,561.2-53.1,561.2-53.1z M560-53.3h0.9v-3.4c0-0.7-0.1-1.2-0.3-1.6c-0.1-0.3-0.4-0.5-0.7-0.8
			c-0.3-0.1-0.7-0.3-1.1-0.3c-0.7,0-1.3,0.3-1.8,0.9l-0.3,0.4v-4.3H556v9.2h0.9v-4.5l0,0c0.3-0.4,0.5-0.5,0.8-0.7
			c0.3-0.1,0.5-0.3,0.8-0.3c0.4,0,0.8,0.1,1.1,0.5c0.3,0.3,0.4,0.7,0.4,1.2C560-56.8,560-53.3,560-53.3z"/>
		<polygon class="st6" points="546,-61.6 549.4,-61.6 549.4,-53.2 550.7,-53.2 550.7,-61.6 553.9,-61.6 553.9,-62.8 546,-62.8 		"/>
		<path class="st6" d="M550.8-53.1h-1.8v-8.4h-3.2v-1.5h8.2v1.5h-3.4v8.4H550.8z M549.5-53.3h1.1v-8.4h3.4v-0.9h-7.6v0.9h3.2
			L549.5-53.3L549.5-53.3z"/>
		<path class="st6" d="M565.9-59.7c-0.8,0-1.6,0.3-2.2,0.9c-0.5,0.5-0.8,1.3-0.8,2.3c0,0.7,0.1,1.2,0.4,1.6c0.3,0.5,0.5,0.8,1.1,1.2
			c0.4,0.3,0.9,0.4,1.6,0.4c0.5,0,0.9,0,1.3-0.1c0.4-0.1,0.8-0.3,1.1-0.5v-1.2c-0.7,0.5-1.5,0.8-2.3,0.8c-0.5,0-1.1-0.1-1.5-0.5
			c-0.4-0.4-0.5-0.8-0.5-1.5h4.5v-0.1c0-0.9-0.3-1.8-0.7-2.3C567.4-59.3,566.8-59.7,565.9-59.7 M564.2-57c0.1-0.5,0.3-0.8,0.5-1.1
			c0.3-0.3,0.7-0.4,1.1-0.4c0.4,0,0.8,0.1,1.1,0.4c0.3,0.3,0.4,0.7,0.4,1.1H564.2z"/>
		<path class="st6" d="M566.1-52.9c-0.7,0-1.3-0.1-1.8-0.4c-0.4-0.3-0.8-0.7-1.1-1.2c-0.3-0.5-0.4-1.1-0.4-1.8
			c0-0.9,0.3-1.8,0.8-2.4c0.5-0.7,1.3-0.9,2.3-0.9c0.8,0,1.6,0.3,2.2,0.9c0.5,0.5,0.8,1.5,0.8,2.4v0.3h-4.5c0,0.5,0.3,0.8,0.5,1.1
			c0.4,0.3,0.8,0.5,1.3,0.5c0.8,0,1.5-0.3,2.2-0.7l0.3-0.3v1.6h-0.1c-0.4,0.3-0.8,0.4-1.2,0.5S566.6-52.9,566.1-52.9 M565.9-59.4
			c-0.8,0-1.5,0.3-2,0.8c-0.5,0.5-0.8,1.3-0.8,2.2c0,0.5,0.1,1.1,0.4,1.6c0.3,0.4,0.5,0.8,0.9,1.1c0.4,0.3,0.9,0.4,1.6,0.4
			c0.5,0,0.9,0,1.2-0.1c0.4-0.1,0.7-0.3,1.1-0.5v-0.8c-0.7,0.4-1.3,0.7-2.2,0.7c-0.7,0-1.2-0.1-1.5-0.5c-0.4-0.4-0.7-0.9-0.7-1.5
			v-0.1h4.5c0-0.9-0.3-1.6-0.7-2.2C567.3-59.1,566.6-59.4,565.9-59.4 M567.6-56.8h-3.5V-57c0.1-0.5,0.3-0.9,0.7-1.2
			c0.3-0.3,0.7-0.4,1.2-0.4c0.5,0,0.9,0.1,1.2,0.4c0.3,0.3,0.4,0.7,0.5,1.2L567.6-56.8z M564.5-57.1h2.7c0-0.4-0.1-0.7-0.4-0.8
			c-0.3-0.3-0.5-0.4-0.9-0.4s-0.7,0.1-0.9,0.4C564.7-57.8,564.6-57.5,564.5-57.1"/>
		<polygon class="st6" points="582.8,-56.2 580.2,-62.8 578.9,-62.8 576.3,-56.2 573.6,-62.8 572.3,-62.8 576.1,-53.2 576.5,-53.2 
			579.6,-60.9 582.7,-53.2 582.9,-53.2 586.8,-62.8 585.5,-62.8 		"/>
		<path class="st6" d="M583.1-53.1h-0.5l-3-7.4l-3,7.4h-0.5l-3.9-9.8h1.8l2.6,6.3l2.6-6.3h1.5l2.6,6.3l2.4-6.3h1.8L583.1-53.1z
			 M582.8-53.3L582.8-53.3l3.8-9.2h-0.9l-2.7,6.9l-2.8-6.9H579l-2.7,6.9l-2.7-6.9h-1.1l3.6,9.2h0.1l3.2-8L582.8-53.3z"/>
		<path class="st6" d="M605.6-59.3c-0.3-0.3-0.7-0.3-1.1-0.3c-0.8,0-1.3,0.3-1.9,0.9v-4h-1.2v9.6h1.1v-4.5c0.3-0.3,0.5-0.5,0.8-0.7
			c0.3-0.1,0.5-0.3,0.8-0.3c0.4,0,0.7,0.1,0.9,0.4c0.3,0.3,0.3,0.7,0.3,1.1v3.9h1.2v-3.5c0-0.7-0.1-1.2-0.3-1.6
			C606.1-58.9,605.9-59.1,605.6-59.3"/>
		<path class="st6" d="M606.7-53.1h-1.5v-4c0-0.4-0.1-0.8-0.3-0.9c-0.1-0.3-0.4-0.4-0.8-0.4c-0.3,0-0.5,0-0.7,0.1
			c-0.3,0.1-0.4,0.3-0.7,0.7v4.6h-1.6v-9.8h1.6v3.8c0.5-0.4,1.1-0.7,1.8-0.7c0.4,0,0.8,0.1,1.2,0.4c0.4,0.3,0.7,0.5,0.8,0.9
			c0.1,0.4,0.3,0.9,0.3,1.8L606.7-53.1L606.7-53.1z M605.5-53.3h0.9v-3.4c0-0.7-0.1-1.2-0.3-1.6c-0.1-0.3-0.4-0.5-0.7-0.8
			c-0.3-0.1-0.7-0.3-1.1-0.3c-0.7,0-1.3,0.3-1.8,0.9l-0.3,0.4v-4.3h-0.9v9.2h0.9v-4.5l0,0c0.3-0.4,0.5-0.5,0.8-0.7
			c0.3-0.1,0.5-0.3,0.8-0.3c0.4,0,0.8,0.1,1.1,0.5c0.3,0.3,0.4,0.7,0.4,1.2C605.5-56.8,605.5-53.3,605.5-53.3z"/>
		<path class="st6" d="M649.3-59.5c-0.9,0-1.8,0.3-2.4,0.9c-0.7,0.5-0.9,1.3-0.9,2.3s0.3,1.6,0.9,2.3c0.7,0.7,1.5,0.9,2.4,0.9
			c0.9,0,1.8-0.3,2.4-0.9c0.7-0.5,0.9-1.3,0.9-2.3s-0.3-1.8-0.9-2.3C651.1-59.3,650.2-59.5,649.3-59.5 M650.8-54.8
			c-0.4,0.4-0.9,0.5-1.5,0.5c-0.7,0-1.1-0.1-1.5-0.5c-0.4-0.4-0.5-0.8-0.5-1.5c0-0.5,0.1-1.1,0.5-1.5c0.4-0.4,0.9-0.5,1.5-0.5
			c0.7,0,1.1,0.1,1.5,0.5s0.5,0.9,0.5,1.5C651.3-55.8,651.2-55.2,650.8-54.8"/>
		<path class="st6" d="M649.3-52.9c-0.9,0-1.8-0.3-2.4-0.9c-0.7-0.7-0.9-1.5-0.9-2.4c0-0.9,0.4-1.8,0.9-2.4c0.7-0.7,1.5-0.9,2.6-0.9
			c0.9,0,1.9,0.3,2.4,0.9c0.7,0.7,0.9,1.5,0.9,2.4c0,0.9-0.4,1.8-1.1,2.4C651.2-53.3,650.2-52.9,649.3-52.9 M649.3-59.4
			c-0.9,0-1.6,0.3-2.3,0.8c-0.5,0.5-0.9,1.3-0.9,2.2c0,0.8,0.3,1.6,0.9,2.2c0.5,0.5,1.3,0.8,2.3,0.8c0.9,0,1.8-0.3,2.3-0.8
			c0.7-0.5,0.9-1.2,0.9-2.2s-0.3-1.6-0.9-2.2C650.9-59.1,650.2-59.4,649.3-59.4 M649.3-54.1c-0.7,0-1.2-0.3-1.6-0.7
			c-0.4-0.4-0.7-0.9-0.7-1.6c0-0.7,0.3-1.2,0.7-1.6c0.4-0.4,0.9-0.7,1.6-0.7c0.7,0,1.2,0.3,1.6,0.7c0.4,0.4,0.7,0.9,0.7,1.6
			c0,0.7-0.3,1.2-0.7,1.6C650.5-54.3,650-54.1,649.3-54.1 M649.3-58.2c-0.5,0-0.9,0.1-1.3,0.5c-0.4,0.4-0.5,0.8-0.5,1.3
			c0,0.5,0.1,0.9,0.5,1.3c0.4,0.4,0.8,0.5,1.3,0.5c0.5,0,1.1-0.1,1.3-0.5c0.4-0.4,0.5-0.8,0.5-1.3c0-0.5-0.1-0.9-0.5-1.3
			S649.8-58.2,649.3-58.2"/>
		<path class="st6" d="M658.6-55.1c-0.4,0.5-0.9,0.8-1.5,0.8s-0.8-0.1-0.9-0.4c-0.1-0.3-0.3-0.7-0.3-1.3v-3.6h-1.2v3.6
			c0,0.8,0.1,1.3,0.3,1.8c0.1,0.3,0.4,0.5,0.8,0.8c0.4,0.1,0.7,0.3,1.1,0.3c0.3,0,0.7-0.1,1.1-0.3c0.3-0.1,0.7-0.4,0.9-0.7v0.8h1.2
			v-6.2h-1.2v4.5H658.6z"/>
		<path class="st6" d="M656.7-52.9c-0.4,0-0.8-0.1-1.2-0.3c-0.4-0.3-0.7-0.5-0.8-0.8c-0.1-0.4-0.3-0.9-0.3-1.8v-3.8h1.6v3.8
			c0,0.8,0.1,1.1,0.3,1.3c0.1,0.3,0.4,0.3,0.8,0.3c0.5,0,0.9-0.3,1.3-0.8v-4.6h1.6v6.6h-1.6v-0.5c-0.1,0.1-0.4,0.3-0.7,0.4
			C657.5-53.1,657.1-52.9,656.7-52.9 M654.8-59.3v3.4c0,0.8,0.1,1.3,0.3,1.6c0.1,0.3,0.4,0.5,0.7,0.7c0.5,0.4,1.2,0.4,1.9,0
			c0.3-0.1,0.5-0.4,0.8-0.7l0.3-0.3v1.1h0.9v-5.8h-0.9v4.3l0,0c-0.4,0.7-0.9,0.9-1.6,0.9c-0.5,0-0.9-0.1-1.1-0.4
			c-0.3-0.3-0.3-0.8-0.3-1.5v-3.4C655.8-59.3,654.8-59.3,654.8-59.3z"/>
		<path class="st6" d="M667-58.7c-0.7-0.5-1.5-0.8-2.6-0.8h-2.2v9.4h1.2v-3.4c0.5,0.1,0.9,0.3,1.3,0.3c0.9,0,1.6-0.3,2.3-0.9
			c0.5-0.7,0.8-1.3,0.8-2.3C667.9-57.4,667.6-58,667-58.7 M666.2-54.8c-0.4,0.4-0.8,0.7-1.5,0.7c-0.4,0-0.8-0.1-1.2-0.3v-3.9h0.9
			c0.5,0,1.1,0,1.3,0.3c0.3,0.1,0.5,0.4,0.7,0.7c0.1,0.3,0.3,0.7,0.3,1.1C666.7-55.8,666.4-55.2,666.2-54.8"/>
		<path class="st6" d="M663.6-49.8H662v-9.8h2.3c1.1,0,2,0.3,2.7,0.8c0.7,0.5,0.9,1.3,0.9,2.4c0,0.9-0.3,1.8-0.9,2.4
			c-0.7,0.7-1.3,0.9-2.3,0.9c-0.4,0-0.7-0.1-1.2-0.1L663.6-49.8L663.6-49.8z M662.4-50.2h0.9v-3.4l0.3,0.1c0.5,0.1,0.9,0.3,1.2,0.3
			c0.8,0,1.6-0.3,2.2-0.8c0.5-0.5,0.8-1.3,0.8-2.2c0-0.9-0.3-1.6-0.8-2.2c-0.5-0.5-1.5-0.8-2.4-0.8h-2L662.4-50.2L662.4-50.2z
			 M664.7-54c-0.4,0-0.8-0.1-1.2-0.3h-0.1v-4.2h1.1c0.7,0,1.1,0.1,1.3,0.3c0.3,0.1,0.5,0.4,0.8,0.8c0.1,0.3,0.3,0.7,0.3,1.2
			c0,0.7-0.1,1.2-0.5,1.6C665.9-54.3,665.4-54,664.7-54 M663.6-54.5c0.3,0.1,0.7,0.3,1.1,0.3c0.5,0,0.9-0.1,1.3-0.5
			c0.4-0.4,0.5-0.8,0.5-1.5c0-0.4-0.1-0.7-0.3-0.9c-0.1-0.3-0.4-0.5-0.7-0.7c-0.3-0.1-0.7-0.1-1.2-0.1h-0.7v3.5H663.6z"/>
		<path class="st6" d="M641.9-58.2L641.9-58.2l-0.1-1.3h-1.2v6.2h1.2v-3.2c0-0.5,0.1-0.9,0.4-1.3s0.7-0.5,1.1-0.5
			c0.4,0,0.8,0.1,1.2,0.7l0.7-1.1c-0.5-0.4-0.9-0.7-1.5-0.7C643.1-59.7,642.6-59.1,641.9-58.2"/>
		<path class="st6" d="M642-53.1h-1.6v-6.6h1.6v1.1c0.5-0.8,1.1-1.2,1.8-1.2c0.5,0,1.1,0.3,1.6,0.8l0.1,0.1l-0.8,1.3l-0.1-0.1
			c-0.8-0.8-1.5-0.7-2,0c-0.3,0.4-0.4,0.8-0.4,1.2L642-53.1L642-53.1z M640.7-53.3h0.9v-3.2c0-0.5,0.1-1.1,0.5-1.5
			c0.5-0.8,1.5-0.9,2.3-0.1L645-59c-0.4-0.4-0.8-0.5-1.2-0.5c-0.5,0-1.1,0.4-1.6,1.3l-0.5,0.7v-1.8h-0.9V-53.3z"/>
		<path class="st6" d="M634.9-56.7h1.9v2h-0.1c-0.8,0.3-1.3,0.4-2,0.4c-1.1,0-2-0.3-2.7-1.1c-0.7-0.7-1.1-1.6-1.1-2.7
			s0.4-1.9,1.1-2.6c0.7-0.7,1.6-1.1,2.6-1.1c1.1,0,2.3,0.3,3.4,0.9v-1.3c-0.7-0.3-1.3-0.5-1.9-0.7c-0.5-0.1-0.9-0.1-1.5-0.1
			c-1.5,0-2.7,0.5-3.6,1.3c-0.9,0.9-1.5,2.2-1.5,3.5s0.4,2.4,1.3,3.4c0.9,0.9,2.2,1.3,3.8,1.3c1.2,0,2.3-0.3,3.5-0.8v-4h-3.1V-56.7z
			"/>
		<path class="st6" d="M634.6-52.9c-1.6,0-3-0.5-3.9-1.5c-0.9-0.9-1.5-2.2-1.5-3.5c0-1.5,0.5-2.7,1.5-3.6c0.9-0.9,2.3-1.5,3.8-1.5
			c0.5,0,1.1,0,1.6,0.1c0.5,0.1,1.1,0.4,1.9,0.7h0.1v1.8l-0.3-0.1c-1.1-0.7-2.2-0.9-3.2-0.9c-0.9,0-1.9,0.3-2.6,0.9
			c-0.7,0.7-1.1,1.5-1.1,2.4c0,1.1,0.4,1.9,1.1,2.6c0.7,0.7,1.5,0.9,2.7,0.9c0.5,0,1.2-0.1,1.9-0.4l0,0v-1.5h-1.9V-58h3.5v4.3h-0.1
			C636.9-53.2,635.7-52.9,634.6-52.9 M634.5-62.6c-1.5,0-2.6,0.4-3.5,1.3c-0.9,0.8-1.5,2-1.5,3.4s0.4,2.4,1.3,3.2
			c0.9,0.9,2.2,1.3,3.6,1.3c1.1,0,2.2-0.3,3.4-0.7v-3.8H635v0.9h1.9v2.3l-0.3,0.1c-0.8,0.3-1.5,0.4-2,0.4c-1.2,0-2.2-0.4-2.8-1.1
			c-0.8-0.7-1.1-1.6-1.1-2.8c0-1.1,0.4-2,1.1-2.7c0.8-0.7,1.6-1.1,2.7-1.1c1.1,0,2.2,0.3,3.2,0.8V-62c-0.7-0.3-1.2-0.5-1.8-0.5
			C635.5-62.6,635-62.6,634.5-62.6"/>
		<polygon class="st6" points="614.8,-55.8 613.3,-59.5 612.3,-59.5 610.7,-55.8 609.1,-59.5 607.8,-59.5 610.6,-53.1 611,-53.1 
			612.7,-57.5 614.6,-53.1 615,-53.1 617.7,-59.5 616.4,-59.5 		"/>
		<path class="st6" d="M615.2-52.9h-0.5l-1.8-4l-1.8,4h-0.7l-3-6.7h1.8l1.5,3.5l1.5-3.5h1.1l1.5,3.5l1.5-3.5h1.8L615.2-52.9z
			 M614.8-53.3L614.8-53.3l2.7-6.1h-0.9l-1.8,4l-1.8-4h-0.7l-1.8,4l-1.8-4h-0.9l2.7,6.1h0.1l1.9-4.6L614.8-53.3z"/>
		<path class="st6" d="M623.3-54.3V-57c0-0.5,0-0.9,0-1.1c0-0.1-0.1-0.4-0.3-0.5c-0.1-0.1-0.3-0.4-0.4-0.4c-0.4-0.4-0.9-0.5-1.6-0.5
			c-0.9,0-1.6,0.3-2,0.8v1.3c0.7-0.7,1.3-1.1,2-1.1c0.8,0,1.1,0.4,1.1,1.1v0.4l-1.6,0.5c-0.5,0.1-0.9,0.4-1.2,0.8
			c-0.3,0.3-0.4,0.7-0.4,1.1c0,0.4,0.1,0.8,0.4,1.1c0.3,0.3,0.7,0.4,1.1,0.4c0.5,0,1.2-0.1,1.8-0.7c0.1,0.4,0.4,0.7,0.9,0.7
			c0.1,0,0.4,0,0.5-0.1c0.1,0,0.4-0.1,0.7-0.4v-0.8c-0.3,0.3-0.5,0.4-0.7,0.4S623.3-54.1,623.3-54.3 M622.1-54.4
			c-0.3,0.3-0.7,0.5-1.1,0.5c-0.3,0-0.5-0.1-0.7-0.3c-0.1-0.1-0.3-0.4-0.3-0.7s0.1-0.4,0.3-0.7c0.1-0.1,0.4-0.4,0.9-0.5l0.8-0.3
			C622.1-56.3,622.1-54.4,622.1-54.4z"/>
		<path class="st6" d="M623-52.9c-0.5,0-0.9-0.3-1.1-0.5c-0.5,0.4-1.1,0.5-1.6,0.5c-0.5,0-0.9-0.1-1.2-0.5c-0.3-0.3-0.5-0.7-0.5-1.2
			c0-0.4,0.1-0.8,0.4-1.2c0.3-0.3,0.7-0.5,1.3-0.8l1.5-0.5v-0.3c0-0.7-0.3-0.9-0.9-0.9c-0.7,0-1.2,0.3-1.9,0.9l-0.3,0.1v-1.9l0,0
			c0.5-0.5,1.2-0.9,2.2-0.9c0.7,0,1.3,0.1,1.8,0.5c0.1,0.1,0.3,0.3,0.4,0.5c0.1,0.1,0.1,0.4,0.3,0.7c0,0.3,0,0.5,0,1.1v2.7
			c0,0.1,0,0.1,0,0.1s0.3,0,0.5-0.3l0.3-0.1v1.2h-0.1c-0.3,0.1-0.5,0.3-0.7,0.4C623.4-52.9,623.1-52.9,623-52.9 M622.2-54v0.3
			c0,0.3,0.1,0.5,0.8,0.5c0.1,0,0.3,0,0.4-0.1c0.1,0,0.4-0.1,0.5-0.3V-54c-0.1,0.1-0.3,0.1-0.4,0.1s-0.4,0-0.4-0.5v-2.7
			c0-0.5,0-0.8,0-1.1c0-0.1-0.1-0.3-0.1-0.5c-0.1-0.1-0.3-0.3-0.3-0.4c-0.4-0.3-0.9-0.5-1.5-0.5c-0.8,0-1.5,0.3-1.9,0.8v0.8
			c0.5-0.5,1.2-0.8,1.8-0.8c0.8,0,1.3,0.4,1.3,1.3v0.4l-1.8,0.5c-0.5,0.1-0.8,0.4-1.1,0.7c-0.3,0.3-0.4,0.5-0.4,0.9
			c0,0.4,0.1,0.7,0.4,0.9c0.3,0.3,0.5,0.4,0.9,0.4C621.1-53.6,621.6-53.7,622.2-54L622.2-54z M621-53.9c-0.3,0-0.5-0.1-0.8-0.3
			c-0.1-0.1-0.3-0.4-0.3-0.8c0-0.3,0.1-0.5,0.3-0.8c0.1-0.1,0.5-0.4,0.9-0.5l1.1-0.4v2.2l0,0C621.8-54,621.4-53.9,621-53.9
			 M621.9-56l-0.5,0.3c-0.5,0.1-0.7,0.4-0.8,0.4c-0.1,0.1-0.3,0.3-0.3,0.5c0,0.3,0,0.4,0.1,0.5c0.1,0.1,0.3,0.3,0.5,0.3
			c0.3,0,0.7-0.1,0.9-0.4V-56z"/>
	</g>
	<g>
		<path class="st6" d="M539.2-64.3l-1.5-2.5l-0.1-0.2c0,0,0,0,0,0c0,0,0,0-0.1-0.1c0,0-0.1,0-0.1,0h0l0,0l0,0h-8.8h-0.1
			c-0.1,0-0.2,0-0.2,0.1l-1.5,2.6H518l0,0H518c-0.1,0-0.2,0-0.2,0.1l-1.5,2.7c0,0.1,0,0.2,0,0.3l4.4,7.5c0.1,0.1,0.1,0.1,0.2,0.1
			c0,0,0,0,0,0h3l4.4,7.7l0,0l0,0c0,0,0,0,0,0l0,0l0,0l0,0l0,0c0,0,0,0,0,0l0,0c0,0,0,0,0.1,0l0,0h3.1l0,0c0.1,0,0.2,0,0.2-0.1
			l4.5-7.5l0,0l0,0c0,0,0-0.1,0-0.1l0,0l0,0c0,0,0-0.1,0-0.1s0,0,0,0v0l-1.5-2.6l4.4-7.6C539.3-64.1,539.3-64.2,539.2-64.3"/>
		<path class="st7" d="M521.1-54l-4.3-7.4l1.2-2.3l4.3,7.4l0,0c0,0,0,0.1,0.1,0.1c0,0,0.1,0,0.1,0h8.4l-1.2,2.2H521.1L521.1-54z"/>
		<path class="st7" d="M535.9-53.6l-4.3,7.4H529l4.3-7.4c0,0,0,0,0,0l0,0v0c0,0,0,0,0,0l0,0l0,0l0,0v0v0l0,0c0,0,0,0,0,0l-4.2-7.4
			h2.5L535.9-53.6z"/>
		<path class="st7" d="M530.1-64.3L530.1-64.3L530.1-64.3C530.1-64.3,530.1-64.3,530.1-64.3C530.1-64.3,530.1-64.3,530.1-64.3
			L530.1-64.3c-0.1,0-0.1,0-0.1,0c0,0,0,0,0,0l0,0c0,0,0,0,0,0c0,0,0,0,0,0l0,0l0,0l0,0l0,0l0,0.1l-4.3,7.3l-1.2-2.2l4.3-7.4h8.6
			l1.3,2.2C538.6-64.3,530.1-64.3,530.1-64.3z"/>
	</g>
</g>
<g>
	<g>
		<path class="st8" d="M122.9-102.9v-22.8h-9.2v-4h22.7v4H127v22.8H122.9z"/>
	</g>
</g>
<g>
	<g>
		<path class="st8" d="M145.5-102.9v-26.8h4.1v26.8H145.5z M147.3-114.2v-4h20.9v4H147.3z M166.4-102.9v-26.8h4.1v26.8H166.4z"/>
	</g>
</g>
<g>
	<g>
		<path class="st8" d="M181.7-102.9v-26.8h20.3v4h-16.1v18.8h16.1v4H181.7z M183.8-114.7v-4h16.1v4H183.8z"/>
	</g>
</g>
<g>
	<g>
		<path class="st8" d="M232.4-102.9v-26.8h4.1v26.8H232.4z M234.2-114.2v-4h20.9v4H234.2z M253.3-102.9v-26.8h4.1v26.8H253.3z"/>
	</g>
</g>
<g>
	<g>
		<path class="st8" d="M264.6-102.9l12.1-26.8h4.6l12,26.8h-4.5l-8-17.6c-0.2-0.4-0.3-0.8-0.6-1.4s-0.5-1.1-0.7-1.7
			c-0.2-0.6-0.5-1.2-0.7-1.8c-0.2-0.6-0.4-1.1-0.6-1.6l1.1,0c-0.2,0.5-0.4,1.1-0.6,1.7c-0.2,0.6-0.4,1.2-0.7,1.7s-0.5,1.1-0.7,1.7
			s-0.4,1-0.7,1.5l-7.9,17.4H264.6z M269.9-109.4l1.6-4H286l1.1,4H269.9z"/>
	</g>
</g>
<g>
	<g>
		<path class="st8" d="M304.2-102.9l-11.7-26.8h4.7l6.9,16.1c0.2,0.5,0.5,1.1,0.7,1.8s0.6,1.4,0.9,2.1c0.3,0.7,0.6,1.4,0.9,2.1
			c0.3,0.7,0.5,1.3,0.7,1.9l-1.1,0c0.3-0.7,0.6-1.5,0.9-2.4c0.4-0.9,0.7-1.8,1.1-2.8c0.4-0.9,0.7-1.8,1.1-2.7l6.4-16.1h4.8
			l-11.6,26.8H304.2z"/>
	</g>
</g>
<g>
	<g>
		<path class="st8" d="M328-102.9v-26.8h20.3v4h-16.1v18.8h16.1v4H328z M330.1-114.7v-4h16.1v4H330.1z"/>
	</g>
</g>
<g>
	<g>
		<path class="st8" d="M359.5-102.9v-26.8h3.9l19.8,21.9l-0.4,0.3c-0.1-0.7-0.2-1.5-0.3-2.3c-0.1-0.8-0.2-1.7-0.2-2.6
			c-0.1-0.9-0.1-1.8-0.1-2.8c0-1-0.1-1.9-0.1-2.9c0-1,0-1.9,0-2.9v-8.8h4.1v26.8h-4L362.7-124l0.2-0.5c0.1,0.8,0.1,1.7,0.2,2.5
			c0.1,0.8,0.1,1.6,0.2,2.3c0.1,0.7,0.1,1.4,0.2,2.1c0,0.7,0.1,1.3,0.1,1.9c0,0.6,0.1,1.2,0.1,1.7v11.1H359.5z"/>
	</g>
</g>
<text transform="matrix(1 0 0 1 545.8456 -29.9118)"><tspan x="0" y="0" class="st10" style="font-family:'Gotham-Bold'; font-size:19.0629px;">P</tspan><tspan x="13.3" y="0" class="st10" style="font-family:'Gotham-Bold'; font-size:19.0629px; letter-spacing:1;">ANV</tspan><tspan x="63.4" y="0" class="st10" style="font-family:'Gotham-Bold'; font-size:19.0629px; letter-spacing:1;">E</tspan><tspan x="78.1" y="0" class="st10" style="font-family:'Gotham-Bold'; font-size:19.0629px; letter-spacing:1;">L</tspan></text>
<g>
	<path class="st9" d="M309.5,154.9c-7.2,7.3-15.7,13.2-25.6,16.2c-8.2,2.5-16.8,2.5-25.3,1.9c-16.8-1.3-33.4-4.4-50.1-6.5
		c-14.8-1.8-30-3.4-44.9-1.8c-5.9,0.6-11.9,1.9-17.2,4.5c-4.2,2-7.5,5-10.3,8.7c-0.1,0.1,0.7-0.9,0.9-1.2c-0.2,0.3,0.9-1,1.2-1.3
		c0.5-0.5,1-0.9,1.5-1.4c1.2-1,2.4-1.8,3.7-2.6c2.7-1.6,5.7-2.7,8.7-3.5c7.2-2,14.8-2.5,22.2-2.6c17.7-0.1,35.4,2.6,52.9,5.1
		c12.4,1.8,24.8,3.9,37.4,4.2c8.1,0.2,16-1.1,23.5-4.2c7.7-3.2,14.4-8.4,20.3-14.3C308.9,155.9,309.1,155.3,309.5,154.9"/>
	<path class="st9" d="M167.9,186.9v-7h2.8c0.4,0,0.8,0.1,1.1,0.2c0.3,0.1,0.6,0.3,0.9,0.5c0.2,0.2,0.4,0.5,0.5,0.8
		c0.1,0.3,0.2,0.6,0.2,1c0,0.4-0.1,0.8-0.2,1.1c-0.2,0.3-0.4,0.6-0.6,0.8c-0.3,0.2-0.6,0.4-0.9,0.5c-0.3,0.1-0.7,0.2-1.1,0.2h-1.1
		v2.1H167.9z M170.6,183.3c0.4,0,0.7-0.1,0.9-0.3c0.2-0.2,0.3-0.4,0.3-0.7c0-0.3-0.1-0.6-0.3-0.7c-0.2-0.2-0.5-0.3-0.9-0.3h-1.1v1.9
		H170.6z"/>
	<path class="st9" d="M192.9,186.9l-0.7-1.6h-2.8l-0.7,1.6h-1.7l3.1-7h1.4l3.1,7H192.9z M191.6,183.8l-0.8-1.8l-0.8,1.8H191.6z"/>
	<polygon class="st9" points="214.2,186.9 210.9,182.6 210.9,186.9 209.4,186.9 209.4,179.9 210.8,179.9 213.9,184 213.9,179.9 
		215.5,179.9 215.5,186.9 	"/>
	<polygon class="st9" points="233.2,186.9 230.3,179.9 232.1,179.9 233.9,184.5 235.7,179.9 237.4,179.9 234.5,186.9 	"/>
	<polygon class="st9" points="252.2,186.9 252.2,179.9 257.5,179.9 257.5,181.3 253.8,181.3 253.8,182.6 257.1,182.6 257.1,184.1 
		253.8,184.1 253.8,185.4 257.5,185.4 257.5,186.9 	"/>
	<polygon class="st9" points="272.7,186.9 272.7,179.9 274.3,179.9 274.3,185.4 277.7,185.4 277.7,186.9 	"/>
</g>
<g>
	<g>
		<path class="st6" d="M-82.9,100.7v-2c0-0.4,0-0.7,0-0.8c0-0.1-0.1-0.3-0.2-0.4c-0.1-0.1-0.2-0.3-0.3-0.3c-0.3-0.3-0.7-0.4-1.2-0.4
			c-0.7,0-1.2,0.2-1.5,0.6v1c0.5-0.5,1-0.8,1.5-0.8c0.6,0,0.8,0.3,0.8,0.8v0.3l-1.2,0.4c-0.4,0.1-0.7,0.3-0.9,0.6
			c-0.2,0.2-0.3,0.5-0.3,0.8s0.1,0.6,0.3,0.8c0.2,0.2,0.5,0.3,0.8,0.3c0.4,0,0.9-0.1,1.2-0.5c0.1,0.3,0.3,0.5,0.7,0.5
			c0.1,0,0.3,0,0.4-0.1c0.1,0,0.3-0.1,0.5-0.3v-0.6c-0.2,0.2-0.4,0.3-0.5,0.3S-82.9,100.8-82.9,100.7 M-83.8,100.6
			c-0.3,0.2-0.5,0.4-0.8,0.4c-0.2,0-0.4-0.1-0.5-0.2s-0.2-0.3-0.2-0.5s0.1-0.3,0.2-0.5c0.1-0.1,0.3-0.3,0.7-0.4l0.6-0.2V100.6z"/>
		<path class="st6" d="M-83.2,101.7c-0.4,0-0.7-0.2-0.8-0.4c-0.4,0.2-0.8,0.4-1.2,0.4s-0.7-0.1-0.9-0.4c-0.2-0.2-0.4-0.5-0.4-0.9
			c0-0.3,0.1-0.6,0.4-0.9c0.2-0.2,0.5-0.4,0.9-0.6l1.1-0.4v-0.2c0-0.5-0.2-0.7-0.7-0.7s-0.9,0.2-1.4,0.7l-0.2,0.2v-1.4l0,0
			c0.4-0.4,0.9-0.7,1.6-0.7c0.5,0,1,0.1,1.3,0.4c0.1,0.1,0.2,0.2,0.3,0.4c0.1,0.1,0.1,0.3,0.2,0.5c0,0.2,0,0.4,0,0.8v2
			c0,0.1,0,0.1,0,0.1s0.2,0,0.4-0.2l0.2-0.1v0.9h-0.1c-0.2,0.1-0.4,0.2-0.5,0.3C-82.9,101.7-83,101.7-83.2,101.7 M-83.8,100.9v0.2
			c0,0.2,0.1,0.4,0.6,0.4c0.1,0,0.2,0,0.3-0.1c0.1,0,0.3-0.1,0.4-0.2v-0.3c0,0.1-0.2,0.1-0.3,0.1s-0.3,0-0.3-0.4v-2
			c0-0.3,0-0.6,0-0.8c0-0.1-0.1-0.3-0.1-0.4c-0.1-0.1-0.2-0.2-0.3-0.3c-0.3-0.2-0.7-0.4-1.1-0.4c-0.6,0-1.1,0.2-1.4,0.6v0.6
			c0.4-0.4,0.9-0.6,1.3-0.6c0.6,0,1,0.3,1,1v0.3L-85,99c-0.4,0.1-0.6,0.3-0.8,0.5c-0.2,0.2-0.3,0.4-0.3,0.7c0,0.3,0.1,0.5,0.3,0.7
			c0.2,0.2,0.4,0.3,0.7,0.3C-84.7,101.2-84.3,101.1-83.8,100.9L-83.8,100.9z M-84.7,101c-0.2,0-0.4-0.1-0.6-0.2
			c-0.1-0.1-0.2-0.3-0.2-0.6c0-0.2,0.1-0.4,0.2-0.6c0.1-0.1,0.4-0.3,0.7-0.4l0.8-0.3v1.6l0,0C-84,100.9-84.3,101-84.7,101 M-84,99.4
			l-0.5,0.2c-0.4,0.1-0.5,0.3-0.6,0.3c-0.1,0.1-0.2,0.2-0.2,0.4c0,0.1,0,0.3,0.1,0.4s0.2,0.2,0.4,0.2c0.3,0,0.5-0.1,0.7-0.3
			L-84,99.4L-84,99.4z"/>
		<path class="st6" d="M-78.1,96.9c-0.4-0.1-0.7-0.2-1-0.2c-0.7,0-1.2,0.2-1.6,0.7c-0.4,0.4-0.6,1-0.6,1.7s0.2,1.3,0.6,1.7
			c0.4,0.4,1,0.7,1.6,0.7h2v-7.1H-78L-78.1,96.9L-78.1,96.9z M-78.1,100.7h-0.7c-0.4,0-0.7,0-0.9-0.1c-0.2-0.1-0.3-0.2-0.5-0.3
			c-0.2-0.3-0.4-0.6-0.4-1.1s0.1-0.9,0.4-1.2c0.3-0.3,0.6-0.4,1.1-0.4c0.3,0,0.6,0.1,0.9,0.2L-78.1,100.7L-78.1,100.7z"/>
		<path class="st6" d="M-77,101.6h-2.1c-0.7,0-1.3-0.2-1.7-0.7c-0.4-0.4-0.6-1.1-0.6-1.8c0-0.7,0.2-1.3,0.7-1.8s1-0.7,1.7-0.7
			c0.3,0,0.6,0.1,0.9,0.2v-2.5h1.2L-77,101.6L-77,101.6z M-79.1,96.9c-0.6,0-1.1,0.2-1.6,0.6c-0.4,0.4-0.6,1-0.6,1.6
			c0,0.7,0.2,1.3,0.6,1.7c0.4,0.4,0.9,0.6,1.6,0.6h1.8v-6.8H-78v2.6l-0.1-0.2C-78.5,96.9-78.8,96.9-79.1,96.9 M-78,100.8h-0.8
			c-0.4,0-0.7,0-0.9-0.1c-0.2-0.1-0.3-0.2-0.5-0.3c-0.3-0.3-0.4-0.7-0.4-1.2s0.1-1,0.4-1.3s0.7-0.5,1.2-0.5c0.3,0,0.6,0.1,0.9,0.2
			h0.1V100.8z M-79,97.7c-0.4,0-0.8,0.1-1,0.4c-0.2,0.3-0.4,0.7-0.4,1.1c0,0.5,0.1,0.8,0.3,1c0.1,0.1,0.3,0.2,0.4,0.3
			c0.1,0.1,0.4,0.1,0.8,0.1h0.6v-2.7C-78.5,97.7-78.7,97.7-79,97.7"/>
		<path class="st6" d="M-106.3,97c-0.2-0.2-0.5-0.2-0.8-0.2c-0.6,0-1,0.2-1.4,0.7v-3h-0.9v7.1h0.9v-3.3c0.2-0.2,0.4-0.4,0.6-0.5
			c0.2-0.1,0.4-0.2,0.6-0.2c0.3,0,0.5,0.1,0.7,0.3c0.2,0.2,0.2,0.5,0.2,0.8v2.9h0.9V99c0-0.5-0.1-0.9-0.2-1.2
			C-105.9,97.3-106.1,97.1-106.3,97"/>
		<path class="st6" d="M-105.5,101.6h-1.2v-3c0-0.3-0.1-0.6-0.2-0.7c-0.1-0.2-0.3-0.3-0.6-0.3c-0.2,0-0.4,0-0.5,0.1
			c-0.2,0.1-0.3,0.2-0.5,0.5v3.4h-1.2v-7.3h1.2v2.8c0.4-0.3,0.8-0.5,1.3-0.5c0.3,0,0.6,0.1,0.9,0.3c0.3,0.2,0.5,0.4,0.6,0.7
			c0.1,0.3,0.2,0.7,0.2,1.3C-105.5,98.9-105.5,101.6-105.5,101.6z M-106.4,101.4h0.7v-2.5c0-0.5-0.1-0.9-0.2-1.2
			c-0.1-0.2-0.3-0.4-0.5-0.6c-0.2-0.1-0.5-0.2-0.8-0.2c-0.5,0-1,0.2-1.3,0.7l-0.2,0.3v-3.2h-0.7v6.8h0.7v-3.3l0,0
			c0.2-0.3,0.4-0.4,0.6-0.5c0.2-0.1,0.4-0.2,0.6-0.2c0.3,0,0.6,0.1,0.8,0.4c0.2,0.2,0.3,0.5,0.3,0.9
			C-106.4,98.8-106.4,101.4-106.4,101.4z"/>
		<polygon class="st6" points="-116.8,95.3 -114.3,95.3 -114.3,101.5 -113.3,101.5 -113.3,95.3 -110.9,95.3 -110.9,94.4 
			-116.8,94.4 		"/>
		<path class="st6" d="M-113.2,101.6h-1.3v-6.2h-2.4v-1.1h6.1v1.1h-2.5L-113.2,101.6L-113.2,101.6z M-114.2,101.4h0.8v-6.2h2.5v-0.7
			h-5.6v0.7h2.4L-114.2,101.4L-114.2,101.4z"/>
		<path class="st6" d="M-102,96.7c-0.6,0-1.2,0.2-1.6,0.7c-0.4,0.4-0.6,1-0.6,1.7c0,0.5,0.1,0.9,0.3,1.2c0.2,0.4,0.4,0.6,0.8,0.9
			c0.3,0.2,0.7,0.3,1.2,0.3c0.4,0,0.7,0,1-0.1c0.3-0.1,0.6-0.2,0.8-0.4v-0.9c-0.5,0.4-1.1,0.6-1.7,0.6c-0.4,0-0.8-0.1-1.1-0.4
			c-0.3-0.3-0.4-0.6-0.4-1.1h3.3v-0.1c0-0.7-0.2-1.3-0.5-1.7C-100.9,97-101.4,96.7-102,96.7 M-103.3,98.7c0.1-0.4,0.2-0.6,0.4-0.8
			c0.2-0.2,0.5-0.3,0.8-0.3c0.3,0,0.6,0.1,0.8,0.3c0.2,0.2,0.3,0.5,0.3,0.8H-103.3z"/>
		<path class="st6" d="M-101.9,101.7c-0.5,0-1-0.1-1.3-0.3c-0.3-0.2-0.6-0.5-0.8-0.9c-0.2-0.4-0.3-0.8-0.3-1.3
			c0-0.7,0.2-1.3,0.6-1.8c0.4-0.5,1-0.7,1.7-0.7c0.6,0,1.2,0.2,1.6,0.7c0.4,0.4,0.6,1.1,0.6,1.8v0.2h-3.3c0,0.4,0.2,0.6,0.4,0.8
			c0.3,0.2,0.6,0.4,1,0.4c0.6,0,1.1-0.2,1.6-0.5l0.2-0.2v1.2h-0.1c-0.3,0.2-0.6,0.3-0.9,0.4S-101.5,101.7-101.9,101.7 M-102,96.9
			c-0.6,0-1.1,0.2-1.5,0.6c-0.4,0.4-0.6,1-0.6,1.6c0,0.4,0.1,0.8,0.3,1.2c0.2,0.3,0.4,0.6,0.7,0.8c0.3,0.2,0.7,0.3,1.2,0.3
			c0.4,0,0.7,0,0.9-0.1c0.3-0.1,0.5-0.2,0.8-0.4v-0.6c-0.5,0.3-1,0.5-1.6,0.5c-0.5,0-0.9-0.1-1.1-0.4c-0.3-0.3-0.5-0.7-0.5-1.1v-0.1
			h3.3c0-0.7-0.2-1.2-0.5-1.6C-101,97.1-101.5,96.9-102,96.9 M-100.8,98.8h-2.6v-0.1c0.1-0.4,0.2-0.7,0.5-0.9
			c0.2-0.2,0.5-0.3,0.9-0.3s0.7,0.1,0.9,0.3C-100.9,98-100.8,98.3-100.8,98.8L-100.8,98.8z M-103.1,98.6h2c0-0.3-0.1-0.5-0.3-0.6
			c-0.2-0.2-0.4-0.3-0.7-0.3s-0.5,0.1-0.7,0.3C-102.9,98.1-103,98.3-103.1,98.6"/>
		<polygon class="st6" points="-89.5,99.3 -91.4,94.4 -92.4,94.4 -94.3,99.3 -96.3,94.4 -97.3,94.4 -94.5,101.5 -94.2,101.5 
			-91.9,95.8 -89.6,101.5 -89.4,101.5 -86.5,94.4 -87.5,94.4 		"/>
		<path class="st6" d="M-89.3,101.6h-0.4l-2.2-5.5l-2.2,5.5h-0.4l-2.9-7.3h1.3l1.9,4.7l1.9-4.7h1.1l1.9,4.7l1.8-4.7h1.3L-89.3,101.6
			z M-89.5,101.4L-89.5,101.4l2.8-6.8h-0.7l-2,5.1l-2.1-5.1h-0.8l-2,5.1l-2-5.1h-0.8l2.7,6.8h0.1l2.4-5.9L-89.5,101.4z"/>
		<path class="st6" d="M-72.6,97c-0.2-0.2-0.5-0.2-0.8-0.2c-0.6,0-1,0.2-1.4,0.7v-3h-0.9v7.1h0.8v-3.3c0.2-0.2,0.4-0.4,0.6-0.5
			s0.4-0.2,0.6-0.2c0.3,0,0.5,0.1,0.7,0.3c0.2,0.2,0.2,0.5,0.2,0.8v2.9h0.9V99c0-0.5-0.1-0.9-0.2-1.2C-72.2,97.3-72.4,97.1-72.6,97"
			/>
		<path class="st6" d="M-71.8,101.6h-1.1v-3c0-0.3-0.1-0.6-0.2-0.7c-0.1-0.2-0.3-0.3-0.6-0.3c-0.2,0-0.4,0-0.5,0.1
			c-0.2,0.1-0.3,0.2-0.5,0.5v3.4h-1.2v-7.3h1.2v2.8c0.4-0.3,0.8-0.5,1.3-0.5c0.3,0,0.6,0.1,0.9,0.3c0.3,0.2,0.5,0.4,0.6,0.7
			c0.1,0.3,0.2,0.7,0.2,1.3L-71.8,101.6L-71.8,101.6z M-72.7,101.4h0.7v-2.5c0-0.5-0.1-0.9-0.2-1.2c-0.1-0.2-0.3-0.4-0.5-0.6
			c-0.2-0.1-0.5-0.2-0.8-0.2c-0.5,0-1,0.2-1.3,0.7l-0.2,0.3v-3.2h-0.7v6.8h0.7v-3.3l0,0c0.2-0.3,0.4-0.4,0.6-0.5s0.4-0.2,0.6-0.2
			c0.3,0,0.6,0.1,0.8,0.4c0.2,0.2,0.3,0.5,0.3,0.9C-72.7,98.8-72.7,101.4-72.7,101.4z"/>
		<path class="st6" d="M-40.2,96.8c-0.7,0-1.3,0.2-1.8,0.7c-0.5,0.4-0.7,1-0.7,1.7s0.2,1.2,0.7,1.7s1.1,0.7,1.8,0.7
			c0.7,0,1.3-0.2,1.8-0.7c0.5-0.4,0.7-1,0.7-1.7s-0.2-1.3-0.7-1.7C-38.9,97-39.5,96.8-40.2,96.8 M-39.1,100.3
			c-0.3,0.3-0.7,0.4-1.1,0.4c-0.5,0-0.8-0.1-1.1-0.4c-0.3-0.3-0.4-0.6-0.4-1.1c0-0.4,0.1-0.8,0.4-1.1c0.3-0.3,0.7-0.4,1.1-0.4
			c0.5,0,0.8,0.1,1.1,0.4c0.3,0.3,0.4,0.7,0.4,1.1C-38.7,99.6-38.8,100-39.1,100.3"/>
		<path class="st6" d="M-40.2,101.7c-0.7,0-1.3-0.2-1.8-0.7s-0.7-1.1-0.7-1.8c0-0.7,0.3-1.3,0.7-1.8c0.5-0.5,1.1-0.7,1.9-0.7
			c0.7,0,1.4,0.2,1.8,0.7c0.5,0.5,0.7,1.1,0.7,1.8c0,0.7-0.3,1.3-0.8,1.8C-38.8,101.4-39.5,101.7-40.2,101.7 M-40.2,96.9
			c-0.7,0-1.2,0.2-1.7,0.6c-0.4,0.4-0.7,1-0.7,1.6s0.2,1.2,0.7,1.6c0.4,0.4,1,0.6,1.7,0.6s1.3-0.2,1.7-0.6c0.5-0.4,0.7-0.9,0.7-1.6
			s-0.2-1.2-0.7-1.6C-39,97.1-39.5,96.9-40.2,96.9 M-40.2,100.8c-0.5,0-0.9-0.2-1.2-0.5c-0.3-0.3-0.5-0.7-0.5-1.2s0.2-0.9,0.5-1.2
			c0.3-0.3,0.7-0.5,1.2-0.5s0.9,0.2,1.2,0.5c0.3,0.3,0.5,0.7,0.5,1.2s-0.2,0.9-0.5,1.2C-39.3,100.7-39.7,100.8-40.2,100.8
			 M-40.2,97.8c-0.4,0-0.7,0.1-1,0.4s-0.4,0.6-0.4,1s0.1,0.7,0.4,1s0.6,0.4,1,0.4s0.8-0.1,1-0.4c0.3-0.3,0.4-0.6,0.4-1
			s-0.1-0.7-0.4-1C-39.5,97.9-39.8,97.8-40.2,97.8"/>
		<path class="st6" d="M-33.3,100.1c-0.3,0.4-0.7,0.6-1.1,0.6s-0.6-0.1-0.7-0.3c-0.1-0.2-0.2-0.5-0.2-1v-2.7h-0.9v2.7
			c0,0.6,0.1,1,0.2,1.3c0.1,0.2,0.3,0.4,0.6,0.6c0.3,0.1,0.5,0.2,0.8,0.2c0.2,0,0.5-0.1,0.8-0.2c0.2-0.1,0.5-0.3,0.7-0.5v0.6h0.9
			v-4.6h-0.9v3.3H-33.3z"/>
		<path class="st6" d="M-34.7,101.7c-0.3,0-0.6-0.1-0.9-0.2c-0.3-0.2-0.5-0.4-0.6-0.6c-0.1-0.3-0.2-0.7-0.2-1.3v-2.8h1.2v2.8
			c0,0.6,0.1,0.8,0.2,1s0.3,0.2,0.6,0.2c0.4,0,0.7-0.2,1-0.6v-3.4h1.2v4.9h-1.2v-0.4c-0.1,0.1-0.3,0.2-0.5,0.3
			C-34.1,101.6-34.4,101.7-34.7,101.7 M-36.1,97v2.5c0,0.6,0.1,1,0.2,1.2s0.3,0.4,0.5,0.5c0.4,0.3,0.9,0.3,1.4,0
			c0.2-0.1,0.4-0.3,0.6-0.5l0.2-0.2v0.8h0.7V97h-0.7v3.2l0,0c-0.3,0.5-0.7,0.7-1.2,0.7c-0.4,0-0.7-0.1-0.8-0.3
			c-0.2-0.2-0.2-0.6-0.2-1.1V97C-35.4,97-36.1,97-36.1,97z"/>
		<path class="st6" d="M-27.1,97.4c-0.5-0.4-1.1-0.6-1.9-0.6h-1.6v7h0.9v-2.5c0.4,0.1,0.7,0.2,1,0.2c0.7,0,1.2-0.2,1.7-0.7
			c0.4-0.5,0.6-1,0.6-1.7C-26.4,98.4-26.6,97.9-27.1,97.4 M-27.7,100.3c-0.3,0.3-0.6,0.5-1.1,0.5c-0.3,0-0.6-0.1-0.9-0.2v-2.9h0.7
			c0.4,0,0.8,0,1,0.2c0.2,0.1,0.4,0.3,0.5,0.5s0.2,0.5,0.2,0.8C-27.3,99.6-27.5,100-27.7,100.3"/>
		<path class="st6" d="M-29.6,104h-1.2v-7.3h1.7c0.8,0,1.5,0.2,2,0.6s0.7,1,0.7,1.8c0,0.7-0.2,1.3-0.7,1.8s-1,0.7-1.7,0.7
			c-0.3,0-0.5-0.1-0.9-0.1L-29.6,104L-29.6,104z M-30.5,103.7h0.7v-2.5l0.2,0.1c0.4,0.1,0.7,0.2,0.9,0.2c0.6,0,1.2-0.2,1.6-0.6
			s0.6-1,0.6-1.6c0-0.7-0.2-1.2-0.6-1.6s-1.1-0.6-1.8-0.6h-1.5L-30.5,103.7L-30.5,103.7z M-28.8,100.9c-0.3,0-0.6-0.1-0.9-0.2h-0.1
			v-3.1h0.8c0.5,0,0.8,0.1,1,0.2s0.4,0.3,0.6,0.6c0.1,0.2,0.2,0.5,0.2,0.9c0,0.5-0.1,0.9-0.4,1.2C-27.9,100.7-28.3,100.9-28.8,100.9
			 M-29.6,100.5c0.2,0.1,0.5,0.2,0.8,0.2c0.4,0,0.7-0.1,1-0.4s0.4-0.6,0.4-1.1c0-0.3-0.1-0.5-0.2-0.7s-0.3-0.4-0.5-0.5
			s-0.5-0.1-0.9-0.1h-0.5v2.6H-29.6z"/>
		<path class="st6" d="M-45.7,97.8L-45.7,97.8l-0.1-1h-0.9v4.6h0.9V99c0-0.4,0.1-0.7,0.3-1c0.2-0.3,0.5-0.4,0.8-0.4s0.6,0.1,0.9,0.5
			l0.5-0.8c-0.4-0.3-0.7-0.5-1.1-0.5C-44.8,96.7-45.2,97.1-45.7,97.8"/>
		<path class="st6" d="M-45.6,101.6h-1.2v-4.9h1.2v0.8c0.4-0.6,0.8-0.9,1.3-0.9c0.4,0,0.8,0.2,1.2,0.6l0.1,0.1l-0.6,1l-0.1-0.1
			c-0.6-0.6-1.1-0.5-1.5,0c-0.2,0.3-0.3,0.6-0.3,0.9L-45.6,101.6L-45.6,101.6z M-46.6,101.4h0.7V99c0-0.4,0.1-0.8,0.4-1.1
			c0.4-0.6,1.1-0.7,1.7-0.1l0.4-0.6c-0.3-0.3-0.6-0.4-0.9-0.4c-0.4,0-0.8,0.3-1.2,1l-0.4,0.5V97h-0.7V101.4z"/>
		<path class="st6" d="M-50.9,98.9h1.4v1.5h-0.1c-0.6,0.2-1,0.3-1.5,0.3c-0.8,0-1.5-0.2-2-0.8c-0.5-0.5-0.8-1.2-0.8-2
			s0.3-1.4,0.8-1.9s1.2-0.8,1.9-0.8c0.8,0,1.7,0.2,2.5,0.7v-1c-0.5-0.2-1-0.4-1.4-0.5s-0.7-0.1-1.1-0.1c-1.1,0-2,0.4-2.7,1
			c-0.7,0.7-1.1,1.6-1.1,2.6s0.3,1.8,1,2.5s1.6,1,2.8,1c0.9,0,1.7-0.2,2.6-0.6v-3h-2.3V98.9z"/>
		<path class="st6" d="M-51.1,101.7c-1.2,0-2.2-0.4-2.9-1.1c-0.7-0.7-1.1-1.6-1.1-2.6c0-1.1,0.4-2,1.1-2.7s1.7-1.1,2.8-1.1
			c0.4,0,0.8,0,1.2,0.1c0.4,0.1,0.8,0.3,1.4,0.5h0.1v1.3l-0.2-0.1c-0.8-0.5-1.6-0.7-2.4-0.7c-0.7,0-1.4,0.2-1.9,0.7
			s-0.8,1.1-0.8,1.8c0,0.8,0.3,1.4,0.8,1.9s1.1,0.7,2,0.7c0.4,0,0.9-0.1,1.4-0.3l0,0V99H-51v-1.1h2.6v3.2h-0.1
			C-49.4,101.5-50.3,101.7-51.1,101.7 M-51.2,94.5c-1.1,0-1.9,0.3-2.6,1c-0.7,0.6-1.1,1.5-1.1,2.5s0.3,1.8,1,2.4
			c0.7,0.7,1.6,1,2.7,1c0.8,0,1.6-0.2,2.5-0.5v-2.8h-2.1v0.7h1.4v1.7l-0.2,0.1c-0.6,0.2-1.1,0.3-1.5,0.3c-0.9,0-1.6-0.3-2.1-0.8
			c-0.6-0.5-0.8-1.2-0.8-2.1c0-0.8,0.3-1.5,0.8-2c0.6-0.5,1.2-0.8,2-0.8s1.6,0.2,2.4,0.6V95c-0.5-0.2-0.9-0.4-1.3-0.4
			C-50.4,94.5-50.8,94.5-51.2,94.5"/>
		<polygon class="st6" points="-65.8,99.6 -66.9,96.8 -67.6,96.8 -68.8,99.6 -70,96.8 -71,96.8 -68.9,101.6 -68.6,101.6 -67.3,98.3 
			-65.9,101.6 -65.6,101.6 -63.6,96.8 -64.6,96.8 		"/>
		<path class="st6" d="M-65.5,101.7h-0.4l-1.3-3l-1.3,3H-69l-2.2-5h1.3l1.1,2.6l1.1-2.6h0.8l1.1,2.6l1.1-2.6h1.3L-65.5,101.7z
			 M-65.8,101.4L-65.8,101.4l2-4.5h-0.7l-1.3,3l-1.3-3h-0.5l-1.3,3l-1.3-3h-0.7l2,4.5h0.1l1.4-3.4L-65.8,101.4z"/>
		<path class="st6" d="M-59.5,100.7v-2c0-0.4,0-0.7,0-0.8c0-0.1-0.1-0.3-0.2-0.4s-0.2-0.3-0.3-0.3c-0.3-0.3-0.7-0.4-1.2-0.4
			c-0.7,0-1.2,0.2-1.5,0.6v1c0.5-0.5,1-0.8,1.5-0.8c0.6,0,0.8,0.3,0.8,0.8v0.3l-1.2,0.4c-0.4,0.1-0.7,0.3-0.9,0.6
			c-0.2,0.2-0.3,0.5-0.3,0.8s0.1,0.6,0.3,0.8c0.2,0.2,0.5,0.3,0.8,0.3c0.4,0,0.9-0.1,1.3-0.5c0.1,0.3,0.3,0.5,0.7,0.5
			c0.1,0,0.3,0,0.4-0.1c0.1,0,0.3-0.1,0.5-0.3v-0.6c-0.2,0.2-0.4,0.3-0.5,0.3S-59.5,100.8-59.5,100.7 M-60.4,100.6
			c-0.2,0.2-0.5,0.4-0.8,0.4c-0.2,0-0.4-0.1-0.5-0.2s-0.2-0.3-0.2-0.5s0.1-0.3,0.2-0.5c0.1-0.1,0.3-0.3,0.7-0.4l0.6-0.2
			C-60.4,99.2-60.4,100.6-60.4,100.6z"/>
		<path class="st6" d="M-59.7,101.7c-0.4,0-0.7-0.2-0.8-0.4c-0.4,0.3-0.8,0.4-1.2,0.4c-0.4,0-0.7-0.1-0.9-0.4
			c-0.2-0.2-0.4-0.5-0.4-0.9c0-0.3,0.1-0.6,0.3-0.9c0.2-0.2,0.5-0.4,1-0.6l1.1-0.4v-0.2c0-0.5-0.2-0.7-0.7-0.7s-0.9,0.2-1.4,0.7
			l-0.2,0.1V97l0,0c0.4-0.4,0.9-0.7,1.6-0.7c0.5,0,1,0.1,1.3,0.4c0.1,0.1,0.2,0.2,0.3,0.4c0.1,0.1,0.1,0.3,0.2,0.5
			c0,0.2,0,0.4,0,0.8v2c0,0.1,0,0.1,0,0.1s0.2,0,0.4-0.2l0.2-0.1v0.9H-59c-0.2,0.1-0.4,0.2-0.5,0.3
			C-59.4,101.7-59.6,101.7-59.7,101.7 M-60.3,100.9v0.2c0,0.2,0.1,0.4,0.6,0.4c0.1,0,0.2,0,0.3-0.1c0.1,0,0.3-0.1,0.4-0.2v-0.3
			c-0.1,0.1-0.2,0.1-0.3,0.1s-0.3,0-0.3-0.4v-2c0-0.4,0-0.6,0-0.8c0-0.1-0.1-0.2-0.1-0.4c-0.1-0.1-0.2-0.2-0.2-0.3
			c-0.3-0.2-0.7-0.4-1.1-0.4c-0.6,0-1.1,0.2-1.4,0.6v0.6c0.4-0.4,0.9-0.6,1.3-0.6c0.6,0,1,0.3,1,1v0.3l-1.3,0.4
			c-0.4,0.1-0.6,0.3-0.8,0.5c-0.2,0.2-0.3,0.4-0.3,0.7c0,0.3,0.1,0.5,0.3,0.7c0.2,0.2,0.4,0.3,0.7,0.3
			C-61.1,101.2-60.7,101.1-60.3,100.9L-60.3,100.9z M-61.2,101c-0.2,0-0.4-0.1-0.6-0.2c-0.1-0.1-0.2-0.3-0.2-0.6
			c0-0.2,0.1-0.4,0.2-0.6c0.1-0.1,0.4-0.3,0.7-0.4l0.8-0.3v1.6l0,0C-60.6,100.9-60.9,101-61.2,101 M-60.5,99.4l-0.4,0.2
			c-0.4,0.1-0.5,0.3-0.6,0.3c-0.1,0.1-0.2,0.2-0.2,0.4c0,0.2,0,0.3,0.1,0.4s0.2,0.2,0.4,0.2c0.2,0,0.5-0.1,0.7-0.3V99.4z"/>
	</g>
	<g>
		<path class="st6" d="M-48,42.8l-3.1-5.1l-0.2-0.3c0,0,0,0,0-0.1c0-0.1-0.1-0.1-0.2-0.2c-0.1,0-0.2-0.1-0.2-0.1h-0.1l0,0l0,0h-18.1
			H-70c-0.2,0-0.3,0.1-0.4,0.2l-3.1,5.3h-18.1l0,0h-0.2c-0.2,0-0.3,0.1-0.4,0.2l-3,5.6c-0.1,0.2-0.1,0.4,0,0.6l9,15.5
			c0.2,0.2,0.2,0.2,0.4,0.2c0.1,0,0.1,0,0.1,0h6.1l9.1,15.8l0,0l0,0c0,0,0,0,0.1,0.1l0.1,0.1l0,0l0,0l0,0c0,0,0,0,0.1,0l0,0
			c0.1,0,0.1,0,0.2,0l0,0h6.4l0,0c0.2,0,0.3-0.1,0.4-0.2l9.3-15.5l0,0l0,0c0-0.1,0-0.2,0-0.2l0,0l0,0c0-0.1,0-0.2,0-0.2s0,0,0-0.1
			v-0.1L-57,59l9-15.6C-47.9,43.2-48,42.9-48,42.8"/>
		<path class="st7" d="M-85.3,64l-8.8-15.2l2.5-4.7l8.8,15.2l0,0c0.1,0.1,0.1,0.2,0.2,0.2s0.2,0.1,0.2,0.1h17.3l-2.5,4.5H-85.3
			L-85.3,64z"/>
		<path class="st7" d="M-54.9,64.8l-8.9,15.1h-5.3l8.8-15.1c0,0,0,0,0-0.1l0,0v-0.1c0,0,0,0,0-0.1l0,0l0,0l0,0v-0.1v-0.1l0,0
			c0,0,0,0,0-0.1L-69,49.2h5.2L-54.9,64.8z"/>
		<path class="st7" d="M-66.8,42.7L-66.8,42.7L-66.8,42.7C-66.9,42.7-66.9,42.7-66.8,42.7C-66.9,42.7-66.9,42.7-66.8,42.7H-67
			c0,0,0,0-0.1,0c0,0,0,0-0.1,0l0,0c0,0,0,0-0.1,0.1c0,0,0,0-0.1,0.1l0,0l0,0l0,0l0,0l-0.1,0.2l-8.8,15l-2.5-4.6l8.9-15.3h17.8
			l2.7,4.5C-49.2,42.7-66.8,42.7-66.8,42.7z"/>
	</g>
</g>
<g>
	<g>
		<path class="st8" d="M276.7,33.1c-2.8-2.7-4.9-4.3-8.7-4.8c-0.5-0.1-0.9,0.3-1,0.8c-0.1,0.5,0.3,0.9,0.8,1c3.1,0.5,4.7,1.6,7,3.7
			c-2.9,2.6-6.7,4-10.6,4.1c-3.7,0.1-7.4-1.1-10.3-3.3c8.9-1.1,15.9-8.8,16-18c0-0.2-0.1-0.5-0.3-0.6c-0.2-0.2-0.4-0.3-0.7-0.3
			c-3.8,0-6.4,0.8-9.5,3.1c-0.4,0.3-0.5,0.9-0.2,1.3c0.1,0.2,0.3,0.3,0.6,0.4c0.2,0,0.5,0,0.7-0.2c2.5-1.8,4.5-2.5,7.6-2.7
			c-0.3,4.1-2,7.9-5,10.7c-2.6,2.5-5.8,4.1-9.3,4.5c5.5-7.1,5.1-17.4-1.4-23.9c-0.2-0.2-0.4-0.3-0.6-0.3c-0.2,0-0.5,0.1-0.6,0.3
			c-2.7,2.8-4.5,5.1-5,8.9c-0.1,0.5,0.3,0.9,0.8,1c0.5,0.1,0.9-0.3,1-0.8c0.5-3.1,1.8-4.9,3.9-7.3c2.7,3,4.1,6.9,4,11.1
			c-0.1,3.6-1.3,6.9-3.4,9.7c-1.1-8.9-8.7-15.8-17.8-15.9c-0.2,0-0.5,0.1-0.6,0.3c-0.2,0.2-0.3,0.4-0.3,0.6v1.7c0,0,0,0.1,0,0.1
			c0.3,3.1,1.4,5.5,3.2,8c0.3,0.4,0.8,0.5,1.2,0.2c0.2-0.1,0.3-0.3,0.4-0.6c0-0.2,0-0.5-0.1-0.7c-1.6-2.3-2.6-4.4-2.8-7.1v-0.7
			c4,0.3,7.8,2,10.6,5c2.5,2.6,4,5.8,4.5,9.2c-7.1-5.4-17.3-4.9-23.7,1.4c-0.2,0.2-0.3,0.4-0.3,0.6c0,0.2,0.1,0.5,0.3,0.6l1.2,1.2
			c0,0,0,0,0.1,0.1c3.2,2.6,7.3,4.1,11.4,4.1h0h0c3.2,0,6.4-0.9,9.2-2.5c0.2-0.1,0.4-0.3,0.4-0.5c0.1-0.2,0-0.5-0.1-0.7
			c-0.1-0.2-0.3-0.4-0.5-0.4c-0.2-0.1-0.5,0-0.7,0.1c-2.5,1.5-5.4,2.3-8.3,2.3h0c-3.7,0-7.4-1.3-10.2-3.6l-0.5-0.5
			c3-2.7,6.9-4.1,11-4c4.2,0.1,8.2,1.7,11.2,4.7c0,0,0,0,0,0v0h0l0,0c3.4,3.4,8,5.3,12.8,5.3h0c4.9,0,9.4-1.9,12.8-5.3
			c0.2-0.2,0.3-0.4,0.3-0.6C277,33.5,276.9,33.3,276.7,33.1"/>
		<g>
			<g>
				<path class="st8" d="M174.2,66.9V53h-5.6v-2.4h13.9V53h-5.8v13.9H174.2z"/>
			</g>
			<g>
				<path class="st8" d="M188.1,66.9V50.6h2.5v16.3H188.1z M189.2,60v-2.4h12.8V60H189.2z M200.8,66.9V50.6h2.5v16.3H200.8z"/>
			</g>
			<g>
				<path class="st8" d="M210.1,66.9V50.6h12.4V53h-9.8v11.5h9.8v2.4H210.1z M211.4,59.7v-2.4h9.8v2.4H211.4z"/>
			</g>
			<g>
				<path class="st8" d="M241.1,66.9V50.6h2.5v16.3H241.1z M242.2,60v-2.4h12.8V60H242.2z M253.8,66.9V50.6h2.5v16.3H253.8z"/>
			</g>
			<g>
				<path class="st8" d="M260.7,66.9l7.4-16.3h2.8l7.3,16.3h-2.8l-4.9-10.7c-0.1-0.2-0.2-0.5-0.3-0.9c-0.1-0.3-0.3-0.7-0.4-1
					c-0.1-0.4-0.3-0.7-0.4-1.1c-0.1-0.4-0.2-0.7-0.3-1l0.7,0c-0.1,0.3-0.3,0.7-0.4,1c-0.1,0.4-0.3,0.7-0.4,1.1s-0.3,0.7-0.4,1
					c-0.1,0.3-0.3,0.6-0.4,0.9l-4.8,10.6H260.7z M263.9,63l1-2.4h8.9l0.7,2.4H263.9z"/>
			</g>
			<g>
				<path class="st8" d="M284.9,66.9l-7.2-16.3h2.8l4.2,9.8c0.1,0.3,0.3,0.7,0.5,1.1c0.2,0.4,0.4,0.8,0.6,1.3
					c0.2,0.4,0.4,0.9,0.5,1.3c0.2,0.4,0.3,0.8,0.4,1.1l-0.7,0c0.2-0.4,0.3-0.9,0.6-1.5c0.2-0.5,0.4-1.1,0.7-1.7
					c0.2-0.6,0.5-1.1,0.7-1.6l3.9-9.8h2.9l-7.1,16.3H284.9z"/>
			</g>
			<g>
				<path class="st8" d="M299.4,66.9V50.6h12.4V53H302v11.5h9.8v2.4H299.4z M300.7,59.7v-2.4h9.8v2.4H300.7z"/>
			</g>
			<g>
				<path class="st8" d="M318.6,66.9V50.6h2.4l12.1,13.4l-0.2,0.2c-0.1-0.4-0.1-0.9-0.2-1.4c-0.1-0.5-0.1-1-0.1-1.6
					c0-0.5-0.1-1.1-0.1-1.7c0-0.6,0-1.2-0.1-1.8c0-0.6,0-1.2,0-1.7v-5.4h2.5v16.3h-2.4L320.6,54l0.1-0.3c0,0.5,0.1,1,0.1,1.5
					c0,0.5,0.1,1,0.1,1.4c0,0.5,0.1,0.9,0.1,1.3c0,0.4,0,0.8,0.1,1.2c0,0.4,0,0.7,0,1v6.8H318.6z"/>
			</g>
		</g>
		<g>
			<path class="st10" d="M210.4,87.9H208v4.3h-3.1V78h5.8c3.4,0,5.5,2,5.5,4.9v0C216.2,86.2,213.6,87.9,210.4,87.9z M213,82.9
				c0-1.4-1-2.2-2.5-2.2H208v4.4h2.5C212.1,85.2,213,84.2,213,82.9L213,82.9z"/>
			<path class="st10" d="M229.7,92.2l-1.3-3.2h-6l-1.3,3.2h-3.2l6.1-14.4h2.9l6.1,14.4H229.7z M225.4,81.6l-1.9,4.6h3.8L225.4,81.6z
				"/>
			<path class="st10" d="M247.3,92.2l-6.9-9.1v9.1h-3.1V78h2.9l6.7,8.8V78h3.1v14.3H247.3z"/>
			<path class="st10" d="M262.7,92.3H260L254.2,78h3.5l3.7,10.1l3.7-10.1h3.4L262.7,92.3z"/>
			<path class="st10" d="M272.8,92.2V78h10.8v2.8h-7.6v2.9h6.7v2.8h-6.7v3h7.7v2.8H272.8z"/>
			<path class="st10" d="M288.4,92.2V78h3.1v11.4h7.1v2.9H288.4z"/>
		</g>
	</g>
	<g>
		<g>
			<polygon class="st9" points="25.2,92.2 22.3,81 19.5,92.2 17.8,92.2 13.1,74.3 15.7,74.3 18.6,85.5 21.5,74.3 23.2,74.3 26,85.5 
				28.9,74.3 31.6,74.3 26.9,92.2 			"/>
			<rect x="36.1" y="74.3" class="st9" width="2.6" height="17.9"/>
			<path class="st9" d="M49.1,92.4c-0.6,0-1.3-0.1-1.8-0.4c-0.6-0.2-1.1-0.6-1.5-1c-0.4-0.4-0.8-0.9-1-1.5c-0.3-0.6-0.4-1.2-0.4-1.8
				v-1.1l2.6-0.4v1.6c0,0.3,0.1,0.6,0.2,0.8c0.1,0.3,0.3,0.5,0.5,0.7c0.2,0.2,0.4,0.4,0.7,0.5c0.3,0.1,0.6,0.2,0.9,0.2h1.1
				c0.3,0,0.6-0.1,0.8-0.2c0.3-0.1,0.5-0.3,0.7-0.5c0.2-0.2,0.4-0.4,0.5-0.7c0.1-0.2,0.2-0.5,0.2-0.8v-0.5c0-0.5-0.1-0.9-0.3-1.2
				c-0.2-0.3-0.4-0.6-0.7-0.8c-0.3-0.2-0.7-0.4-1.1-0.6c-0.5-0.2-1-0.4-1.5-0.6c-0.5-0.2-1-0.4-1.5-0.6c-0.5-0.2-1-0.6-1.4-0.9
				c-0.4-0.4-0.8-0.9-1-1.4c-0.3-0.6-0.4-1.3-0.4-2.1v-0.3c0-0.6,0.1-1.3,0.4-1.8c0.2-0.6,0.6-1.1,1-1.5c0.4-0.4,0.9-0.8,1.5-1
				c0.6-0.2,1.2-0.4,1.8-0.4h1.1c0.6,0,1.3,0.1,1.8,0.4c0.6,0.2,1.1,0.6,1.5,1c0.4,0.4,0.8,0.9,1,1.5c0.2,0.6,0.4,1.2,0.4,1.8v0.9
				l-2.6,0.4v-1.3c0-0.3-0.1-0.6-0.2-0.8c-0.1-0.3-0.3-0.5-0.5-0.7c-0.2-0.2-0.4-0.3-0.7-0.5c-0.3-0.1-0.5-0.2-0.8-0.2h-0.9
				c-0.3,0-0.6,0.1-0.8,0.2c-0.3,0.1-0.5,0.3-0.7,0.5c-0.2,0.2-0.3,0.4-0.5,0.7c-0.1,0.3-0.2,0.5-0.2,0.8V79c0,0.4,0.1,0.8,0.3,1.1
				c0.2,0.3,0.4,0.6,0.7,0.8c0.3,0.2,0.7,0.4,1.2,0.6c0.5,0.2,1,0.4,1.5,0.6c0.5,0.2,1,0.4,1.5,0.7c0.5,0.3,1,0.6,1.4,1
				c0.4,0.4,0.8,0.9,1,1.5c0.3,0.6,0.4,1.3,0.4,2.1v0.5c0,0.6-0.1,1.3-0.4,1.8c-0.3,0.6-0.6,1.1-1,1.5c-0.4,0.4-0.9,0.8-1.5,1
				c-0.6,0.2-1.2,0.4-1.8,0.4H49.1z"/>
			<polygon class="st9" points="60.6,92.2 60.6,74.3 71.2,74.3 71.2,76.8 63.2,76.8 63.2,81.9 69.7,81.9 69.7,84.5 63.2,84.5 
				63.2,89.6 71.2,89.6 71.2,92.2 			"/>
			<path class="st9" d="M89.6,92.4c-0.6,0-1.3-0.1-1.8-0.4c-0.6-0.2-1.1-0.6-1.5-1c-0.4-0.4-0.8-0.9-1-1.5c-0.2-0.6-0.4-1.2-0.4-1.8
				v-9c0-0.6,0.1-1.3,0.4-1.8c0.2-0.6,0.6-1.1,1-1.5c0.4-0.4,0.9-0.8,1.5-1c0.6-0.2,1.2-0.4,1.8-0.4h1.2c0.6,0,1.3,0.1,1.8,0.4
				c0.6,0.2,1.1,0.6,1.5,1c0.4,0.4,0.8,0.9,1,1.5c0.2,0.6,0.4,1.2,0.4,1.8v1.2l-2.6,0.4v-1.6c0-0.3-0.1-0.6-0.2-0.8
				c-0.1-0.3-0.3-0.5-0.5-0.7c-0.2-0.2-0.4-0.3-0.7-0.5c-0.3-0.1-0.5-0.2-0.8-0.2h-1.1c-0.3,0-0.6,0.1-0.8,0.2
				c-0.3,0.1-0.5,0.3-0.7,0.5c-0.2,0.2-0.3,0.4-0.5,0.7c-0.1,0.2-0.2,0.5-0.2,0.8v9c0,0.3,0.1,0.6,0.2,0.8c0.1,0.3,0.3,0.5,0.5,0.7
				c0.2,0.2,0.4,0.3,0.7,0.5c0.3,0.1,0.5,0.2,0.8,0.2h1.1c0.3,0,0.6-0.1,0.8-0.2c0.3-0.1,0.5-0.3,0.7-0.5c0.2-0.2,0.3-0.4,0.5-0.7
				c0.1-0.2,0.2-0.5,0.2-0.8v-1.6l2.6,0.4v1.1c0,0.6-0.1,1.3-0.4,1.8c-0.2,0.6-0.6,1.1-1,1.5c-0.4,0.4-0.9,0.8-1.5,1
				c-0.6,0.2-1.2,0.4-1.8,0.4H89.6z"/>
			<rect x="101.1" y="74.3" class="st9" width="2.6" height="17.9"/>
			<polygon class="st9" points="112.3,92.2 112.3,76.8 108.3,76.8 108.3,74.3 119,74.3 119,76.8 115,76.8 115,92.2 			"/>
			<polygon class="st9" points="126.5,92.2 126.5,83.7 121.8,74.3 124.7,74.3 127.8,80.5 130.9,74.3 133.8,74.3 129.1,83.7 
				129.1,92.2 			"/>
		</g>
		<g>
			<polygon class="st9" points="42.4,65.9 40.2,57.6 38.1,65.9 37,65.9 33.7,53.2 35.4,53.2 37.6,61.6 39.7,53.2 40.8,53.2 
				42.9,61.6 45,53.2 46.8,53.2 43.4,65.9 			"/>
			<path class="st9" d="M56.6,65.9l-0.8-2.8h-3.4l-0.8,2.8h-1.8l3.7-12.7h1l3.7,12.7H56.6z M55.4,61.5l-1.2-4.2L53,61.5H55.4z"/>
			<path class="st9" d="M63,65.9V53.2h4.1c0.4,0,0.9,0.1,1.3,0.3c0.4,0.2,0.8,0.4,1,0.7c0.3,0.3,0.5,0.7,0.7,1
				c0.2,0.4,0.3,0.8,0.3,1.3v6.1c0,0.5-0.1,0.9-0.3,1.3c-0.2,0.4-0.4,0.7-0.7,1c-0.3,0.3-0.7,0.5-1,0.7c-0.4,0.2-0.8,0.3-1.3,0.3H63
				z M67.1,64.3c0.2,0,0.4,0,0.6-0.1c0.2-0.1,0.4-0.2,0.5-0.3c0.1-0.1,0.3-0.3,0.3-0.5c0.1-0.2,0.1-0.4,0.1-0.6v-6.1
				c0-0.2,0-0.4-0.1-0.6c-0.1-0.2-0.2-0.4-0.4-0.5c-0.1-0.2-0.3-0.3-0.5-0.4c-0.2-0.1-0.4-0.1-0.6-0.1h-2.4v9.4H67.1z"/>
			<polygon class="st9" points="81.9,65.9 81.9,60.4 77.9,60.4 77.9,65.9 76.2,65.9 76.2,53.2 77.9,53.2 77.9,58.8 81.9,58.8 
				81.9,53.2 83.6,53.2 83.6,65.9 			"/>
			<polygon class="st9" points="97.1,65.9 95,57.6 92.9,65.9 91.8,65.9 88.4,53.2 90.2,53.2 92.3,61.6 94.4,53.2 95.5,53.2 
				97.7,61.6 99.8,53.2 101.5,53.2 98.2,65.9 			"/>
			<path class="st9" d="M111.4,65.9l-0.8-2.8h-3.4l-0.8,2.8h-1.8l3.7-12.7h1l3.7,12.7H111.4z M110.2,61.5l-1.2-4.2l-1.2,4.2H110.2z"
				/>
		</g>
		<path class="st9" d="M91.8,12.9l-2.4-4l-0.1-0.2c0,0,0,0,0,0c0,0-0.1-0.1-0.1-0.1c0,0-0.1,0-0.2,0h0h0h0H74.8h-0.1
			c-0.1,0-0.3,0.1-0.3,0.2L72,12.8H57.8h0h-0.1c-0.1,0-0.3,0.1-0.3,0.2l-2.3,4.4c-0.1,0.2-0.1,0.3,0,0.5l7,12.2
			c0.1,0.2,0.2,0.2,0.3,0.2c0,0,0.1,0,0.1,0h4.8l7.1,12.3h0c0,0,0,0,0,0c0,0,0,0,0,0c0,0,0,0,0.1,0.1c0,0,0,0,0,0c0,0,0,0,0,0
			c0,0,0,0,0,0c0,0,0,0,0,0l0,0c0,0,0.1,0,0.1,0h0l5,0h0c0.1,0,0.3-0.1,0.3-0.2l7.1-12.3c0,0,0,0,0,0c0,0,0,0,0,0c0,0,0-0.1,0-0.1v0
			l0,0c0,0,0-0.1,0-0.2c0,0,0,0,0,0l0,0l-2.4-4.2l7-12.2C91.9,13.2,91.8,13.1,91.8,12.9 M62.7,29.5l-6.9-11.9l2-3.6l6.8,11.8
			c0,0,0,0,0,0c0,0.1,0.1,0.1,0.1,0.1c0,0,0.2,0.1,0.2,0.1h13.5l-1.9,3.5H62.7z M86.5,30.1l-7,11.8h-4.2l6.8-11.8c0,0,0,0,0,0
			c0,0,0,0,0,0c0,0,0,0,0-0.1c0,0,0,0,0,0v0v0v0c0,0,0,0,0-0.1c0,0,0,0,0-0.1c0,0,0,0,0,0c0,0,0,0,0,0l-6.7-11.7h4.1L86.5,30.1z
			 M77.1,12.8L77.1,12.8L77.1,12.8C77.1,12.8,77.1,12.8,77.1,12.8C77.1,12.8,77.1,12.8,77.1,12.8c-0.1,0-0.1,0-0.1,0c0,0,0,0,0,0
			c0,0,0,0,0,0c0,0,0,0,0,0c0,0,0,0,0,0c0,0,0,0,0,0c0,0,0,0,0,0c0,0,0,0,0,0c0,0,0,0,0,0v0l-0.1,0.1l-6.9,11.7l-1.9-3.6l6.9-11.9
			h13.8l2.1,3.5H77.1z"/>
	</g>
	<line class="st11" x1="151.2" y1="9.3" x2="151.2" y2="97"/>
</g>
</svg>
